<svg width="20" height="20" viewBox="0 0 20 20" fill="none" xmlns="http://www.w3.org/2000/svg">
<circle cx="9.64917" cy="6.06495" r="3.98169" stroke="#6C63FF" stroke-linecap="round" stroke-linejoin="round"/>
<path fill-rule="evenodd" clip-rule="evenodd" d="M3.33339 15.5844C3.33232 15.3045 3.39492 15.028 3.51645 14.7758C3.89784 14.0131 4.97336 13.6088 5.86581 13.4257C6.50944 13.2884 7.16196 13.1966 7.81851 13.1511C9.03407 13.0444 10.2567 13.0444 11.4722 13.1511C12.1287 13.1971 12.7812 13.2889 13.4249 13.4257C14.3174 13.6088 15.3929 13.9749 15.7743 14.7758C16.0187 15.2898 16.0187 15.8866 15.7743 16.4006C15.3929 17.2015 14.3174 17.5676 13.4249 17.743C12.782 17.8861 12.1293 17.9804 11.4722 18.0253C10.4828 18.1091 9.48886 18.1244 8.49738 18.071C8.26855 18.071 8.04735 18.071 7.81851 18.0253C7.1639 17.981 6.51364 17.8866 5.87343 17.743C4.97336 17.5676 3.90547 17.2015 3.51645 16.4006C3.39554 16.1455 3.333 15.8667 3.33339 15.5844Z" stroke="#6C63FF" stroke-linecap="round" stroke-linejoin="round"/>
</svg>
