<svg width="20" height="20" viewBox="0 0 20 20" fill="none" xmlns="http://www.w3.org/2000/svg">
<g clip-path="url(#clip0_296_8123)">
<path d="M10.5 3.91605C10.435 3.91675 10.3706 3.90465 10.3103 3.88044C10.25 3.85623 10.1951 3.82038 10.1486 3.77494C10.1022 3.7295 10.0652 3.67536 10.0397 3.61561C10.0142 3.55586 10.0007 3.49167 10 3.42671C10 1.53338 11.568 4.5265e-05 13.4987 4.5265e-05C13.5637 -0.000835405 13.6282 0.0111424 13.6886 0.0352902C13.7489 0.0594379 13.8039 0.0952792 13.8504 0.140753C13.8969 0.186228 13.9339 0.240438 13.9593 0.300267C13.9848 0.360097 13.9981 0.424366 13.9987 0.489379C13.9987 2.38271 12.432 3.91605 10.5 3.91605Z" fill="black"/>
<path d="M10.5 3.91605C10.435 3.91675 10.3706 3.90465 10.3103 3.88044C10.25 3.85623 10.1951 3.82038 10.1486 3.77494C10.1022 3.7295 10.0652 3.67536 10.0397 3.61561C10.0142 3.55586 10.0007 3.49167 10 3.42671C10 1.53338 11.568 4.5265e-05 13.4987 4.5265e-05C13.5637 -0.000835405 13.6282 0.0111424 13.6886 0.0352902C13.7489 0.0594379 13.8039 0.0952792 13.8504 0.140753C13.8969 0.186228 13.9339 0.240438 13.9593 0.300267C13.9848 0.360097 13.9981 0.424366 13.9987 0.489379C13.9987 2.38271 12.432 3.91605 10.5 3.91605ZM17.8 14.224C17.9933 14.3654 18.056 14.624 17.9467 14.8347C16.1867 18.2827 14.7827 20 13.5 20C12.9027 20 12.316 19.8107 11.744 19.4427C11.3335 19.1791 10.858 19.0342 10.3703 19.0238C9.8825 19.0135 9.40136 19.1381 8.98 19.384C8.28667 19.7907 7.62667 20 7 20C5.11333 20 2 14.3107 2 11.1894C2 7.85605 3.78533 5.31471 6.5 5.31471C7.77733 5.31471 8.88 5.49871 9.80667 5.87338C10.1987 6.03071 10.6427 6.02005 11.0253 5.84005C11.7773 5.48538 12.7693 5.31471 13.9987 5.31471C15.5013 5.31471 16.812 6.04805 17.9 7.46805C17.9394 7.51925 17.968 7.57784 17.9843 7.64033C18.0006 7.70282 18.0042 7.76795 17.9949 7.83186C17.9856 7.89576 17.9635 7.95715 17.93 8.01238C17.8966 8.0676 17.8523 8.11555 17.8 8.15338C16.5853 9.04671 16 10.048 16 11.1894C16 12.3294 16.5853 13.332 17.8 14.224Z" fill="black"/>
<path d="M17.8 14.224C17.9933 14.3654 18.056 14.624 17.9467 14.8347C16.1867 18.2827 14.7827 20 13.5 20C12.9027 20 12.316 19.8107 11.744 19.4427C11.3335 19.1791 10.858 19.0341 10.3703 19.0238C9.8825 19.0134 9.40136 19.1381 8.98 19.384C8.28667 19.7907 7.62667 20 7 20C5.11333 20 2 14.3107 2 11.1894C2 7.85603 3.78533 5.3147 6.5 5.3147C7.77733 5.3147 8.88 5.4987 9.80667 5.87336C10.1987 6.0307 10.6427 6.02003 11.0253 5.84003C11.7773 5.48536 12.7693 5.3147 13.9987 5.3147C15.5013 5.3147 16.812 6.04803 17.9 7.46803C17.9394 7.51924 17.968 7.57782 17.9843 7.64031C18.0006 7.70281 18.0042 7.76793 17.9949 7.83184C17.9856 7.89575 17.9635 7.95713 17.93 8.01236C17.8966 8.06759 17.8523 8.11554 17.8 8.15336C16.5853 9.0467 16 10.048 16 11.1894C16 12.3294 16.5853 13.332 17.8 14.224Z" fill="black"/>
</g>
<defs>
<clipPath id="clip0_296_8123">
<rect width="20" height="20" fill="white"/>
</clipPath>
</defs>
</svg>
