<svg width="20" height="20" viewBox="0 0 20 20" fill="none" xmlns="http://www.w3.org/2000/svg">
<path d="M17.5 9.79178H2.49996C1.69996 9.79178 1.04163 9.13344 1.04163 8.33345V5.56677C1.04163 5.00011 1.43327 4.42511 1.95827 4.21678L9.45827 1.2168C9.77494 1.0918 10.225 1.0918 10.5416 1.2168L18.0416 4.21678C18.5666 4.42511 18.9583 5.00844 18.9583 5.56677V8.33345C18.9583 9.13344 18.3 9.79178 17.5 9.79178ZM9.99996 2.3668C9.96663 2.3668 9.93331 2.36676 9.91665 2.37509L2.42494 5.37512C2.37494 5.40012 2.29163 5.50844 2.29163 5.56677V8.33345C2.29163 8.45011 2.38329 8.54178 2.49996 8.54178H17.5C17.6166 8.54178 17.7083 8.45011 17.7083 8.33345V5.56677C17.7083 5.50844 17.6333 5.40012 17.575 5.37512L10.075 2.37509C10.0583 2.36676 10.0333 2.3668 9.99996 2.3668Z" fill="#6C63FF"/>
<path d="M18.3333 18.9583H1.66663C1.32496 18.9583 1.04163 18.675 1.04163 18.3333V15.8333C1.04163 15.0333 1.69996 14.375 2.49996 14.375H17.5C18.3 14.375 18.9583 15.0333 18.9583 15.8333V18.3333C18.9583 18.675 18.675 18.9583 18.3333 18.9583ZM2.29163 17.7083H17.7083V15.8333C17.7083 15.7167 17.6166 15.625 17.5 15.625H2.49996C2.38329 15.625 2.29163 15.7167 2.29163 15.8333V17.7083Z" fill="#6C63FF"/>
<path d="M3.33337 15.6253C2.99171 15.6253 2.70837 15.342 2.70837 15.0003V9.16699C2.70837 8.82533 2.99171 8.54199 3.33337 8.54199C3.67504 8.54199 3.95837 8.82533 3.95837 9.16699V15.0003C3.95837 15.342 3.67504 15.6253 3.33337 15.6253Z" fill="#6C63FF"/>
<path d="M6.66663 15.6253C6.32496 15.6253 6.04163 15.342 6.04163 15.0003V9.16699C6.04163 8.82533 6.32496 8.54199 6.66663 8.54199C7.00829 8.54199 7.29163 8.82533 7.29163 9.16699V15.0003C7.29163 15.342 7.00829 15.6253 6.66663 15.6253Z" fill="#6C63FF"/>
<path d="M10 15.6253C9.65833 15.6253 9.375 15.342 9.375 15.0003V9.16699C9.375 8.82533 9.65833 8.54199 10 8.54199C10.3417 8.54199 10.625 8.82533 10.625 9.16699V15.0003C10.625 15.342 10.3417 15.6253 10 15.6253Z" fill="#6C63FF"/>
<path d="M13.3334 15.6253C12.9917 15.6253 12.7084 15.342 12.7084 15.0003V9.16699C12.7084 8.82533 12.9917 8.54199 13.3334 8.54199C13.675 8.54199 13.9584 8.82533 13.9584 9.16699V15.0003C13.9584 15.342 13.675 15.6253 13.3334 15.6253Z" fill="#6C63FF"/>
<path d="M16.6666 15.6253C16.325 15.6253 16.0416 15.342 16.0416 15.0003V9.16699C16.0416 8.82533 16.325 8.54199 16.6666 8.54199C17.0083 8.54199 17.2916 8.82533 17.2916 9.16699V15.0003C17.2916 15.342 17.0083 15.6253 16.6666 15.6253Z" fill="#6C63FF"/>
<path d="M19.1667 18.958H0.833374C0.491707 18.958 0.208374 18.6747 0.208374 18.333C0.208374 17.9913 0.491707 17.708 0.833374 17.708H19.1667C19.5084 17.708 19.7917 17.9913 19.7917 18.333C19.7917 18.6747 19.5084 18.958 19.1667 18.958Z" fill="#6C63FF"/>
<path d="M10 7.70801C8.96667 7.70801 8.125 6.86634 8.125 5.83301C8.125 4.79967 8.96667 3.95801 10 3.95801C11.0333 3.95801 11.875 4.79967 11.875 5.83301C11.875 6.86634 11.0333 7.70801 10 7.70801ZM10 5.20801C9.65833 5.20801 9.375 5.49134 9.375 5.83301C9.375 6.17467 9.65833 6.45801 10 6.45801C10.3417 6.45801 10.625 6.17467 10.625 5.83301C10.625 5.49134 10.3417 5.20801 10 5.20801Z" fill="#6C63FF"/>
</svg>
