<svg width="167" height="110" viewBox="0 0 167 110" fill="none" xmlns="http://www.w3.org/2000/svg">
<mask id="mask0_45_541" style="mask-type:alpha" maskUnits="userSpaceOnUse" x="0" y="0" width="167" height="110">
<rect width="166.122" height="110" rx="8" fill="#E5E3FF"/>
</mask>
<g mask="url(#mask0_45_541)">
<path opacity="0.5" d="M186.681 -103.681C188.164 -105.91 190.664 -107.25 193.342 -107.25H230.07C236.456 -107.25 240.268 -100.136 236.731 -94.819L144.319 44.0977C142.836 46.3271 140.336 47.6667 137.658 47.6667H100.93C94.5443 47.6667 90.7325 40.5526 94.2695 35.2357L186.681 -103.681Z" fill="white"/>
<path d="M141.667 17.4166V20.3744C141.667 22.3055 140.5 23.5277 138.657 23.5277H134.667V14.9844C134.667 13.6277 135.728 12.5155 137.023 12.5277C138.295 12.5399 139.462 13.0777 140.302 13.9577C141.142 14.8499 141.667 16.0721 141.667 17.4166Z" fill="#6C63FF"/>
<path opacity="0.4" d="M118.333 18.6387V35.7498C118.333 36.7643 119.43 37.3387 120.2 36.7276L122.195 35.1631C122.662 34.7965 123.315 34.8454 123.735 35.2854L125.672 37.3265C126.127 37.8031 126.873 37.8031 127.328 37.3265L129.288 35.2731C129.697 34.8454 130.35 34.7965 130.805 35.1631L132.8 36.7276C133.57 37.3265 134.667 36.752 134.667 35.7498V14.972C134.667 13.6276 135.717 12.5276 137 12.5276H124.167H123C119.5 12.5276 118.333 14.7154 118.333 17.4165V18.6387Z" fill="#6C63FF"/>
<path d="M130 25.0676H126.5C126.022 25.0676 125.625 25.4832 125.625 25.9843C125.625 26.4854 126.022 26.901 126.5 26.901H130C130.478 26.901 130.875 26.4854 130.875 25.9843C130.875 25.4832 130.478 25.0676 130 25.0676Z" fill="#6C63FF"/>
<path d="M126.5 22.0123H130C130.478 22.0123 130.875 21.5967 130.875 21.0956C130.875 20.5945 130.478 20.179 130 20.179H126.5C126.022 20.179 125.625 20.5945 125.625 21.0956C125.625 21.5967 126.022 22.0123 126.5 22.0123Z" fill="#6C63FF"/>
<path d="M122.965 19.8733C122.312 19.8733 121.798 20.4233 121.798 21.0955C121.798 21.7677 122.323 22.3177 122.965 22.3177C123.607 22.3177 124.132 21.7677 124.132 21.0955C124.132 20.4233 123.607 19.8733 122.965 19.8733Z" fill="#6C63FF"/>
<path d="M122.965 24.7622C122.312 24.7622 121.798 25.3122 121.798 25.9844C121.798 26.6567 122.323 27.2067 122.965 27.2067C123.607 27.2067 124.132 26.6567 124.132 25.9844C124.132 25.3122 123.607 24.7622 122.965 24.7622Z" fill="#6C63FF"/>
</g>
</svg>
