<svg width="34" height="34" viewBox="0 0 34 34" fill="none" xmlns="http://www.w3.org/2000/svg">
<circle cx="17" cy="17" r="16.5" fill="white" stroke="#6C63FF"/>
<path d="M20.4808 16.6146C20.1762 16.6146 19.9354 16.3667 19.9354 16.0692C19.9354 15.8071 19.6733 15.2617 19.2342 14.7871C18.8021 14.3267 18.3275 14.0575 17.9308 14.0575C17.6262 14.0575 17.3854 13.8096 17.3854 13.5121C17.3854 13.2146 17.6333 12.9667 17.9308 12.9667C18.6392 12.9667 19.3829 13.3492 20.0346 14.0363C20.6437 14.6808 21.0333 15.4813 21.0333 16.0621C21.0333 16.3667 20.7854 16.6146 20.4808 16.6146Z" fill="#6C63FF"/>
<path d="M23.0379 16.6146C22.7333 16.6146 22.4925 16.3667 22.4925 16.0692C22.4925 13.5546 20.4454 11.5146 17.9379 11.5146C17.6333 11.5146 17.3925 11.2667 17.3925 10.9692C17.3925 10.6717 17.6333 10.4167 17.9308 10.4167C21.0475 10.4167 23.5833 12.9525 23.5833 16.0692C23.5833 16.3667 23.3354 16.6146 23.0379 16.6146Z" fill="#6C63FF"/>
<path opacity="0.4" d="M16.3512 19.0654L14.035 21.3817C13.78 21.155 13.5321 20.9212 13.2912 20.6804C12.5617 19.9437 11.9029 19.1717 11.315 18.3642C10.7342 17.5567 10.2667 16.7492 9.92666 15.9488C9.58666 15.1413 9.41666 14.3692 9.41666 13.6325C9.41666 13.1508 9.50166 12.6904 9.67166 12.2654C9.84166 11.8333 10.1108 11.4367 10.4862 11.0825C10.9396 10.6362 11.4354 10.4167 11.9596 10.4167C12.1579 10.4167 12.3562 10.4592 12.5333 10.5442C12.7175 10.6292 12.8804 10.7567 13.0079 10.9408L14.6512 13.2571C14.7787 13.4342 14.8708 13.5971 14.9346 13.7529C14.9983 13.9017 15.0337 14.0504 15.0337 14.185C15.0337 14.355 14.9842 14.525 14.885 14.6879C14.7929 14.8508 14.6583 15.0208 14.4883 15.1908L13.95 15.7504C13.8721 15.8283 13.8367 15.9204 13.8367 16.0338C13.8367 16.0904 13.8437 16.14 13.8579 16.1967C13.8792 16.2533 13.9004 16.2958 13.9146 16.3383C14.0421 16.5721 14.2617 16.8767 14.5733 17.245C14.8921 17.6133 15.2321 17.9887 15.6004 18.3642C15.8554 18.6121 16.1033 18.8529 16.3512 19.0654Z" fill="#6C63FF"/>
<path d="M23.5621 21.9837C23.5621 22.1821 23.5267 22.3875 23.4558 22.5858C23.4346 22.6425 23.4133 22.6992 23.385 22.7558C23.2646 23.0108 23.1088 23.2517 22.9033 23.4783C22.5563 23.8608 22.1738 24.1371 21.7417 24.3142C21.7346 24.3142 21.7275 24.3212 21.7204 24.3212C21.3025 24.4912 20.8492 24.5833 20.3604 24.5833C19.6379 24.5833 18.8658 24.4133 18.0513 24.0662C17.2367 23.7192 16.4221 23.2517 15.6146 22.6638C15.3383 22.4583 15.0621 22.2529 14.8 22.0333L17.1163 19.7171C17.3146 19.8658 17.4917 19.9792 17.6404 20.0571C17.6758 20.0712 17.7183 20.0925 17.7679 20.1137C17.8246 20.135 17.8813 20.1421 17.945 20.1421C18.0654 20.1421 18.1575 20.0996 18.2354 20.0217L18.7738 19.4904C18.9508 19.3133 19.1208 19.1787 19.2838 19.0937C19.4467 18.9946 19.6096 18.945 19.7867 18.945C19.9213 18.945 20.0629 18.9733 20.2188 19.0371C20.3746 19.1008 20.5375 19.1929 20.7146 19.3133L23.0592 20.9779C23.2433 21.1054 23.3708 21.2542 23.4488 21.4312C23.5196 21.6083 23.5621 21.7854 23.5621 21.9837Z" fill="#6C63FF"/>
</svg>
