<svg width="20" height="20" viewBox="0 0 20 20" fill="none" xmlns="http://www.w3.org/2000/svg">
<path d="M10 19.9998C15.5228 19.9998 20 15.5226 20 9.99976C20 4.47691 15.5228 -0.000244141 10 -0.000244141C4.47715 -0.000244141 0 4.47691 0 9.99976C0 15.5226 4.47715 19.9998 10 19.9998Z" fill="#F14336"/>
<path d="M11.06 9.99962L13.36 7.69962C13.65 7.40962 13.65 6.92962 13.36 6.63962C13.07 6.34962 12.59 6.34962 12.3 6.63962L9.99998 8.93962L7.69998 6.63962C7.40998 6.34962 6.92999 6.34962 6.63999 6.63962C6.34999 6.92962 6.34999 7.40962 6.63999 7.69962L8.93998 9.99962L6.63999 12.2996C6.34999 12.5896 6.34999 13.0696 6.63999 13.3596C6.78999 13.5096 6.97999 13.5796 7.16999 13.5796C7.35999 13.5796 7.54998 13.5096 7.69998 13.3596L9.99998 11.0596L12.3 13.3596C12.45 13.5096 12.64 13.5796 12.83 13.5796C13.02 13.5796 13.21 13.5096 13.36 13.3596C13.65 13.0696 13.65 12.5896 13.36 12.2996L11.06 9.99962Z" fill="white"/>
</svg>
