<svg width="24" height="24" viewBox="0 0 24 24" fill="none" xmlns="http://www.w3.org/2000/svg">
<circle cx="12" cy="12" r="12" fill="#6C63FF"/>
<path fill-rule="evenodd" clip-rule="evenodd" d="M15.7586 8.73983V8.73983C15.5099 8.73983 15.2846 8.5965 15.1786 8.3725C14.9873 7.96717 14.7439 7.44917 14.5999 7.16717C14.3873 6.74783 14.0426 6.50383 13.5653 6.5005C13.5573 6.49983 10.4426 6.49983 10.4346 6.5005C9.95725 6.50383 9.61325 6.74783 9.39992 7.16717C9.25659 7.44917 9.01325 7.96717 8.82192 8.3725C8.71592 8.5965 8.48992 8.73983 8.24192 8.73983V8.73983C6.91125 8.73983 5.83325 9.81783 5.83325 11.1478V15.1052C5.83325 16.4345 6.91125 17.5132 8.24192 17.5132H15.7586C17.0886 17.5132 18.1666 16.4345 18.1666 15.1052V11.1478C18.1666 9.81783 17.0886 8.73983 15.7586 8.73983Z" stroke="white" stroke-linecap="round" stroke-linejoin="round"/>
<path fill-rule="evenodd" clip-rule="evenodd" d="M9.88093 12.8899C9.88026 14.0586 10.8343 15.0146 12.0009 15.0139C13.1656 15.0126 14.1169 14.0606 14.1189 12.8946C14.1209 11.7239 13.1703 10.7699 12.0023 10.7686C10.8276 10.7672 9.87159 11.7372 9.88093 12.8899Z" stroke="white" stroke-linecap="round" stroke-linejoin="round"/>
<path d="M15.2684 11.3301C15.204 11.3234 15.1404 11.3066 15.0691 11.278C14.9899 11.2428 14.9213 11.198 14.8549 11.1306C14.7358 11.0038 14.6667 10.838 14.6667 10.667C14.6667 10.5761 14.6853 10.4861 14.7216 10.4045C14.7579 10.3219 14.801 10.2522 14.8789 10.1764C14.9381 10.1248 14.9988 10.0833 15.0817 10.0468C15.3276 9.94931 15.6202 10.0075 15.803 10.1903C15.8578 10.2443 15.9039 10.3094 15.9295 10.3643L15.9447 10.4033C15.9815 10.4861 16.0001 10.5761 16.0001 10.667C16.0001 10.8415 15.932 11.0029 15.8055 11.1372C15.6962 11.2472 15.5527 11.3149 15.3996 11.3301L15.3334 11.3333L15.2684 11.3301Z" fill="white"/>
</svg>
