<svg width="204" height="195" viewBox="0 0 204 195" fill="none" xmlns="http://www.w3.org/2000/svg">
<path d="M165.111 90.8155L158.626 107.324L183.065 116.942L189.55 100.434L165.111 90.8155Z" fill="#EBEBEB"/>
<path d="M189.554 100.665C189.554 100.665 189.462 100.711 189.231 100.803C189 100.896 188.677 100.988 188.308 101.127C187.477 101.404 186.323 101.82 184.939 102.281C182.031 103.252 178.108 104.591 173.723 106.07L173.631 106.116L173.585 106.023C173.539 105.977 173.492 105.885 173.446 105.839C171.139 101.773 169.015 98.1237 167.492 95.398C166.754 94.0583 166.154 92.9958 165.692 92.2104C165.508 91.8408 165.323 91.5636 165.231 91.3327C165.139 91.1479 165.092 91.0093 165.092 91.0093C165.092 91.0093 165.185 91.1017 165.277 91.2865C165.415 91.5175 165.554 91.7946 165.785 92.118C166.246 92.9034 166.846 93.9659 167.631 95.2595C169.2 97.9389 171.323 101.589 173.631 105.654C173.677 105.746 173.723 105.793 173.769 105.839L173.631 105.793C178.015 104.36 181.985 103.021 184.892 102.097C186.323 101.635 187.477 101.265 188.308 100.988C188.677 100.849 189 100.757 189.231 100.711C189.462 100.665 189.554 100.665 189.554 100.665Z" fill="#E0E0E0"/>
<path d="M158.631 107.548C158.585 107.502 161.308 105.931 164.723 104.129C168.139 102.282 170.908 100.849 170.908 100.896C170.954 100.942 168.231 102.513 164.815 104.314C161.446 106.162 158.677 107.594 158.631 107.548Z" fill="#E0E0E0"/>
<path d="M179.123 103.852C179.169 103.852 180.139 106.809 181.2 110.458C182.308 114.108 183.139 117.111 183.046 117.157C183 117.157 182.031 114.2 180.969 110.551C179.908 106.901 179.077 103.898 179.123 103.852Z" fill="#E0E0E0"/>
<path d="M84.2772 160.219L60.781 171.958L68.6961 187.83L92.1923 176.091L84.2772 160.219Z" fill="#EBEBEB"/>
<path d="M84.4615 160.398C84.4615 160.398 84.4154 160.491 84.3692 160.722C84.2769 160.953 84.1385 161.23 84 161.646C83.6769 162.431 83.1692 163.586 82.6154 164.926C81.4154 167.744 79.7539 171.578 77.9077 175.782L77.8615 175.875H77.7692C77.6769 175.875 77.6308 175.828 77.5385 175.828C72.9692 174.858 68.8154 173.934 65.8154 173.288C64.3385 172.964 63.1385 172.687 62.2615 172.502C61.8462 172.41 61.5231 172.317 61.2923 172.271C61.0615 172.225 60.9692 172.179 60.9692 172.179C60.9692 172.179 61.1077 172.179 61.2923 172.225C61.5231 172.271 61.8462 172.317 62.2615 172.41C63.1385 172.595 64.3385 172.826 65.8154 173.149C68.8615 173.796 72.9692 174.673 77.5385 175.644C77.6308 175.644 77.6769 175.69 77.7692 175.69L77.6308 175.736C79.4769 171.486 81.1846 167.698 82.3846 164.88C82.9846 163.494 83.4923 162.385 83.8615 161.6C84.0462 161.23 84.1846 160.953 84.2769 160.722C84.4154 160.491 84.4615 160.398 84.4615 160.398Z" fill="#E0E0E0"/>
<path d="M68.8616 187.978C68.8154 187.978 69.4616 184.883 70.3847 181.141C71.3077 177.399 72.0923 174.35 72.1385 174.35C72.1847 174.35 71.5385 177.445 70.6154 181.187C69.7385 184.976 68.9077 188.025 68.8616 187.978Z" fill="#E0E0E0"/>
<path d="M79.8462 170.284C79.8923 170.238 82.7077 171.532 86.1693 173.149C89.6308 174.812 92.4 176.198 92.3539 176.244C92.3077 176.29 89.4923 174.997 86.0308 173.38C82.6154 171.717 79.8462 170.331 79.8462 170.284Z" fill="#E0E0E0"/>
<path d="M45.6923 100.711C54.6461 94.7515 56.8154 83.433 56.6307 73.2696C56.5846 71.5603 56.8154 69.7586 56.0307 68.2802C55.2461 66.7557 53.3538 65.7394 51.7846 66.4323C50.4923 66.9867 49.9384 68.465 49.2 69.6662C48.2307 71.2831 46.8 72.5766 45.0923 73.4082C43.9846 73.9625 42.6461 74.2859 41.5384 73.6854C40.0615 72.8538 39.9231 70.8211 39.9692 69.158C40.0154 66.0166 40.1077 62.8751 40.1538 59.7337C40.2 58.0244 40.2461 56.3151 39.7384 54.6981C39.2307 53.0812 38.0769 51.5567 36.4615 51.0947C34.8461 50.6328 32.8154 51.5105 32.4461 53.1736C32.3077 53.8666 32.4461 54.5596 32.3538 55.2987C32.3077 55.9917 31.9384 56.777 31.2923 56.9618C30.6 57.1466 29.9077 56.6384 29.4461 56.1765C27.6923 54.421 26.5384 52.2497 25.4769 50.0322C24.3692 47.8147 23.3538 45.5972 21.7846 43.7031C20.2154 41.809 18 40.3307 15.5538 40.1459C13.1077 39.9611 10.4769 41.4394 9.83075 43.7955C9.18459 46.1516 10.5231 48.6001 12.0461 50.5404C14.2615 53.4508 16.9384 55.9917 19.8923 58.163C20.4461 58.5325 21 58.9483 21.1846 59.5951C21.5538 60.7038 20.4461 61.8126 19.2923 62.1822C18 62.5979 16.6154 62.4131 15.2769 62.5517C13.9384 62.6903 12.5077 63.2447 11.9538 64.492C11.2154 66.2013 12.6461 68.0492 14.0769 69.2504C16.9384 71.6527 20.1692 73.593 23.6769 74.9327C24.9231 75.3947 26.2615 75.8104 27.2307 76.7344C28.2461 77.6121 28.8 79.1367 28.2 80.3378C27.5538 81.5389 25.9846 81.8623 24.6923 81.6313C23.4 81.3541 22.2 80.6612 20.9538 80.153C18.6 79.2291 15.6 79.3677 14.0307 81.3542C13.0154 82.6477 12.9231 84.4956 13.3846 86.0663C13.8461 87.637 14.8615 89.0229 15.9231 90.2703C19.6154 94.7052 24.3692 98.2625 29.8154 100.249C35.1692 102.004 40.2461 102.559 45.6923 100.711Z" fill="#EBEBEB"/>
<path d="M43.1076 94.2895C41.6769 89.1154 39.5999 83.6178 37.2922 77.8894C36.6922 76.4572 36.1384 75.0713 35.5384 73.6854C34.9384 72.2994 34.3845 70.9135 33.7384 69.62C32.4461 66.9867 31.0153 64.5844 29.5845 62.3208C28.1538 60.0571 26.723 57.9782 25.3384 56.0379C23.9538 54.0976 22.6615 52.2959 21.4153 50.7252C18.923 47.5375 16.5692 45.2277 14.9076 43.7031C14.0769 42.9178 13.4307 42.3634 12.9692 41.9938C12.7384 41.809 12.5538 41.6704 12.4615 41.578C12.5999 41.6704 12.7384 41.8552 12.9692 42.04C13.4307 42.4558 14.0769 43.0102 14.8615 43.7955C16.523 45.3663 18.7845 47.6761 21.2769 50.8638C22.523 52.4345 23.8153 54.2362 25.1999 56.1765C26.5384 58.1168 27.9692 60.2419 29.3999 62.5056C30.8307 64.7692 32.2615 67.1715 33.5076 69.8048C34.1538 71.0983 34.7076 72.4842 35.3076 73.8702C35.8615 75.2561 36.4615 76.642 37.0615 78.0741C39.4153 83.7564 41.4461 89.3001 42.923 94.4281" fill="#E0E0E0"/>
<path d="M33.6461 69.5739C33.6461 69.5739 33.7384 69.3429 33.8307 68.8347C33.923 68.3727 34.0615 67.6798 34.1538 66.8482C34.4307 65.1851 34.7077 62.829 35.0307 60.2882C35.3538 57.7011 35.6769 55.3912 35.9538 53.7281C36.0923 52.8965 36.2307 52.2036 36.323 51.7416C36.4153 51.2796 36.4615 51.0024 36.4615 51.0024C36.4615 51.0024 36.3692 51.2334 36.2307 51.6954C36.0923 52.1574 35.9538 52.8041 35.7692 53.6819C35.4461 55.345 35.0769 57.6549 34.7538 60.242C34.4307 62.7828 34.1538 65.0927 33.9692 66.8482C33.8769 67.6336 33.7846 68.3265 33.6923 68.8347C33.6461 69.3429 33.6461 69.5739 33.6461 69.5739Z" fill="#E0E0E0"/>
<path d="M11.723 65.1851C11.723 65.1851 11.8153 65.1851 11.9538 65.2313C12.1384 65.2313 12.3692 65.2775 12.5999 65.2775C13.1538 65.3236 13.9846 65.416 14.9999 65.5546C17.0307 65.7856 19.7999 66.2476 22.7999 66.8482C25.8461 67.4487 28.5692 68.1417 30.5076 68.6961C31.4769 68.9733 32.2615 69.2042 32.8153 69.3428C33.0461 69.4352 33.2769 69.4814 33.4615 69.5276C33.5999 69.5738 33.6923 69.5738 33.6923 69.5738C33.6923 69.5738 33.6461 69.5276 33.4615 69.4814C33.2769 69.4352 33.0923 69.3428 32.8615 69.2504C32.3076 69.0656 31.5692 68.7885 30.5538 68.5113C28.6153 67.9107 25.8923 67.2178 22.8461 66.571C19.7999 65.9704 17.0307 65.5546 14.9999 65.3698C13.9846 65.2775 13.1538 65.2313 12.5999 65.1851C12.323 65.1851 12.1384 65.1851 11.9538 65.1851C11.8153 65.1851 11.723 65.1851 11.723 65.1851Z" fill="#E0E0E0"/>
<path d="M42.8769 93.8739C42.8769 93.8739 42.923 93.7815 43.0153 93.5967C43.1076 93.4119 43.2461 93.1347 43.3846 92.8114C43.7076 92.1184 44.1692 91.1482 44.723 89.9009C45.8307 87.4062 47.2153 83.9414 48.7384 80.107C50.2615 76.2726 51.5999 72.8078 52.6615 70.3131C53.1692 69.112 53.6307 68.0957 53.9076 67.3565C54.0461 67.0331 54.1384 66.7559 54.2307 66.5711C54.323 66.3863 54.323 66.2939 54.323 66.2939C54.323 66.2939 54.2769 66.3863 54.1846 66.5711C54.0923 66.7559 53.9538 67.0331 53.8153 67.3565C53.4923 68.0495 53.0307 69.0196 52.4769 70.2669C51.3692 72.7616 49.9846 76.2264 48.4615 80.0608C46.9384 83.8952 45.5999 87.36 44.5384 89.8547C44.0307 91.0559 43.5692 92.0722 43.2923 92.8114C43.1538 93.1347 43.0615 93.4119 42.9692 93.5967C42.8769 93.7815 42.8307 93.8739 42.8769 93.8739Z" fill="#E0E0E0"/>
<path d="M13.7999 84.126C13.7999 84.126 13.8922 84.1722 14.0769 84.2646C14.3076 84.357 14.5845 84.4494 14.9076 84.5418C15.6922 84.8189 16.7538 85.1423 18.0461 85.6043C20.6768 86.4821 24.2768 87.7294 28.2922 89.1615C32.3076 90.5474 35.9076 91.7948 38.5845 92.6263C39.923 93.0421 40.9845 93.3655 41.723 93.5965C42.0922 93.6889 42.3692 93.7813 42.5999 93.8275C42.7845 93.8737 42.923 93.9199 42.923 93.8737C42.923 93.8737 42.8307 93.8275 42.6461 93.7351C42.4153 93.6427 42.1384 93.5503 41.8153 93.4579C41.0307 93.1807 39.9692 92.8573 38.6769 92.4415C36.0461 91.5638 32.4461 90.3164 28.4307 88.8843C24.4153 87.4984 20.8153 86.2511 18.1384 85.4195C16.7999 85.0037 15.7384 84.6803 14.9999 84.4494C14.6307 84.357 14.3538 84.2646 14.123 84.2184C13.8922 84.1722 13.7999 84.126 13.7999 84.126Z" fill="#E0E0E0"/>
<path d="M46.1077 19.403H20.077C18.277 19.403 16.8462 17.9247 16.8462 16.1692V3.23383C16.8462 1.43212 18.3231 0 20.077 0H46.1077C47.9077 0 49.3385 1.47832 49.3385 3.23383V16.123C49.3847 17.9247 47.9077 19.403 46.1077 19.403Z" fill="#E0E0E0"/>
<path d="M36.6001 18.7563L44.3078 25.5936L44.9539 18.8949" fill="#E0E0E0"/>
<path d="M28.8461 9.97857C28.8461 11.0411 28.0154 11.8727 26.9538 11.8727C25.8923 11.8727 25.0615 11.0411 25.0615 9.97857C25.0615 8.91603 25.8923 8.08447 26.9538 8.08447C28.0154 8.08447 28.8461 8.91603 28.8461 9.97857Z" fill="white"/>
<path d="M35.4001 9.97857C35.4001 11.0411 34.5693 11.8727 33.5078 11.8727C32.4462 11.8727 31.6155 11.0411 31.6155 9.97857C31.6155 8.91603 32.4462 8.08447 33.5078 8.08447C34.5693 8.08447 35.4001 8.91603 35.4001 9.97857Z" fill="white"/>
<path d="M41.9078 9.97857C41.9078 11.0411 41.077 11.8727 40.0155 11.8727C38.9539 11.8727 38.1232 11.0411 38.1232 9.97857C38.1232 8.91603 38.9539 8.08447 40.0155 8.08447C41.077 8.08447 41.9078 8.91603 41.9078 9.97857Z" fill="white"/>
<path d="M140.365 20.7667L133.88 37.2754L158.319 46.8936L164.803 30.3849L140.365 20.7667Z" fill="#EBEBEB"/>
<path d="M164.815 30.6289C164.815 30.6289 164.723 30.6751 164.492 30.7675C164.262 30.8599 163.938 30.9523 163.569 31.0909C162.738 31.3681 161.585 31.7839 160.2 32.2458C157.292 33.216 153.369 34.5557 148.985 36.034L148.892 36.0802L148.846 35.9878C148.8 35.9417 148.754 35.8493 148.708 35.8031C146.4 31.7377 144.277 28.0881 142.754 25.3624C142.015 24.0227 141.415 22.9601 140.954 22.1748C140.769 21.8052 140.585 21.528 140.492 21.297C140.4 21.1122 140.354 20.9736 140.354 20.9736C140.354 20.9736 140.446 21.066 140.538 21.2508C140.677 21.4818 140.815 21.759 141.046 22.0824C141.508 22.8677 142.108 23.9303 142.892 25.2238C144.462 27.9033 146.585 31.5529 148.892 35.6183C148.938 35.7107 148.985 35.7569 149.031 35.8031L148.892 35.7569C153.277 34.3247 157.246 32.985 160.154 32.0611C161.585 31.5991 162.738 31.2295 163.569 30.9523C163.938 30.8137 164.262 30.7213 164.492 30.6751C164.677 30.6289 164.815 30.6289 164.815 30.6289Z" fill="#E0E0E0"/>
<path d="M133.892 37.5124C133.846 37.4662 136.569 35.8955 139.985 34.0938C143.4 32.2459 146.169 30.8138 146.169 30.86C146.215 30.9062 143.492 32.4769 140.077 34.2786C136.662 36.1265 133.892 37.5586 133.892 37.5124Z" fill="#E0E0E0"/>
<path d="M154.385 33.8164C154.431 33.8164 155.4 36.7731 156.462 40.4227C157.569 44.0723 158.4 47.0751 158.308 47.1213C158.262 47.1213 157.292 44.1647 156.231 40.5151C155.169 36.8654 154.338 33.8626 154.385 33.8164Z" fill="#E0E0E0"/>
<path d="M104.308 99.0015C107.596 99.0015 110.261 96.3333 110.261 93.042C110.261 89.7507 107.596 87.0825 104.308 87.0825C101.019 87.0825 98.3538 89.7507 98.3538 93.042C98.3538 96.3333 101.019 99.0015 104.308 99.0015Z" fill="#E8505B"/>
<path d="M124.8 99.0015C128.088 99.0015 130.754 96.3333 130.754 93.042C130.754 89.7507 128.088 87.0825 124.8 87.0825C121.512 87.0825 118.846 89.7507 118.846 93.042C118.846 96.3333 121.512 99.0015 124.8 99.0015Z" fill="#6C63FF"/>
<path d="M164.446 62.2284C164.446 62.2284 164.585 62.2284 164.815 62.2284C165.046 62.2284 165.415 62.2284 165.831 62.3208C166.292 62.4132 166.846 62.598 167.446 62.9213C168.046 63.2447 168.692 63.7529 169.246 64.4459C169.8 65.1388 170.261 66.109 170.446 67.2177C170.492 67.4949 170.492 67.7721 170.538 68.0493C170.538 68.3265 170.538 68.6037 170.538 68.927C170.538 69.5276 170.538 70.1282 170.538 70.7749C170.538 73.3158 170.585 76.2725 170.585 79.5987C170.631 86.2049 170.677 94.2433 170.723 103.483C170.723 105.793 170.723 108.195 170.769 110.643C170.769 111.891 170.769 113.138 170.769 114.385C170.769 115.032 170.769 115.679 170.769 116.28C170.769 116.603 170.769 116.926 170.769 117.25C170.769 117.619 170.723 117.943 170.677 118.312C170.446 119.698 169.754 121.038 168.646 121.962C167.584 122.932 166.154 123.533 164.677 123.579C161.954 123.579 159.138 123.579 156.277 123.625L156.785 123.163C156.231 129.076 155.677 135.313 155.077 141.827L154.984 142.843L154.2 142.196C147.092 136.329 139.523 130.093 131.631 123.579L132 123.717C117.508 123.717 101.908 123.717 85.7537 123.717C82.7999 123.717 79.8922 123.717 76.9845 123.717C76.246 123.717 75.5537 123.717 74.8153 123.717C74.446 123.717 74.123 123.717 73.7076 123.717C73.2922 123.717 72.923 123.671 72.5076 123.579C70.9384 123.255 69.5537 122.331 68.6307 121.038C68.1691 120.391 67.846 119.652 67.6614 118.913C67.4768 118.174 67.4307 117.342 67.4307 116.649C67.4307 115.217 67.4307 113.831 67.4307 112.399C67.4307 109.581 67.4307 106.809 67.4307 104.037C67.4307 92.9498 67.4768 82.2781 67.4768 72.1147C67.4768 70.8211 67.4768 69.5738 67.4768 68.3265C67.4768 67.6797 67.523 66.9867 67.7537 66.34C67.9384 65.6932 68.2614 65.0464 68.6307 64.4921C69.4153 63.3833 70.523 62.5056 71.7691 62.0898C72.4153 61.8588 73.0614 61.7202 73.7076 61.7202C74.3537 61.7202 74.9076 61.7202 75.5537 61.7202C80.3537 61.7202 85.0614 61.7202 89.5845 61.7664C98.6307 61.8126 107.031 61.8126 114.738 61.8588C130.108 61.9512 142.569 61.9974 151.154 62.0436C155.446 62.0898 158.769 62.136 161.077 62.136C162.185 62.1822 163.061 62.1822 163.661 62.1822C164.123 62.1822 164.446 62.1822 164.446 62.2284C164.446 62.2284 164.169 62.2746 163.569 62.2746C162.969 62.2746 162.138 62.3208 160.984 62.3208C158.723 62.367 155.4 62.367 151.061 62.4132C142.477 62.4594 130.015 62.5056 114.646 62.598C106.938 62.598 98.5383 62.6442 89.4922 62.6904C84.9691 62.6904 80.3076 62.6904 75.4614 62.7366C74.8614 62.7366 74.2614 62.7366 73.6614 62.7366C73.1076 62.7366 72.5537 62.8751 72.046 63.0137C70.9845 63.3833 70.0614 64.1225 69.4153 65.0002C68.7691 65.9242 68.446 67.0329 68.4922 68.2341C68.4922 69.4814 68.4922 70.7749 68.4922 72.0223C68.4922 82.1857 68.4922 92.9036 68.5384 103.945C68.5384 106.717 68.5384 109.489 68.5384 112.307C68.5384 113.692 68.5384 115.125 68.5384 116.557C68.5384 117.296 68.5384 117.896 68.723 118.543C68.8614 119.144 69.1384 119.744 69.5076 120.253C70.246 121.315 71.3999 122.054 72.646 122.331C72.9691 122.378 73.2922 122.424 73.6153 122.424C73.9384 122.424 74.3076 122.424 74.6768 122.424C75.4153 122.424 76.1076 122.424 76.846 122.424C79.7537 122.424 82.6614 122.424 85.6153 122.424C101.769 122.424 117.369 122.424 131.861 122.424H132.092L132.231 122.562C140.123 129.076 147.692 135.359 154.754 141.226L153.877 141.596C154.477 135.128 155.077 128.845 155.677 122.932L155.723 122.47H156.185C159.046 122.47 161.815 122.47 164.585 122.47C165.831 122.47 167.077 121.962 167.954 121.13C168.877 120.345 169.477 119.19 169.708 118.035C169.754 117.758 169.754 117.434 169.8 117.157C169.8 116.834 169.8 116.511 169.8 116.187C169.8 115.54 169.8 114.894 169.8 114.293C169.8 113.046 169.8 111.798 169.8 110.551C169.8 108.103 169.8 105.7 169.846 103.39C169.892 94.1509 169.938 86.1125 169.984 79.5063C170.031 76.1801 170.031 73.2696 170.031 70.6825C170.031 70.0358 170.031 69.4352 170.031 68.8346C170.031 68.5575 170.031 68.2341 170.031 67.9569C170.031 67.6797 170.031 67.4025 169.984 67.1715C169.846 66.109 169.431 65.2312 168.923 64.5383C168.415 63.8453 167.815 63.3371 167.261 63.0137C166.708 62.6904 166.154 62.4594 165.738 62.367C164.908 62.2284 164.446 62.2746 164.446 62.2284Z" fill="#6C63FF"/>
<path d="M126.231 152.776H36.3692C32.9538 152.776 30.1846 150.004 30.1846 146.585V98.0777C30.1846 94.6591 32.9538 91.8872 36.3692 91.8872H126.277C129.692 91.8872 132.461 94.6591 132.461 98.0777V146.631C132.415 150.004 129.646 152.776 126.231 152.776Z" fill="#6C63FF"/>
<path d="M92.3538 150.835L116.538 172.317L118.523 151.205" fill="#6C63FF"/>
<path d="M62.0307 129.168C65.319 129.168 67.9846 126.5 67.9846 123.209C67.9846 119.918 65.319 117.25 62.0307 117.25C58.7425 117.25 56.0769 119.918 56.0769 123.209C56.0769 126.5 58.7425 129.168 62.0307 129.168Z" fill="white"/>
<path d="M82.5231 129.168C85.8113 129.168 88.4769 126.5 88.4769 123.209C88.4769 119.918 85.8113 117.25 82.5231 117.25C79.2348 117.25 76.5692 119.918 76.5692 123.209C76.5692 126.5 79.2348 129.168 82.5231 129.168Z" fill="white"/>
<path d="M103.015 129.168C106.304 129.168 108.969 126.5 108.969 123.209C108.969 119.918 106.304 117.25 103.015 117.25C99.7271 117.25 97.0615 119.918 97.0615 123.209C97.0615 126.5 99.7271 129.168 103.015 129.168Z" fill="white"/>
<g opacity="0.3">
<path d="M128.631 92.118L119.031 91.8408H44.723C50.9076 97.9851 59.723 101.265 68.3999 102.05C77.0769 102.79 85.7999 101.496 94.3846 100.018C102.969 98.5395 111.6 96.8764 120.277 96.9226C122.123 96.9226 124.015 97.0149 125.723 96.322C127.385 95.6752 128.861 93.9659 128.631 92.118Z" fill="black"/>
</g>
<path d="M145.292 99.0015C148.58 99.0015 151.246 96.3333 151.246 93.042C151.246 89.7507 148.58 87.0825 145.292 87.0825C142.004 87.0825 139.338 89.7507 139.338 93.042C139.338 96.3333 142.004 99.0015 145.292 99.0015Z" fill="#6C63FF"/>
<path d="M93.9692 5.40524C89.1692 5.35904 84.6 8.82386 83.2615 13.3974C82.5692 15.7535 82.7077 18.2944 82.2923 20.6966C81.8769 23.1451 80.6307 25.686 78.323 26.5637C76.8 27.1181 75.0923 26.8871 73.6153 27.4877C72.2307 28.0421 71.1692 29.3356 70.8923 30.8139C70.6153 32.2922 71.123 33.863 72.1846 34.9255C70.3846 36.4962 69.8769 39.3605 71.0769 41.4394C72.2307 43.5182 74.9538 44.5808 77.2153 43.8416C76.3384 45.1814 76.6615 47.0755 77.6307 48.3228C78.6461 49.5701 80.2153 50.2631 81.8307 50.4479C83.4461 50.6327 85.0153 50.3555 86.5846 50.0321C90.0923 49.2467 93.6 47.9994 96.2307 45.5971C99.1384 42.9177 100.662 39.1295 101.815 35.3413C104.031 28.1345 105.185 20.4195 103.385 13.1202" fill="#263238"/>
<path d="M77.9076 45.4581L74.0307 53.9585L65.4922 35.1561C65.0768 33.6315 64.6614 31.9222 64.5691 31.5989C64.4307 31.0907 64.3845 30.5363 64.4307 29.9819C64.4768 29.3352 64.5691 28.4574 64.7999 27.9954C65.0307 27.4411 64.4768 26.8405 64.0153 27.1177C63.5076 27.3949 62.7691 28.9194 62.8153 30.9521C62.8153 32.9386 55.9845 28.2264 54.8768 29.3352L55.7076 35.9414C56.4461 36.6344 58.5691 38.5285 59.7691 39.591L67.7999 59.5946C68.5384 61.6273 70.2461 63.2442 72.323 63.8448C75.3691 64.7225 78.6461 63.3828 80.1691 60.6109L85.3384 51.4638L77.9076 45.4581Z" fill="#FFBE9D"/>
<path d="M59.8615 23.2835C59.9999 23.2373 60.1384 23.3297 60.1846 23.4683L64.6153 36.5884C64.7076 36.8194 64.6153 37.0966 64.3846 37.2352L59.1692 40.1918C58.9384 40.3304 58.7076 40.1918 58.6153 39.9608L53.6307 26.3325C53.5384 26.0554 53.6307 25.7782 53.8615 25.6858L59.8615 23.2835Z" fill="#263238"/>
<path d="M59.9999 24.2534L64.0614 35.9414L58.8922 38.7133L54.4153 26.4709L59.9999 24.2534Z" fill="#F5F5F5"/>
<path d="M55.3846 27.2566C55.523 27.6724 55.8 28.3192 55.9846 28.6888C56.0769 28.8735 56.3077 28.9659 56.4923 28.9197L59.2615 27.7648L60.2307 27.9034L59.9538 27.3952L60.2769 27.2566C60.4615 27.1642 60.5538 26.9332 60.5077 26.7485L59.9538 25.4549C59.8615 25.2701 59.6307 25.1777 59.4461 25.2701L55.6615 26.7947C55.4307 26.8409 55.3384 27.0718 55.3846 27.2566Z" fill="#E0E0E0"/>
<path d="M57.7383 34.1863C57.8768 34.6021 58.1537 35.2489 58.3383 35.6184C58.4307 35.8032 58.6614 35.8956 58.846 35.8494L61.6153 34.6945L62.5845 34.8331L62.3076 34.3249L62.6307 34.1863C62.8153 34.0939 62.9076 33.8629 62.8614 33.6781L62.3076 32.3846C62.2153 32.1998 61.9845 32.1074 61.7999 32.1998L58.0153 33.7243C57.7845 33.7705 57.6922 34.0015 57.7383 34.1863Z" fill="#E0E0E0"/>
<path d="M60.9692 28.9198C61.1538 29.2894 61.4307 29.9362 61.6153 30.352C61.7076 30.5367 61.6153 30.7677 61.4307 30.8601L58.6615 32.0151L58.1076 32.8004L57.923 32.2461L57.5999 32.3847C57.4153 32.477 57.1846 32.3847 57.0923 32.1999L56.5384 30.8601C56.4461 30.6753 56.5384 30.4444 56.723 30.352L60.4615 28.735C60.6461 28.6426 60.8769 28.6888 60.9692 28.9198Z" fill="#E0E0E0"/>
<path d="M54.7845 29.6587C55.6615 29.7973 56.7692 29.8897 57.6461 30.0283C57.8769 30.0745 58.1538 30.1207 58.3845 30.2593C58.5692 30.3979 58.7076 30.7212 58.5692 30.9522C58.4307 31.2294 58.0615 31.2294 57.7845 31.2294C57.1384 31.2294 56.3999 31.368 55.7538 31.3218C56.5845 31.4142 57.3692 31.4604 58.2922 31.599C58.6615 31.6452 59.0769 31.9686 59.0769 32.3843C59.0769 32.7077 58.7538 32.9849 58.4307 33.0311C58.1076 33.0773 57.4153 33.0311 57.4153 33.0311C57.4153 33.0311 56.0769 33.0311 55.9845 33.2159C56.8153 33.2159 57.923 33.4007 58.7999 33.4469C59.0307 33.4469 59.123 33.7703 59.1692 34.0013C59.2153 34.2323 59.123 34.5094 58.9384 34.6018C58.8461 34.648 58.7076 34.648 58.6153 34.648C57.5076 34.6018 56.9538 34.6942 55.8461 34.648" fill="#FFBE9D"/>
<path d="M75.0461 60.0567C74.9538 60.0567 75.2769 58.6246 74.9538 56.8691C74.6307 55.1597 73.7999 53.9124 73.8922 53.8662C73.8922 53.8662 74.1692 54.1434 74.4461 54.6516C74.723 55.1597 75.0461 55.9451 75.2307 56.8229C75.4153 57.7006 75.3692 58.5322 75.323 59.1327C75.1845 59.6871 75.0922 60.0567 75.0461 60.0567Z" fill="#EB996E"/>
<path d="M59.0307 33.5856C59.0307 33.6318 58.1538 33.5856 57.1384 33.4932C56.6307 33.447 56.123 33.3546 55.7999 33.3546C55.4769 33.3546 55.3384 33.5394 55.2922 33.4932C55.2922 33.4932 55.2922 33.447 55.3845 33.3546C55.4769 33.2622 55.6153 33.216 55.7999 33.1698C56.1692 33.1236 56.6307 33.216 57.1845 33.2622C58.1999 33.4008 59.0307 33.5394 59.0307 33.5856Z" fill="#EB996E"/>
<path d="M58.7076 31.6917C58.7076 31.7379 57.8768 31.6917 56.8153 31.5993C56.3076 31.5531 55.8461 31.4607 55.523 31.4607C55.1999 31.4607 55.0614 31.6455 55.0153 31.5993C54.9691 31.5993 55.1076 31.3221 55.4768 31.2759C55.6614 31.2297 55.8922 31.2759 56.0768 31.2759C56.3076 31.3221 56.5384 31.3221 56.8153 31.3683C57.923 31.4607 58.7537 31.5993 58.7076 31.6917Z" fill="#EB996E"/>
<path d="M85.0615 71.2829C85.0615 71.2829 56.9538 69.1578 48.8307 75.5331C40.7077 81.9083 44.5846 92.1642 44.5846 92.1642H90.5077L92.2615 70.9595L85.0615 71.2829Z" fill="#263238"/>
<path d="M90.3692 85.8812C90.3692 85.8812 90.2307 85.8812 89.9538 85.835C89.6768 85.7888 89.3076 85.7426 88.7999 85.6964C87.7845 85.5578 86.3076 85.3731 84.5076 85.0497C80.9076 84.4491 75.923 83.3866 70.5692 81.8158C67.8922 81.0305 65.3538 80.1989 62.9999 79.6446C60.6461 79.0902 58.523 78.7206 56.6768 78.6282C54.8768 78.5358 53.3999 78.6744 52.3845 78.8592C51.8768 78.9054 51.5076 79.044 51.2307 79.0902C50.9538 79.1364 50.8153 79.1826 50.8153 79.1826C50.8153 79.1826 50.9538 79.1364 51.1845 79.044C51.4615 78.9978 51.8307 78.8592 52.3384 78.7668C53.3538 78.5358 54.8307 78.3972 56.6768 78.4434C58.523 78.4896 60.6922 78.8592 63.0461 79.4136C65.3999 79.9679 67.9384 80.7995 70.6153 81.5849C75.9692 83.1556 80.9076 84.2181 84.5076 84.8649C86.3076 85.1883 87.7845 85.4193 88.7538 85.604C89.2615 85.6964 89.6307 85.7426 89.9076 85.7888C90.2307 85.835 90.3692 85.8812 90.3692 85.8812Z" fill="#455A64"/>
<path d="M63.8308 79.5525C63.7846 79.5987 62.8154 78.5823 61.2923 77.797C59.7693 77.0116 58.3846 76.7806 58.3846 76.7344C58.3846 76.6882 58.7539 76.7344 59.3077 76.8268C59.8616 76.9192 60.6 77.1964 61.3846 77.566C62.1693 77.9818 62.7693 78.4437 63.1846 78.8595C63.6462 79.2291 63.877 79.5063 63.8308 79.5525Z" fill="#455A64"/>
<path d="M105.415 68.6035C105.415 68.6035 79.7077 69.2965 71.5846 75.6717C63.4616 82.047 67.3385 92.3029 67.3385 92.3029L115.523 93.042V86.8054L109.292 86.1124L109.246 85.8352C111.692 83.1558 109.846 73.9162 105.785 69.0193L105.415 68.6035Z" fill="#263238"/>
<path d="M112.615 86.5282C112.615 86.5282 112.477 86.5282 112.2 86.482C111.923 86.4358 111.554 86.3896 111.046 86.3434C110.031 86.2048 108.554 86.02 106.754 85.6967C103.154 85.0961 98.1692 84.0335 92.8154 82.4628C90.1384 81.6775 87.6 80.8459 85.2461 80.2915C82.8923 79.7372 80.7692 79.3676 78.9231 79.2752C77.1231 79.1828 75.6461 79.3214 74.6308 79.5062C74.1231 79.5524 73.7538 79.691 73.4769 79.7372C73.2 79.7834 73.0615 79.8296 73.0615 79.8296C73.0615 79.8296 73.2 79.7834 73.4308 79.691C73.7077 79.6448 74.0769 79.5062 74.5846 79.4138C75.6 79.1828 77.0769 79.0442 78.9231 79.0904C80.7692 79.1366 82.9384 79.5062 85.2923 80.0605C87.6461 80.6149 90.1846 81.4465 92.8615 82.2318C98.2154 83.8025 103.154 84.8651 106.754 85.5119C108.554 85.8352 110.031 86.0662 111 86.251C111.508 86.3434 111.877 86.3896 112.154 86.4358C112.477 86.5282 112.615 86.5282 112.615 86.5282Z" fill="#455A64"/>
<path d="M86.1232 80.199C86.077 80.2452 85.1078 79.2288 83.5847 78.4435C82.0616 77.6581 80.677 77.4271 80.677 77.3809C80.677 77.3347 81.0462 77.3809 81.6001 77.4733C82.1539 77.5657 82.8924 77.8429 83.677 78.2125C84.4616 78.6283 85.0616 79.0902 85.477 79.506C85.8924 79.9218 86.1232 80.199 86.1232 80.199Z" fill="#455A64"/>
<path d="M92.123 69.6658C92.123 69.6658 91.9846 69.712 91.7076 69.712C91.4307 69.7582 91.0615 69.8044 90.5538 69.8506C89.5846 69.9892 88.1538 70.2202 86.3999 70.5898C84.6461 70.9594 82.5692 71.3751 80.2615 71.9295C77.9538 72.4839 75.5076 73.3616 73.1538 74.7476C71.9999 75.4405 70.9384 76.2721 70.0615 77.196C69.1846 78.12 68.4922 79.1363 67.9384 80.1989C66.8307 82.2778 66.4615 84.4491 66.4153 86.2046C66.4153 88.0063 66.7384 89.4384 67.0153 90.3623C67.1538 90.8243 67.2923 91.1939 67.3846 91.4711C67.4769 91.7021 67.523 91.8407 67.523 91.8407C67.523 91.8407 67.4307 91.7021 67.3384 91.4711C67.2461 91.2401 67.0615 90.8705 66.923 90.4085C66.5999 89.4384 66.2307 88.0063 66.2307 86.2046C66.2307 84.4029 66.5999 82.2316 67.7076 80.1065C68.2615 79.0439 68.9538 77.9814 69.8769 77.0574C70.7538 76.0873 71.8615 75.2557 73.0153 74.5628C75.3692 73.1306 77.8615 72.2529 80.1692 71.6985C82.4769 71.1441 84.5538 70.7284 86.3538 70.405C88.1076 70.0816 89.5384 69.8506 90.5538 69.7582C91.0615 69.712 91.4307 69.6658 91.7076 69.6196C91.9846 69.6658 92.123 69.6658 92.123 69.6658Z" fill="#455A64"/>
<path d="M115.523 87.1288L119.908 86.8516L122.815 88.5609L128.4 89.1614C131.077 89.3 131.492 92.1643 129.877 92.1643C128.585 92.1643 120.738 92.6725 120.738 92.6725L115.523 92.811V87.1288Z" fill="#E0E0E0"/>
<path d="M122.677 88.5609C122.677 88.6071 122.446 88.7457 121.985 88.8843C121.523 89.0229 120.877 89.0229 120.185 88.7919C119.492 88.5148 119.031 88.0528 118.8 87.6832C118.523 87.3136 118.477 86.9902 118.523 86.9902C118.569 86.9902 118.662 87.2212 118.938 87.5908C119.215 87.9142 119.677 88.3762 120.277 88.6071C120.877 88.8381 121.523 88.8381 121.938 88.7919C122.4 88.6533 122.631 88.5148 122.677 88.5609Z" fill="#455A64"/>
<path d="M129.646 92.1179C129.646 92.1641 129.415 92.2102 129.092 92.0255C128.769 91.8869 128.492 91.4249 128.354 90.9629C128.215 90.4547 128.262 89.9466 128.446 89.6694C128.631 89.346 128.815 89.2998 128.862 89.2998C128.908 89.346 128.723 89.4384 128.631 89.7618C128.492 90.039 128.492 90.4547 128.585 90.9167C128.677 91.3787 128.908 91.7483 129.185 91.8869C129.415 92.0717 129.646 92.0717 129.646 92.1179Z" fill="#455A64"/>
<path d="M86.3537 33.6319C86.3537 33.6319 80.8614 45.6894 81.1845 47.7221C81.5076 49.7548 83.0768 57.9318 83.0768 57.9318L84.2306 71.2367C84.2306 71.2367 104.908 68.742 105.369 68.742C105.784 68.742 104.723 57.747 104.723 57.747L107.861 36.6347C107.861 36.6347 106.431 33.7705 99.923 32.7541C96.046 32.1073 86.3537 33.6319 86.3537 33.6319Z" fill="#E5E3FF"/>
<path d="M101.492 49.8474C101.723 51.6491 102.231 53.728 103.431 55.9917C103.846 56.7308 104.215 57.701 104.861 58.2091C105.877 58.9945 107.354 58.2553 108.277 57.3776C109.2 56.4998 110.123 55.3911 111.415 55.3449C112.246 55.2987 112.984 55.7607 113.769 55.8993C114.554 56.0841 115.615 55.8069 115.8 55.0215C115.892 54.5595 115.708 54.0976 115.477 53.6818C113.492 49.6626 112.061 45.8282 111 41.4394C110.769 40.5617 109.846 38.76 109.384 37.9746C108.923 37.1892 107.723 36.0805 106.569 35.1104" fill="#E5E3FF"/>
<path d="M90.2769 32.8003C84.5999 32.9851 80.3076 36.7733 79.1076 39.4989C77.6769 42.6866 76.5692 46.521 74.9076 49.6162C74.5845 50.2168 74.1692 50.8174 74.0307 51.4641C73.8922 52.1571 74.0769 52.9424 74.6769 53.2658C75.5538 53.774 76.7999 53.1272 77.5845 53.7278C77.9999 54.0512 78.1384 54.6517 78.5076 55.0675C78.9692 55.5757 79.7076 55.6681 80.3538 55.7143C81.6461 55.8529 82.9384 55.9915 84.1845 56.1301" fill="#E5E3FF"/>
<path d="M100.2 44.5805C100.2 44.5805 100.108 44.4419 99.9691 44.1186C99.8307 43.7952 99.6922 43.3794 99.646 42.7788C99.4614 41.6239 99.5999 39.9146 100.523 38.3439C101.446 36.7731 102.923 35.8492 104.031 35.4796C104.585 35.2948 105.046 35.2024 105.369 35.1562C105.692 35.11 105.877 35.11 105.877 35.1562C105.877 35.2024 105.138 35.2486 104.077 35.6644C103.015 36.0802 101.631 37.0041 100.754 38.5287C99.8768 40.0532 99.6922 41.7163 99.8307 42.825C99.923 43.8876 100.246 44.5805 100.2 44.5805Z" fill="#263238"/>
<path d="M84.5538 39.8687C84.5538 39.8687 84.4615 40.0996 84.2769 40.4692C84.1846 40.654 84.0461 40.885 83.9077 41.1622C83.7692 41.4394 83.6307 41.7628 83.4923 42.0861C83.1692 42.7791 82.8923 43.6569 82.5692 44.627C82.2923 45.5972 82.0615 46.7059 81.9231 47.8608C81.7846 49.0158 81.7846 50.1245 81.8308 51.1409C81.8769 52.1572 82.0154 53.0812 82.1538 53.8203C82.2 54.1899 82.2923 54.5133 82.3846 54.8367C82.4308 55.1139 82.5231 55.391 82.5692 55.5758C82.6615 55.9916 82.7538 56.2226 82.7077 56.2226C82.7077 56.2226 82.6154 55.9916 82.4769 55.5758C82.3846 55.391 82.3384 55.1139 82.2461 54.8367C82.1538 54.5595 82.0615 54.1899 82.0154 53.8203C81.8307 53.0812 81.7384 52.1572 81.6461 51.1409C81.6 50.1245 81.6 48.9696 81.7384 47.8146C81.8769 46.6597 82.1077 45.551 82.3846 44.5346C82.6615 43.5645 83.0308 42.6867 83.3538 41.9937C83.4923 41.6242 83.6769 41.347 83.8154 41.0698C83.9538 40.7926 84.0923 40.5616 84.2308 40.3768C84.4154 40.0534 84.5538 39.8687 84.5538 39.8687Z" fill="#263238"/>
<path d="M115.477 53.3584C115.477 53.3584 115.477 53.4046 115.431 53.497C115.385 53.5894 115.292 53.6818 115.154 53.8204C114.877 54.0514 114.323 54.2362 113.723 54.1438C113.077 54.0514 112.431 53.6818 111.646 53.5432C110.862 53.3584 109.985 53.728 109.292 54.3286C108.554 54.9291 108 55.6221 107.262 56.0841C106.938 56.3151 106.569 56.4999 106.2 56.5923C105.831 56.6847 105.462 56.6847 105.185 56.6385C104.538 56.5923 104.077 56.4075 103.754 56.2227C103.615 56.1303 103.523 56.0379 103.477 55.9455C103.431 55.8531 103.385 55.8069 103.431 55.8069C103.431 55.8069 103.569 55.9455 103.846 56.1303C104.123 56.3151 104.631 56.4537 105.231 56.4537C105.554 56.4537 105.877 56.4537 106.2 56.3613C106.523 56.2689 106.892 56.0841 107.215 55.8531C107.862 55.3911 108.462 54.6982 109.2 54.0976C109.569 53.8204 109.985 53.5432 110.446 53.4046C110.862 53.266 111.369 53.2198 111.785 53.3122C112.615 53.497 113.262 53.8666 113.862 53.959C114.462 54.0514 114.969 53.9128 115.246 53.728C115.385 53.5432 115.477 53.3584 115.477 53.3584Z" fill="#6C63FF"/>
<path d="M114.138 50.679C114.138 50.679 114.138 50.7252 114.092 50.8176C114.046 50.91 114 51.0024 113.862 51.141C113.631 51.372 113.123 51.5567 112.523 51.4182C111.923 51.3258 111.323 50.91 110.585 50.91C109.846 50.8638 109.062 51.1872 108.323 51.6491C107.585 52.1111 106.985 52.7117 106.338 53.1275C105.692 53.5894 105.046 53.8666 104.446 53.9128C103.846 54.0052 103.385 53.8666 103.062 53.728C102.785 53.5894 102.646 53.4508 102.646 53.4508C102.646 53.4508 102.785 53.5432 103.108 53.6356C103.385 53.728 103.846 53.8204 104.4 53.728C104.954 53.6356 105.6 53.3585 106.2 52.9427C106.8 52.5269 107.446 51.9263 108.185 51.4182C108.923 50.91 109.754 50.5866 110.585 50.6328C111 50.6328 111.323 50.7714 111.646 50.91C111.969 51.0486 112.246 51.141 112.523 51.2334C113.077 51.372 113.538 51.2334 113.769 51.0486C114.092 50.8638 114.138 50.679 114.138 50.679Z" fill="#6C63FF"/>
<path d="M81.8307 54.1897C81.8307 54.1897 81.7384 54.3283 81.5077 54.3745C81.2769 54.4207 80.8615 54.3745 80.5384 54.0973C80.1692 53.8201 79.9384 53.3582 79.6615 52.85C79.4307 52.388 79.0615 51.8337 78.5077 51.6951C77.9077 51.5565 77.3076 51.6951 76.7538 51.7875C76.2 51.8798 75.6461 51.926 75.2307 51.7413C74.8153 51.5565 74.5846 51.2793 74.4923 51.0483C74.4 50.8173 74.4461 50.6787 74.4461 50.6787C74.4923 50.6787 74.4461 50.8173 74.5846 51.0021C74.6769 51.1869 74.9077 51.4641 75.2769 51.6027C75.6461 51.7413 76.1538 51.6951 76.7076 51.6027C77.2615 51.5103 77.8615 51.3255 78.5538 51.5103C78.8769 51.6027 79.2 51.7875 79.3846 52.0646C79.5692 52.2956 79.7538 52.5728 79.8461 52.85C80.0769 53.3582 80.3076 53.8201 80.6307 54.0511C80.9538 54.3283 81.2769 54.3745 81.5077 54.3745C81.6923 54.2359 81.8307 54.1435 81.8307 54.1897Z" fill="#6C63FF"/>
<path d="M81.1384 51.464C81.1384 51.464 81.046 51.5102 80.8614 51.464C80.6768 51.4179 80.446 51.2331 80.3076 50.9559C80.123 50.6787 79.9845 50.3553 79.7076 50.1705C79.3845 49.9857 78.9691 50.0319 78.5076 50.0781C78.046 50.1705 77.5845 50.1705 77.1691 50.0781C76.7537 49.9857 76.4307 49.8009 76.1537 49.6161C75.646 49.2466 75.4614 48.877 75.4614 48.877C75.5076 48.8308 75.7383 49.1542 76.246 49.4776C76.7537 49.8009 77.5845 50.0319 78.4614 49.8471C78.923 49.8009 79.4307 49.7085 79.7999 49.9857C80.1691 50.2629 80.3076 50.6325 80.446 50.9097C80.5845 51.1869 80.7691 51.3255 80.9076 51.4179C81.046 51.464 81.1384 51.464 81.1384 51.464Z" fill="#6C63FF"/>
<path d="M102.831 53.8666C102.831 53.8666 102.554 53.8204 102 53.6818C101.492 53.5432 100.708 53.4046 99.7845 53.2198C99.323 53.1274 98.8153 53.035 98.2614 52.9888C97.7076 52.9426 97.1076 52.8502 96.5076 52.8964C95.9076 52.9426 95.2614 53.2198 94.6614 53.497C94.0614 53.8204 93.4614 54.1899 92.7691 54.5133C92.123 54.8367 91.3845 55.0677 90.6922 55.1139C89.9999 55.1601 89.3076 55.0215 88.7076 54.8829C87.4614 54.5595 86.3999 54.1899 85.4307 54.0975C84.5076 53.959 83.723 54.0975 83.2153 54.3285C82.7076 54.5133 82.4768 54.7443 82.4768 54.6981C82.4768 54.6981 82.523 54.6519 82.6153 54.5595C82.7076 54.4671 82.8922 54.3747 83.1691 54.2361C83.6768 54.0052 84.4614 53.8666 85.4307 53.959C86.3999 54.0514 87.5076 54.4209 88.7076 54.6981C89.3076 54.8367 89.9537 54.9291 90.646 54.8829C91.3383 54.8367 91.9845 54.6057 92.6307 54.2823C93.2768 53.959 93.8768 53.5894 94.523 53.266C95.1691 52.9426 95.7691 52.7116 96.4614 52.6654C97.1076 52.6192 97.7076 52.7116 98.2614 52.7578C98.8153 52.8502 99.323 52.9426 99.8307 53.035C100.754 53.2198 101.538 53.4508 102.046 53.5894C102.323 53.6818 102.508 53.728 102.646 53.7742C102.738 53.8204 102.831 53.8204 102.831 53.8666Z" fill="#6C63FF"/>
<path d="M103.292 56.1762C103.292 56.1762 103.015 56.0838 102.508 55.8528C102 55.668 101.308 55.3446 100.385 55.0674C99.923 54.9288 99.4153 54.7902 98.8615 54.744C98.3077 54.6978 97.7077 54.744 97.1538 54.975C95.9538 55.3908 94.8461 56.2224 93.4615 56.7767C92.7692 57.0539 92.0307 57.1463 91.3384 57.1463C90.6461 57.1463 89.9538 57.0539 89.3538 56.9153C88.1077 56.6843 87 56.4533 86.0769 56.4071C85.1538 56.361 84.3692 56.4995 83.8615 56.6843C83.3538 56.8691 83.123 57.0539 83.123 57.0077C83.123 57.0077 83.1692 56.9615 83.3077 56.8691C83.4461 56.7767 83.6307 56.6843 83.8615 56.5919C84.3692 56.361 85.1538 56.2224 86.123 56.2224C87.0923 56.2224 88.2 56.4533 89.4461 56.6843C90.6923 56.8691 92.0769 57.0539 93.4153 56.4995C94.7538 55.9914 95.8615 55.1136 97.1077 54.6978C97.7077 54.513 98.3538 54.4207 98.9077 54.4669C99.4615 54.5592 99.9692 54.6978 100.431 54.8364C101.354 55.1598 102.046 55.437 102.554 55.668C102.785 55.8066 102.969 55.899 103.108 55.9452C103.246 56.13 103.292 56.1762 103.292 56.1762Z" fill="#6C63FF"/>
<path d="M97.1076 55.3449C97.1076 55.3449 96.9691 55.3911 96.7845 55.3911C96.5538 55.4373 96.2307 55.3911 95.8615 55.3449C95.4922 55.2987 95.0307 55.2063 94.523 55.0215C94.0153 54.8367 93.5076 54.6057 93.0461 54.2361C92.5384 53.8665 92.123 53.497 91.7999 53.0812C91.4768 52.6654 91.1999 52.2958 91.0153 51.9262C90.8307 51.5567 90.7384 51.2795 90.6922 51.0485C90.6461 50.8175 90.5999 50.7251 90.6461 50.7251C90.6922 50.7251 90.8307 51.1871 91.1999 51.8338C91.3845 52.1572 91.6615 52.5268 91.9845 52.8964C92.3076 53.266 92.723 53.6355 93.1845 53.9589C93.6461 54.2823 94.1538 54.5595 94.6153 54.7443C95.0768 54.9291 95.5384 55.0215 95.9076 55.1139C96.6461 55.3449 97.1076 55.2987 97.1076 55.3449Z" fill="#263238"/>
<g opacity="0.3">
<path d="M90.6461 51.3257C90.9692 53.035 91.6154 54.7443 92.8615 55.9916C94.1077 57.1928 96.0461 57.8395 97.6615 57.1928C97.9846 57.0542 98.3538 56.8232 98.4461 56.4536C98.5384 56.0378 98.2153 55.6221 97.8 55.4835C97.4307 55.2987 96.9692 55.3449 96.5538 55.2987C94.1538 55.1601 91.8461 53.6818 90.7384 51.5105" fill="black"/>
</g>
<path d="M104.169 58.163C104.169 58.163 104.077 58.0244 103.985 57.701C103.892 57.4238 103.708 57.0081 103.523 56.4537C103.154 55.3911 102.692 53.9128 102.185 52.2959C101.723 50.679 101.308 49.1545 101.077 48.0919C100.938 47.5376 100.846 47.1218 100.8 46.7984C100.754 46.475 100.708 46.3364 100.708 46.3364C100.708 46.3364 100.8 46.475 100.846 46.7984C100.938 47.168 101.077 47.5838 101.215 48.0919C101.492 49.1545 101.908 50.6328 102.415 52.2959C102.877 53.9128 103.338 55.3911 103.661 56.4537C103.8 56.9619 103.938 57.3776 104.031 57.701C104.123 57.9782 104.169 58.163 104.169 58.163Z" fill="#263238"/>
<path d="M83.3076 71.3753C83.3076 71.3753 87.2768 67.079 90.7845 66.2474C94.2922 65.4159 106.754 60.9809 106.754 60.9809L105.969 58.4862C106.754 58.44 107.492 57.978 108.046 57.4237L108.877 56.6383C109.985 55.4372 111.277 54.7904 113.215 55.4372L114.415 55.8068L115.661 59.5026C116.908 63.1522 114.508 67.079 110.677 67.5871L83.3076 71.3753Z" fill="#FFBE9D"/>
<path d="M111.969 61.5355C111.923 61.6279 110.862 61.0735 109.431 60.9349C108 60.7963 106.846 61.0735 106.846 61.0273C106.8 60.9811 108 60.5653 109.477 60.7039C110.954 60.8425 112.015 61.4893 111.969 61.5355Z" fill="#EB996E"/>
<path d="M83.9077 12.9352C83.5385 7.11432 91.1539 3.04894 96.2769 4.48106C101.123 5.86699 103.2 8.26926 103.985 11.5031C104.769 14.7369 104.723 18.2479 103.477 21.3432C102.831 22.8677 101.723 24.3922 100.108 24.6232" fill="#263238"/>
<path d="M99.3693 9.33175C100.2 9.42415 100.846 10.1633 100.846 10.9949L99.9231 33.2159C99.877 35.8492 96.0462 37.3275 93.2308 37.2813C90.4154 37.2351 90.277 35.8492 90.277 33.3083C90.2308 29.1505 90.2308 27.5798 90.2308 27.5798C90.2308 27.5798 86.6308 26.9792 85.8923 22.3133C85.5231 20.0034 85.6616 16.169 85.8462 13.0276C86.0308 10.2095 87.8769 6.79089 90.6923 7.06807L99.3693 9.33175Z" fill="#FFBE9D"/>
<path d="M87.0461 16.1227C87.0461 16.4461 87.2769 16.7233 87.6461 16.7233C87.9692 16.7233 88.2461 16.4923 88.2461 16.1689C88.2461 15.8455 88.0154 15.5684 87.6461 15.5684C87.3231 15.5684 87.0461 15.7993 87.0461 16.1227Z" fill="#263238"/>
<path d="M86.6308 15.1062C86.7231 15.1986 87.1385 14.8291 87.7846 14.8291C88.4308 14.8291 88.8923 15.1524 88.9846 15.06C89.0308 15.0138 88.9385 14.8753 88.7539 14.7367C88.5692 14.5981 88.2 14.4595 87.7846 14.4595C87.3692 14.4595 87.0462 14.5981 86.8615 14.7829C86.6769 14.9214 86.5846 15.06 86.6308 15.1062Z" fill="#263238"/>
<path d="M93.323 16.1227C93.323 16.4461 93.5538 16.7233 93.923 16.7233C94.2461 16.7233 94.523 16.4923 94.523 16.1689C94.523 15.8455 94.2922 15.5684 93.923 15.5684C93.6461 15.5684 93.3692 15.7993 93.323 16.1227Z" fill="#263238"/>
<path d="M93 15.199C93.0923 15.2914 93.5077 14.9218 94.1538 14.9218C94.8 14.9218 95.2615 15.2452 95.3538 15.1528C95.4 15.1066 95.3077 14.968 95.123 14.8294C94.9384 14.6908 94.5692 14.5522 94.1538 14.5522C93.7384 14.5522 93.4154 14.6908 93.2307 14.8756C93 15.0142 92.9538 15.1528 93 15.199Z" fill="#263238"/>
<path d="M90.6462 20.0034C90.6462 19.9572 90.2308 19.911 89.5847 19.8186C89.4 19.8186 89.2616 19.7724 89.2154 19.6338C89.1693 19.4952 89.2616 19.3566 89.3077 19.1256C89.4462 18.7098 89.6308 18.2941 89.8154 17.8783C90.5077 16.0766 90.9693 14.5983 90.9231 14.5983C90.8308 14.5521 90.2308 15.9842 89.5847 17.7859C89.4 18.2479 89.2616 18.6636 89.1231 19.0332C89.077 19.218 88.9385 19.449 89.0308 19.68C89.077 19.8186 89.2154 19.911 89.3077 19.911C89.4 19.9572 89.4924 19.9572 89.5847 19.9572C90.2308 20.0496 90.6462 20.0496 90.6462 20.0034Z" fill="#263238"/>
<path d="M90.1847 27.626C90.1847 27.626 93.3232 27.8108 96.4616 25.9629C96.4616 25.9629 94.9385 29.1967 90.277 28.7347L90.1847 27.626Z" fill="#EB996E"/>
<path d="M90.9231 21.5743C91.1539 21.251 91.5693 21.1124 91.9847 21.1586C92.2616 21.2048 92.5385 21.3434 92.7231 21.5743C92.9077 21.8053 92.9077 22.1287 92.7693 22.3597C92.5847 22.5907 92.2154 22.6831 91.9385 22.5907C91.6154 22.4983 91.3846 22.3135 91.1077 22.0825C91.0154 22.0363 90.9693 21.9901 90.9231 21.8977C90.8308 21.7591 90.8308 21.6205 90.9231 21.5743Z" fill="#EB996E"/>
<path d="M92.5385 20.4653C92.4461 20.4653 92.4461 21.1583 91.8461 21.6665C91.2461 22.1746 90.5077 22.0822 90.5077 22.1746C90.5077 22.2208 90.6923 22.3132 90.9692 22.3132C91.2923 22.3132 91.7077 22.2208 92.0769 21.8975C92.4461 21.5741 92.5846 21.2045 92.6308 20.8811C92.6769 20.6039 92.5846 20.4653 92.5385 20.4653Z" fill="#263238"/>
<path d="M92.677 14.0901C92.7232 14.2749 93.3693 14.1825 94.1539 14.2749C94.8924 14.3673 95.5385 14.5521 95.6308 14.4135C95.677 14.3211 95.5847 14.1825 95.3078 13.9977C95.077 13.813 94.6616 13.6744 94.2001 13.6282C93.7385 13.582 93.3232 13.6282 93.0462 13.7668C92.8155 13.8592 92.677 13.9977 92.677 14.0901Z" fill="#263238"/>
<path d="M86.8616 13.2122C86.9539 13.3508 87.4155 13.2122 87.9693 13.2122C88.5232 13.166 88.9385 13.3046 89.077 13.166C89.1232 13.0736 89.0308 12.935 88.8462 12.7964C88.6616 12.6578 88.3385 12.5654 87.9693 12.5654C87.6001 12.5654 87.277 12.704 87.0924 12.8426C86.9078 12.9812 86.8155 13.166 86.8616 13.2122Z" fill="#263238"/>
<path d="M93 5.58984C91.2923 5.63604 90 6.14421 88.5231 6.97577C87.0462 7.80733 85.7539 9.14706 85.2923 10.8102C85.2 11.1798 85.1539 11.5493 85.3385 11.8727C85.5692 12.2885 86.1692 12.3347 86.6308 12.1499C87.0462 11.9651 87.3692 11.5493 87.6923 11.1798C87.9231 12.0575 88.7539 12.7043 89.6308 12.7043C90.5077 12.7043 91.3385 12.0113 91.5692 11.1798C91.5692 12.0575 92.4923 12.8429 93.3692 12.7967C94.2462 12.7505 95.0769 12.0575 95.3539 11.2259C95.5385 12.0113 95.6769 12.8429 96.1846 13.4896C96.6462 14.1364 97.5231 14.5984 98.3077 14.3674C98.2154 15.0603 98.0769 15.7995 98.3539 16.4463C98.5846 17.093 99.7385 31.4605 100.431 31.2295C101.077 30.9985 100.938 16.4463 101.077 15.7533C101.354 14.4598 101.631 13.1662 101.585 11.8265C101.538 10.4868 101.169 9.14706 100.385 8.13071C99.5539 7.06817 98.2616 6.3752 96.9692 6.00562C95.6308 5.63604 94.2462 5.63604 92.9077 5.63604" fill="#263238"/>
<path d="M76.7077 24.1152C76.7077 24.1152 76.6615 24.0228 76.5231 23.8842C76.3846 23.7456 76.1538 23.607 75.8308 23.5146C75.5077 23.4684 75.0461 23.4684 74.6308 23.7918C74.2615 24.069 74.0308 24.6696 74.0769 25.2701C74.1231 25.5935 74.2154 25.8707 74.4461 26.1479C74.6308 26.4251 74.9077 26.6561 75.2769 26.7947C75.9231 27.118 76.8 27.118 77.5385 26.7947C78.3231 26.4713 78.9692 25.8707 79.5231 25.1777C80.0769 24.4386 80.4923 23.607 80.8154 22.6831C81.4154 20.8352 81.6 18.9411 81.8308 17.278C82.0615 15.6148 82.4769 14.0903 83.0308 12.8892C83.5384 11.688 84.2769 10.9027 84.8308 10.3945C85.1077 10.1635 85.3385 9.97874 85.5231 9.93254C85.7077 9.84014 85.7538 9.79395 85.8 9.79395C85.8 9.84014 85.4769 10.0249 84.9231 10.4869C84.4154 10.9489 83.7231 11.7804 83.2154 12.9816C82.7077 14.1365 82.3384 15.6148 82.1077 17.3242C81.8769 18.9873 81.6923 20.8814 81.0923 22.7755C80.7692 23.6994 80.3538 24.5772 79.7538 25.3625C79.2 26.1017 78.4615 26.7485 77.6769 27.0718C76.8923 27.3952 75.9692 27.3952 75.2308 27.0718C74.8615 26.8871 74.5846 26.6561 74.3538 26.3789C74.1231 26.0555 74.0308 25.7321 73.9846 25.4087C73.8923 24.762 74.1692 24.1152 74.6308 23.7918C75.0923 23.4684 75.5538 23.4684 75.9231 23.5608C76.2923 23.6532 76.5231 23.838 76.6615 23.9766C76.6615 24.0228 76.7077 24.1152 76.7077 24.1152Z" fill="#263238"/>
<path d="M101.492 31.7839C101.492 31.7377 101.769 31.6453 102.231 31.3219C102.692 30.9985 103.292 30.4441 103.8 29.6588C104.354 28.8272 104.769 27.7185 105 26.4711C105.185 25.1776 105.092 23.7455 104.815 22.2672C104.538 20.7888 104.123 19.4029 103.754 18.1556C103.385 16.9082 103.062 15.7533 102.877 14.7831C102.692 13.813 102.6 12.9814 102.6 12.4271C102.6 12.1499 102.6 11.9189 102.6 11.7803C102.6 11.6417 102.6 11.5493 102.646 11.5493C102.646 11.5493 102.646 11.8727 102.692 12.4271C102.738 12.9814 102.831 13.7668 103.015 14.7369C103.2 15.7071 103.523 16.862 103.938 18.1094C104.308 19.3567 104.769 20.7426 105.046 22.2672C105.323 23.7455 105.415 25.2238 105.231 26.5635C105 27.8571 104.538 29.012 103.985 29.8436C103.431 30.6751 102.785 31.2295 102.323 31.5067C102.092 31.6453 101.908 31.7377 101.769 31.8301C101.585 31.7839 101.492 31.8301 101.492 31.7839Z" fill="#263238"/>
<path d="M102.323 28.7809C102.323 28.7809 102.277 28.8271 102.138 28.8733C102.046 28.9195 101.862 28.9657 101.631 29.0119C101.169 29.058 100.477 29.0119 99.7385 28.6423C99 28.2727 98.3077 27.4873 97.9385 26.471C97.5231 25.4546 97.4769 24.2073 97.5692 23.0062C97.6616 21.7588 97.8923 20.6039 97.9846 19.5413C98.0769 18.4788 98.1692 17.5087 98.1692 16.7233C98.1692 15.9379 98.1692 15.245 98.1692 14.8292C98.1692 14.3672 98.1692 14.1362 98.1692 14.1362C98.1692 14.1362 98.2154 14.3672 98.2616 14.8292C98.3077 15.2912 98.3539 15.9379 98.3539 16.7233C98.3539 17.5549 98.3077 18.4788 98.2154 19.5413C98.1231 20.6039 97.8923 21.7588 97.8 23.0062C97.7077 24.2073 97.7539 25.4084 98.1231 26.3786C98.4923 27.3487 99.1385 28.1341 99.7846 28.5037C100.477 28.9195 101.123 28.9657 101.585 28.9657C102.092 28.8733 102.323 28.7809 102.323 28.7809Z" fill="#263238"/>
<path d="M72.1384 33.0311C72.1384 33.0311 72.1384 32.8925 72.2307 32.5691C72.323 32.2919 72.5538 31.8762 73.0153 31.5528C73.4769 31.2294 74.123 30.9522 74.9077 30.906C75.6923 30.8136 76.6154 30.9522 77.5846 30.906C78.5538 30.8136 79.6154 30.4902 80.5846 29.8897C81.5538 29.2891 82.4769 28.4113 83.1692 27.3488C83.9077 26.2863 84.4153 24.9927 84.6923 23.6068C85.0153 22.2209 85.1077 20.7425 85.0615 19.2642C85.0154 17.7397 84.8307 16.3076 84.7846 14.8755C84.6923 13.4433 84.6923 12.0574 85.0615 10.7639C85.3846 9.47033 86.0769 8.36159 87 7.57623C87.8769 6.79087 88.9384 6.3289 89.9077 6.09791C90.8769 5.91312 91.8 5.95932 92.5846 6.19031C93.3692 6.3751 93.9692 6.69848 94.4307 7.02186C94.8923 7.34525 95.2153 7.62243 95.4 7.85342C95.4923 7.94581 95.5846 8.03821 95.6307 8.08441C95.6769 8.1306 95.723 8.1768 95.6769 8.1768C95.6307 8.223 95.2615 7.71483 94.3384 7.11426C93.8769 6.83707 93.2769 6.51369 92.4923 6.3289C91.7538 6.14411 90.8307 6.09791 89.8615 6.2827C88.8923 6.46749 87.923 6.92947 87.0461 7.71483C86.1692 8.45399 85.523 9.56273 85.2 10.8101C84.8769 12.0574 84.8769 13.4433 84.9692 14.8755C85.0615 16.3076 85.2461 17.7859 85.2923 19.2642C85.3384 20.7887 85.2461 22.2671 84.923 23.6992C84.6 25.0851 84.0923 26.4248 83.3538 27.5336C82.6154 28.6423 81.6923 29.5201 80.6769 30.1207C79.6615 30.7212 78.6 31.0908 77.5846 31.137C76.5692 31.1832 75.6923 31.0446 74.9077 31.137C74.123 31.1832 73.4769 31.4142 73.0615 31.7376C72.6 32.0609 72.3692 32.4305 72.2769 32.7077C72.1846 32.8463 72.1846 33.0311 72.1384 33.0311Z" fill="#455A64"/>
<path d="M95.3077 4.61959C95.3077 4.5734 95.5385 4.71199 95.7692 4.98918C96 5.26636 96.2769 5.72834 96.3231 6.3289C96.3692 6.92947 96.1846 7.43765 96 7.76103C95.8154 8.08441 95.6308 8.22301 95.5846 8.17681C95.5385 8.13061 95.6769 7.99202 95.8616 7.66863C96 7.34525 96.1385 6.88328 96.0923 6.3751C96.0462 5.86693 95.8154 5.40495 95.6308 5.12777C95.4462 4.75819 95.2616 4.61959 95.3077 4.61959Z" fill="#455A64"/>
<path d="M104.492 16.5846C104.492 16.5846 104.446 16.3998 104.354 16.0302C104.262 15.6606 104.169 15.1525 104.031 14.5057C103.892 13.8589 103.708 13.0736 103.477 12.242C103.338 11.8262 103.246 11.3643 103.062 10.9485C102.923 10.4865 102.692 10.0707 102.415 9.65496C101.815 8.8696 101.031 8.26903 100.246 7.94565C99.4615 7.62226 98.6307 7.62226 97.9846 7.71466C97.3384 7.85325 96.8769 8.08424 96.5538 8.26903C96.2307 8.45382 96.0923 8.63861 96.0923 8.59241C96.0923 8.59241 96.1384 8.54621 96.1846 8.45382C96.2307 8.36142 96.3692 8.26903 96.5077 8.17663C96.7846 7.94565 97.2923 7.66846 97.9384 7.52987C98.5846 7.39127 99.4615 7.39127 100.292 7.71466C101.123 8.03804 101.954 8.63861 102.6 9.51636C102.923 9.93214 103.154 10.3941 103.292 10.8561C103.431 11.3181 103.569 11.78 103.708 12.1958C103.938 13.0736 104.077 13.8127 104.215 14.5057C104.354 15.1525 104.4 15.7068 104.446 16.0764C104.538 16.3536 104.538 16.5846 104.492 16.5846Z" fill="#455A64"/>
<path d="M95.7692 8.31536C95.7692 8.36156 95.1692 8.22296 94.2923 7.94578C93.8307 7.80719 93.323 7.6224 92.723 7.5762C92.123 7.4838 91.4307 7.53 90.7846 7.80719C90.1384 8.03817 89.5846 8.45395 89.2153 8.91593C88.8461 9.3779 88.6153 9.88608 88.4769 10.3019C88.1999 11.1796 88.3384 11.7802 88.2923 11.7802C88.2923 11.7802 88.2461 11.6416 88.2 11.3644C88.2 11.0872 88.1999 10.7176 88.2923 10.2557C88.3846 9.79368 88.6153 9.23931 89.0307 8.73114C89.4461 8.22296 89.9999 7.80719 90.6923 7.53C91.3846 7.25281 92.123 7.20662 92.723 7.34521C93.3692 7.43761 93.8769 7.6224 94.3384 7.80719C95.2153 8.13057 95.7692 8.31536 95.7692 8.31536Z" fill="#455A64"/>
</svg>
