<svg width="34" height="34" viewBox="0 0 34 34" fill="none" xmlns="http://www.w3.org/2000/svg">
<circle cx="17" cy="17" r="16.5" fill="white" stroke="#6C63FF"/>
<path d="M16.1667 17C16.1667 16.5333 16.5417 16.1667 17 16.1667C17.4583 16.1667 17.8333 16.5417 17.8333 17C17.8333 17.4583 17.4583 17.8333 17 17.8333C16.5417 17.8333 16.1667 17.4667 16.1667 17Z" fill="#6C63FF"/>
<path d="M16.1667 20.3333C16.1667 19.8667 16.5417 19.5 17 19.5C17.4583 19.5 17.8333 19.875 17.8333 20.3333C17.8333 20.7917 17.4583 21.1667 17 21.1667C16.5417 21.1667 16.1667 20.8 16.1667 20.3333Z" fill="#6C63FF"/>
<path d="M16.1667 13.6667C16.1667 13.2 16.5417 12.8333 17 12.8333C17.4583 12.8333 17.8333 13.2083 17.8333 13.6667C17.8333 14.125 17.4583 14.5 17 14.5C16.5417 14.5 16.1667 14.1333 16.1667 13.6667Z" fill="#6C63FF"/>
</svg>
