<svg width="20" height="20" viewBox="0 0 20 20" fill="none" xmlns="http://www.w3.org/2000/svg">
<path d="M9.99996 19.0084C9.42496 19.0084 8.88329 18.7167 8.49996 18.2084L7.24996 16.5417C7.22496 16.5084 7.12496 16.4667 7.08329 16.4584H6.66663C3.19163 16.4584 1.04163 15.5167 1.04163 10.8334V6.66675C1.04163 2.98341 2.98329 1.04175 6.66663 1.04175H13.3333C17.0166 1.04175 18.9583 2.98341 18.9583 6.66675V10.8334C18.9583 14.5167 17.0166 16.4584 13.3333 16.4584H12.9166C12.85 16.4584 12.7916 16.4917 12.75 16.5417L11.5 18.2084C11.1166 18.7167 10.575 19.0084 9.99996 19.0084ZM6.66663 2.29175C3.68329 2.29175 2.29163 3.68341 2.29163 6.66675V10.8334C2.29163 14.6001 3.58329 15.2084 6.66663 15.2084H7.08329C7.50829 15.2084 7.99163 15.4501 8.24996 15.7917L9.49996 17.4584C9.79163 17.8417 10.2083 17.8417 10.5 17.4584L11.75 15.7917C12.025 15.4251 12.4583 15.2084 12.9166 15.2084H13.3333C16.3166 15.2084 17.7083 13.8167 17.7083 10.8334V6.66675C17.7083 3.68341 16.3166 2.29175 13.3333 2.29175H6.66663Z" fill="#6C63FF"/>
<path d="M9.99996 9.99992C9.53329 9.99992 9.16663 9.62492 9.16663 9.16659C9.16663 8.70825 9.54163 8.33325 9.99996 8.33325C10.4583 8.33325 10.8333 8.70825 10.8333 9.16659C10.8333 9.62492 10.4666 9.99992 9.99996 9.99992Z" fill="#6C63FF"/>
<path d="M13.3333 9.99992C12.8667 9.99992 12.5 9.62492 12.5 9.16659C12.5 8.70825 12.875 8.33325 13.3333 8.33325C13.7917 8.33325 14.1667 8.70825 14.1667 9.16659C14.1667 9.62492 13.8 9.99992 13.3333 9.99992Z" fill="#6C63FF"/>
<path d="M6.66671 9.99992C6.20004 9.99992 5.83337 9.62492 5.83337 9.16659C5.83337 8.70825 6.20837 8.33325 6.66671 8.33325C7.12504 8.33325 7.50004 8.70825 7.50004 9.16659C7.50004 9.62492 7.13337 9.99992 6.66671 9.99992Z" fill="#6C63FF"/>
</svg>
