<svg width="20" height="20" viewBox="0 0 20 20" fill="none" xmlns="http://www.w3.org/2000/svg">
<path opacity="0.4" d="M10.0003 18.3334C14.6027 18.3334 18.3337 14.6025 18.3337 10.0001C18.3337 5.39771 14.6027 1.66675 10.0003 1.66675C5.39795 1.66675 1.66699 5.39771 1.66699 10.0001C1.66699 14.6025 5.39795 18.3334 10.0003 18.3334Z" fill="#6C63FF"/>
<path d="M13.0919 13.275C12.9835 13.275 12.8752 13.25 12.7752 13.1833L10.1919 11.6416C9.55019 11.2583 9.0752 10.4166 9.0752 9.67497V6.2583C9.0752 5.91663 9.35853 5.6333 9.7002 5.6333C10.0419 5.6333 10.3252 5.91663 10.3252 6.2583V9.67497C10.3252 9.97497 10.5752 10.4166 10.8335 10.5666L13.4169 12.1083C13.7169 12.2833 13.8085 12.6666 13.6335 12.9666C13.5085 13.1666 13.3002 13.275 13.0919 13.275Z" fill="#6C63FF"/>
</svg>
