<svg width="108" height="88" viewBox="0 0 108 88" fill="none" xmlns="http://www.w3.org/2000/svg">
<g clip-path="url(#clip0_296_8524)">
<path d="M71.0638 49.2697C68.7855 50.6485 64.7263 52.3761 60.5783 50.6006L57.8969 49.4529L63.2702 43.3747C58.9824 38.6039 56.6102 32.392 56.6167 25.9513C56.6232 19.5107 59.008 13.3036 63.3055 8.54173C67.603 3.77982 73.5049 0.804849 79.859 0.197487C86.2131 -0.409876 92.5635 1.39397 97.6707 5.25692C102.778 9.11988 106.275 14.7647 107.48 21.0895C108.685 27.4144 107.511 33.9653 104.187 39.4637C100.863 44.962 95.6278 49.0131 89.5033 50.8262C83.3789 52.6394 76.8046 52.0844 71.0638 49.2697ZM60.7685 25.9368C60.7567 28.9058 61.3538 31.8451 62.5223 34.57C63.6908 37.2948 65.4055 39.7462 67.5584 41.7699L69.0405 43.1754L65.6593 47.0001C67.4205 46.6395 68.9545 45.678 69.7323 45.1196L70.7996 44.3533L71.9475 44.9897C75.1204 46.7428 78.6796 47.6615 82.297 47.6611C94.1678 47.6611 103.825 37.9156 103.825 25.9368C103.825 13.958 94.1678 4.21252 82.297 4.21252C70.4262 4.21252 60.7685 13.958 60.7685 25.9368Z" fill="#E5E3FF"/>
<path d="M58.6812 25.9367C58.6812 12.7755 69.2543 2.1062 82.2969 2.1062C95.3394 2.1062 105.913 12.7755 105.913 25.9367C105.913 39.098 95.3394 49.7672 82.2968 49.7672C78.3274 49.7731 74.4211 48.7646 70.9422 46.8358C69.3098 48.0078 65.3274 50.3456 61.3932 48.6616L66.1289 43.3047C63.7748 41.0789 61.8989 38.3888 60.6178 35.4011C59.3366 32.4135 58.6775 29.1921 58.6812 25.9367Z" fill="#6C63FF"/>
<path opacity="0.1" d="M101.89 25.9884C101.89 13.5371 92.426 3.31797 80.3613 2.25154C81.0492 2.19074 81.745 2.15784 82.4486 2.15784C95.4912 2.15784 106.064 12.8271 106.064 25.9884C106.064 39.1496 95.4912 49.8189 82.4486 49.8189C81.7461 49.8189 81.0515 49.7855 80.3646 49.7249C92.4277 48.6569 101.89 38.4385 101.89 25.9884Z" fill="black"/>
<path d="M27.8772 82.3753C21.9764 82.3781 16.2539 80.3341 11.6688 76.586C7.08368 72.8378 3.91458 67.6133 2.69258 61.7878C1.47058 55.9624 2.26996 49.8902 4.95674 44.5887C7.64352 39.2873 12.0544 35.0788 17.4503 32.6686C22.8461 30.2584 28.8989 29.7929 34.5943 31.3502C40.2898 32.9075 45.2817 36.3929 48.7336 41.2223C52.1854 46.0517 53.8874 51.9316 53.5543 57.8766C53.2212 63.8216 50.8733 69.4704 46.904 73.8764L52.2773 79.9546L49.5959 81.1024C45.4478 82.8778 41.3887 81.1502 39.1103 79.7714C35.6089 81.4842 31.7684 82.3745 27.8772 82.3753ZM27.8772 34.7142C16.0064 34.7142 6.34876 44.4597 6.34876 56.4385C6.34876 68.4173 16.0064 78.1628 27.8772 78.1628C31.4946 78.1632 35.0538 77.2445 38.2267 75.4914L39.3746 74.855L40.4418 75.6213C41.2197 76.1797 42.7537 77.1412 44.5149 77.5018L41.1337 73.6771L42.6158 72.2716C44.7687 70.2479 46.4833 67.7965 47.6519 65.0717C48.8204 62.3468 49.4175 59.4075 49.4056 56.4385C49.4056 44.4597 39.748 34.7142 27.8772 34.7142Z" fill="#E5E3FF"/>
<path d="M51.4931 56.4385C51.4931 43.2773 40.92 32.608 27.8774 32.608C14.8348 32.608 4.26172 43.2773 4.26172 56.4385C4.26172 69.5998 14.8348 80.2691 27.8774 80.2691C31.8468 80.2749 35.7531 79.2664 39.232 77.3376C40.8645 78.5096 44.8469 80.8474 48.781 79.1635L44.0454 73.8066C46.3995 71.5808 48.2753 68.8906 49.5565 65.903C50.8376 62.9153 51.4968 59.6939 51.4931 56.4385Z" fill="#6C63FF"/>
<path opacity="0.1" d="M8.43621 56.3182C8.43621 43.8669 17.8999 33.6478 29.9646 32.5814C29.2768 32.5206 28.5809 32.4877 27.8774 32.4877C14.8348 32.4877 4.26172 43.157 4.26172 56.3182C4.26172 69.4794 14.8348 80.1487 27.8774 80.1487C28.5799 80.1487 29.2745 80.1154 29.9613 80.0547C17.8982 78.9867 8.43621 68.7683 8.43621 56.3182Z" fill="black"/>
<path d="M87.8409 18.3658C86.2958 15.7312 83.2388 15.6084 83.2388 15.6084C83.2388 15.6084 80.26 15.2241 78.3491 19.2365C76.5681 22.9765 74.1099 26.5874 77.9534 27.4629L78.6477 25.2825L79.0776 27.6253C79.6248 27.665 80.1738 27.6744 80.7221 27.6536C84.8382 27.5195 88.7581 27.6929 88.6319 26.2024C88.4641 24.221 89.3276 20.9007 87.8409 18.3658Z" fill="#2F2E41"/>
<path d="M77.7339 41.4379C77.6886 41.7277 77.6227 42.0138 77.5368 42.2941C77.4401 42.5685 77.2909 42.8222 77.2025 43.0994C76.9207 43.9829 77.3113 44.9681 77.9353 45.65C78.4763 46.2391 79.1748 46.6576 79.9463 46.8551C80.5143 46.9777 81.0936 47.0391 81.6745 47.0383C83.2807 47.0933 84.9283 47.1425 86.4503 46.6216C86.9312 46.4529 87.3957 46.24 87.8378 45.9855C87.9775 45.9184 88.1005 45.8206 88.1979 45.6994C88.2998 45.5219 88.3452 45.317 88.3278 45.1126C88.3244 44.4254 88.1863 43.7418 88.2191 43.0555C88.2373 42.6753 88.3078 42.2954 88.2731 41.9165C88.225 41.486 88.0464 41.0811 87.7615 40.7571C87.4766 40.4331 87.0995 40.2058 86.6817 40.1064C86.2499 40.0129 85.8021 40.0639 85.3625 40.1065C84.2215 40.2171 83.0756 40.2688 81.9293 40.2614C80.7582 40.2539 79.5942 40.0735 78.4288 40.0546C78.0842 40.0491 78.0912 40.1563 77.9815 40.4928C77.8804 40.8026 77.7977 41.1182 77.7339 41.4379Z" fill="#2F2E41"/>
<path d="M81.0579 24.471C81.0016 24.7684 80.9408 25.0766 80.7637 25.321C80.5599 25.6022 80.2277 25.7628 80.0085 26.0319C79.6786 26.4369 79.6596 27.0069 79.6583 27.5312C79.657 28.0142 79.6668 28.5293 79.9337 28.9303C80.1236 29.1793 80.3594 29.3891 80.6281 29.5481C81.6291 30.2288 82.7108 30.9217 83.9177 30.9442C84.4177 30.9535 84.9539 30.8232 85.2829 30.4431C85.425 30.2646 85.5367 30.0634 85.6135 29.848C85.9221 29.0804 86.1091 28.2686 86.1678 27.4423C86.2123 27.0539 86.1764 26.6603 86.0623 26.2866C85.9157 25.8741 85.6192 25.5347 85.4233 25.1436C85.1917 24.6786 85.107 24.153 85.1806 23.6379C85.1903 23.6016 85.1873 23.5631 85.1721 23.5288C85.156 23.5104 85.1358 23.4961 85.1133 23.4869C85.0908 23.4777 85.0665 23.4738 85.0423 23.4757L82.6492 23.3019C82.4263 23.2907 82.2044 23.2651 81.9848 23.2252C81.8558 23.1987 81.5151 23.0138 81.392 23.063C81.1643 23.154 81.1046 24.2244 81.0579 24.471Z" fill="#A0616A"/>
<path opacity="0.1" d="M81.0579 24.5464C81.0016 24.8438 80.9408 25.152 80.7637 25.3964C80.5599 25.6776 80.2277 25.8382 80.0085 26.1073C79.6786 26.5124 79.6596 27.0823 79.6583 27.6066C79.657 28.0896 79.6668 28.6048 79.9337 29.0057C80.1236 29.2548 80.3594 29.4645 80.6281 29.6235C81.6291 30.3042 82.7108 30.9972 83.9177 31.0196C84.4177 31.0289 84.9539 30.8986 85.2829 30.5185C85.425 30.34 85.5367 30.1389 85.6135 29.9234C85.9221 29.1558 86.1091 28.344 86.1678 27.5177C86.2123 27.1293 86.1763 26.7358 86.0623 26.3621C85.9157 25.9496 85.6192 25.6102 85.4233 25.2191C85.1917 24.754 85.107 24.2285 85.1806 23.7133C85.1903 23.6771 85.1873 23.6385 85.1721 23.6042C85.156 23.5859 85.1358 23.5715 85.1133 23.5623C85.0908 23.5531 85.0665 23.5493 85.0423 23.5511L82.6492 23.3773C82.4263 23.3661 82.2044 23.3405 81.9848 23.3006C81.8558 23.2741 81.5151 23.0892 81.392 23.1384C81.1643 23.2294 81.1046 24.2998 81.0579 24.5464Z" fill="black"/>
<path d="M83.3463 24.7948C85.2854 24.7948 86.8572 23.2086 86.8572 21.2519C86.8572 19.2953 85.2854 17.7091 83.3463 17.7091C81.4073 17.7091 79.8354 19.2953 79.8354 21.2519C79.8354 23.2086 81.4073 24.7948 83.3463 24.7948Z" fill="#A0616A"/>
<path d="M81.5504 29.1871C81.7238 29.3898 81.9329 29.5584 82.167 29.6844C82.4111 29.7862 82.6733 29.8365 82.9374 29.8324C83.5703 29.8503 84.2564 29.7333 84.6966 29.2742C85.2641 28.6823 85.2455 27.7278 85.6903 27.0373C85.7261 26.9747 85.775 26.9207 85.8336 26.8791C85.9082 26.8381 85.9926 26.8185 86.0774 26.8225C86.6392 26.8172 87.1286 27.1849 87.5703 27.5353C87.7782 27.6797 87.9566 27.8631 88.0958 28.0755C88.1831 28.2474 88.2429 28.4322 88.273 28.6231C88.4922 29.7027 88.5631 30.8067 88.6336 31.9065C88.6725 32.5139 88.7114 33.122 88.7085 33.7307C88.699 35.7362 88.2371 37.7082 87.7777 39.6594C87.7185 39.9108 87.6375 40.1918 87.4109 40.3122C87.3099 40.3581 87.2015 40.3848 87.0909 40.3911C85.7752 40.547 84.4567 40.7031 83.1321 40.7237C82.6152 40.7317 82.0985 40.7191 81.582 40.6858C81.4931 40.6846 81.405 40.6691 81.3209 40.6399C81.2068 40.5846 81.1088 40.5006 81.0362 40.3959C80.3197 39.4848 80.2774 38.2252 80.282 37.0621C80.2932 34.2184 80.3939 31.377 80.5841 28.5379C80.5998 28.3035 80.6032 28.0189 80.4359 27.8346C80.7617 28.3218 81.1351 28.7749 81.5504 29.1871Z" fill="white"/>
<path d="M80.8066 25.0963C80.6881 25.3129 79.8138 25.8508 79.6451 26.0303C78.7021 27.0333 76.981 26.9956 76.1185 28.07C75.8151 28.4479 75.6574 28.9229 75.5415 29.395C75.3775 30.0628 75.29 30.7911 75.5647 31.4207C75.829 32.0266 76.3854 32.4455 76.7632 32.9867C77.178 33.5809 77.3645 34.3024 77.5433 35.0066C77.6752 35.5265 77.8083 36.0592 77.7569 36.5934C77.6985 37.2007 77.4072 37.7569 77.2352 38.3419C77.0633 38.9269 77.0336 39.6236 77.4312 40.0834C77.7233 40.4211 78.1815 40.555 78.6194 40.6303C79.1803 40.7154 79.746 40.7651 80.313 40.7791C80.8136 40.8014 81.3654 40.8058 81.7503 40.4819C82.054 40.2264 82.1859 39.8117 82.203 39.4131C82.2201 39.0145 82.1379 38.6194 82.0864 38.2238C82.0331 37.8137 82.0126 37.4 81.9954 36.9867C81.9184 35.1325 81.9079 33.2771 81.9639 31.4205C81.9921 31.0346 81.9733 30.6467 81.908 30.2654C81.8007 29.7688 81.5347 29.3249 81.3127 28.8686C80.8691 28.0091 80.6682 27.0431 80.7319 26.0762C80.7992 25.0825 81.2286 24.3255 80.8066 25.0963Z" fill="white"/>
<path d="M85.7369 25.1717C85.9175 25.359 86.5312 25.4208 86.761 25.5414C86.9771 25.6422 87.2026 25.721 87.4342 25.7766C88.2723 26.0206 89.0694 26.3898 89.7992 26.872C89.9508 26.9615 90.0849 27.0783 90.1947 27.2167C90.3104 27.4066 90.3849 27.619 90.4134 27.8401C90.5259 28.4024 90.639 28.9716 90.6137 29.5447C90.5869 30.153 90.4053 30.7422 90.2251 31.3234L89.552 33.495C89.0495 35.116 88.5439 36.7529 88.4025 38.4453C88.3243 39.3833 88.3591 40.3274 88.5061 41.2569C88.5199 41.3022 88.524 41.3498 88.5182 41.3968C88.5123 41.4437 88.4966 41.4889 88.4721 41.5292C88.4278 41.5735 88.3694 41.6006 88.3073 41.6058C87.9824 41.657 87.668 41.4899 87.3736 41.342C86.4739 40.8902 85.5138 40.5731 84.5234 40.4009C84.9104 39.8365 85.209 39.2154 85.4087 38.5594C85.5221 38.1428 85.6114 37.7199 85.6762 37.2929L85.9893 35.4653C86.1167 34.7973 86.2064 34.1226 86.2579 33.4443C86.2816 33.1898 86.2669 32.9331 86.2143 32.683C86.1422 32.445 86.0463 32.215 85.9283 31.9964C85.4123 30.9132 85.1701 29.677 85.3732 28.4927C85.462 27.9744 85.6347 27.4554 85.5627 26.9345C85.4935 26.4336 85.5654 26.0443 85.4381 25.5486C84.9152 23.5134 85.3971 24.8193 85.7369 25.1717Z" fill="white"/>
<path d="M76.1096 29.7827C75.8743 30.2754 75.481 30.6951 75.3471 31.225C75.295 31.4727 75.2727 31.7258 75.2806 31.9788C75.2574 32.3602 75.2948 32.7429 75.3914 33.1123C75.4661 33.346 75.5877 33.5615 75.6753 33.7906C75.7973 34.1107 75.8517 34.453 75.8349 34.7955C75.8113 35.2701 75.6515 35.7308 75.6391 36.2057C75.6194 36.9527 75.9618 37.6549 76.2959 38.3217C76.38 38.1116 76.5085 37.9226 76.6726 37.7678C76.8366 37.6131 77.0322 37.4964 77.2456 37.4259C77.4591 37.3553 77.6852 37.3327 77.9082 37.3596C78.1311 37.3865 78.3456 37.4622 78.5366 37.5815C78.6131 37.4867 78.6494 37.3652 78.6375 37.2435C78.6622 36.3769 78.6861 35.5103 78.709 34.6437C78.7452 33.3034 78.7796 31.9451 78.4741 30.6403C78.3361 30.0511 78.1215 29.4642 77.728 29.0073C77.5208 28.7667 76.8174 28.1329 76.4772 28.4024C76.3243 28.5237 76.36 28.8536 76.3358 29.0207C76.2992 29.2848 76.2229 29.5418 76.1096 29.7827Z" fill="white"/>
<path d="M90.6822 28.3629C90.7769 28.7182 90.8174 29.0859 90.8024 29.4535C90.8069 30.2026 90.7971 30.9517 90.7729 31.7006C90.7766 32.0847 90.7279 32.4675 90.6282 32.8383C90.5522 33.0794 90.435 33.3054 90.3565 33.5457C90.1214 34.2658 90.2498 35.0468 90.27 35.8048C90.2843 36.0501 90.2635 36.2962 90.2084 36.5355C90.0843 37.0054 89.7508 37.385 89.518 37.8108C89.297 38.2151 89.1636 38.6684 88.8995 39.0456C88.6355 39.4228 88.1784 39.7217 87.7354 39.6059C87.3997 39.5181 87.1612 39.2183 86.9962 38.9105C86.6362 38.2339 86.5131 37.4544 86.6468 36.6983C86.8124 35.7784 87.3479 34.9623 87.541 34.0479C87.8062 32.7922 87.4032 31.4964 87.4152 30.2125C87.4097 30.0113 87.4367 29.8105 87.4952 29.618C87.5965 29.3248 87.8141 29.0906 88.0151 28.8554C88.2662 28.5615 88.4995 28.2525 88.7137 27.9302C88.8576 27.7136 89.053 27.1567 89.3081 27.1104C89.8776 27.007 90.5409 27.9189 90.6822 28.3629Z" fill="white"/>
<path d="M73.1546 40.8794C72.8397 40.7995 72.5152 40.7647 72.1906 40.776C71.8496 40.795 71.5166 40.8871 71.2136 41.046C70.9106 41.205 70.6446 41.4273 70.4333 41.698C70.222 41.9687 70.0702 42.2818 69.9881 42.6163C69.906 42.9508 69.8953 43.2991 69.9569 43.638C70.0356 44.0052 70.1641 44.3597 70.3389 44.6913C70.5946 45.2149 70.9012 45.7372 71.3745 46.0727C71.6596 46.2572 71.9667 46.4046 72.2884 46.5117L74.781 47.4592C75.1477 47.5986 75.5144 47.738 75.8848 47.8673C77.7452 48.5162 79.6849 48.9053 81.6499 49.0238C82.2478 49.0804 82.8507 49.0496 83.4399 48.9323C83.5823 48.9136 83.7129 48.8424 83.8065 48.7325C83.854 48.6489 83.882 48.5556 83.8884 48.4595L84.0418 47.3759C84.0761 47.225 84.0716 47.0678 84.0287 46.9191C83.9585 46.737 83.7824 46.6225 83.6144 46.5251C81.9757 45.5754 80.0623 45.0514 78.6829 43.7479C78.3582 43.441 78.0865 42.9545 77.6919 42.7461C77.2445 42.5097 76.7177 42.3748 76.2552 42.157C75.2443 41.6808 74.2503 41.1336 73.1546 40.8794Z" fill="#2F2E41"/>
<path opacity="0.1" d="M75.643 42.3402C76.5241 42.6188 80.2438 44.5488 80.8814 45.2227C80.7959 45.2537 77.8963 43.614 77.8093 43.5876C77.0118 43.3666 76.2307 43.0889 75.4721 42.7565C75.321 42.686 74.4905 42.3545 74.5281 42.1621C74.5705 41.9451 75.4866 42.2907 75.643 42.3402Z" fill="black"/>
<path d="M86.6347 49.5858C86.6847 49.5895 86.7343 49.5747 86.7744 49.5443C86.7919 49.5215 86.8048 49.4955 86.8123 49.4676C86.8198 49.4398 86.8218 49.4107 86.818 49.3821L86.8139 47.9059C86.3933 47.7037 85.9227 47.6389 85.4608 47.5766L83.3059 47.2859C83.3554 47.2926 82.9689 48.2225 83.0282 48.3467C83.1326 48.5655 83.9307 48.7594 84.156 48.8627C84.9391 49.2219 85.7528 49.6167 86.6347 49.5858Z" fill="#A0616A"/>
<path d="M79.873 47.9008C79.4661 47.9662 79.012 48.024 78.7485 48.3436C78.4143 48.7489 78.5566 49.3532 78.716 49.8553C78.7257 49.9201 78.7482 49.9822 78.7821 50.0381C78.8161 50.094 78.8608 50.1424 78.9136 50.1806C78.9665 50.2187 79.0263 50.2457 79.0897 50.2601C79.1531 50.2745 79.2187 50.2759 79.2826 50.2642C79.6536 50.2879 80.0485 50.3065 80.3728 50.1228C80.5196 50.0249 80.661 49.9189 80.7963 49.8052C81.0353 49.6447 81.2981 49.5234 81.5749 49.446C82.0836 49.2845 82.6073 49.1756 83.1378 49.121C83.3469 49.1113 83.5538 49.0745 83.7535 49.0114C83.8533 48.979 83.9443 48.9238 84.0195 48.8501C84.0947 48.7764 84.1521 48.6863 84.1871 48.5866C84.2622 48.3184 84.1077 48.0449 83.9595 47.8096C83.7888 47.5014 83.5671 47.225 83.3041 46.9922C82.9026 46.6774 82.704 46.9191 82.2995 47.1205C81.534 47.5017 80.716 47.7648 79.873 47.9008Z" fill="#A0616A"/>
<path d="M78.8097 48.2707L76.2262 47.5001C75.9163 47.3912 75.5925 47.3279 75.2648 47.3121C75.1007 47.3053 74.937 47.334 74.7847 47.3961C74.6325 47.4582 74.4951 47.5525 74.3818 47.6725C74.1815 47.9097 74.1241 48.234 74.0742 48.5416L73.9674 49.1996C73.8961 49.5313 73.876 49.8722 73.9076 50.2101C73.9247 50.3791 73.9799 50.5419 74.0688 50.6862C74.1578 50.8304 74.2782 50.9523 74.4208 51.0426C74.7783 51.2394 75.2165 51.1433 75.6155 51.0609C76.4215 50.8947 77.2412 50.806 78.0638 50.796C78.373 50.7923 78.6974 50.7962 78.9706 50.65C79.1292 50.5551 79.2625 50.4226 79.3588 50.2639C79.4551 50.1053 79.5115 49.9253 79.5232 49.7396C79.574 49.1775 79.3884 48.4433 78.8097 48.2707Z" fill="#2F2E41"/>
<path d="M87.6502 47.5992C87.9851 47.54 88.2807 47.3479 88.6016 47.2345C89.0533 47.0749 89.5429 47.0749 90.0215 47.0767C90.1974 47.0605 90.3743 47.0962 90.5305 47.1796C90.7413 47.3212 90.7953 47.6046 90.8312 47.8576L91.0475 49.384C91.1053 49.6688 91.1113 49.9618 91.0651 50.2488C91.0017 50.5316 90.8106 50.8043 90.5324 50.8773C90.1946 50.9659 89.8634 50.7481 89.5444 50.6051C88.7472 50.2475 87.8204 50.3389 86.9891 50.0717C86.9096 50.0556 86.8345 50.0227 86.7685 49.9751C86.7026 49.9276 86.6475 49.8664 86.6067 49.7957C86.5783 49.7109 86.5681 49.621 86.5769 49.5319C86.5912 49.0413 86.4886 48.3713 86.635 47.9024C86.7666 47.4807 87.2763 47.5992 87.6502 47.5992Z" fill="#2F2E41"/>
<path d="M93.1173 40.265C93.6335 40.1344 94.1687 40.0975 94.6977 40.156C95.1202 40.203 95.5555 40.3216 95.864 40.6167C96.2395 40.9759 96.3601 41.5314 96.3702 42.0534C96.3867 43.093 96.045 44.1062 95.4034 44.9198C95.2468 45.1256 95.0605 45.3066 94.8507 45.4567C94.6244 45.5996 94.3833 45.7168 94.1316 45.8064L88.5494 48.0282C87.0809 48.6127 85.6072 49.1989 84.0754 49.5843C84.0335 49.6047 83.988 49.6164 83.9416 49.6188C83.8951 49.6212 83.8487 49.6142 83.805 49.5982C83.7612 49.5822 83.7211 49.5575 83.687 49.5257C83.6529 49.4938 83.6254 49.4554 83.6062 49.4126C83.1171 48.7076 82.7068 47.9502 82.3827 47.1542C82.3674 47.1353 82.3568 47.1129 82.3518 47.089C82.3469 47.0651 82.3477 47.0403 82.3542 47.0168C82.3608 46.9932 82.3728 46.9716 82.3894 46.9538C82.406 46.936 82.4265 46.9224 82.4494 46.9143L86.3977 44.6251C86.6872 44.4727 86.9571 44.285 87.2013 44.0663C87.372 43.8995 87.5117 43.7032 87.6139 43.4867C87.6957 43.3142 87.7034 42.9071 87.8079 42.7796C87.9103 42.6548 88.2604 42.6448 88.4221 42.5957C88.6502 42.5252 88.8735 42.4401 89.0908 42.3407C89.974 41.942 90.7604 41.3627 91.6071 40.8958C92.082 40.6218 92.5895 40.4099 93.1173 40.265Z" fill="#2F2E41"/>
<path opacity="0.1" d="M90.879 41.9746C90.2006 42.4887 89.3223 42.9613 88.65 43.489C88.4206 43.6691 84.5956 45.839 84.5415 46.1272C85.1687 46.2339 89.1642 43.4134 89.7358 43.1319C90.3074 42.8505 90.8142 42.4536 91.3163 42.0596C91.4443 41.9592 91.9866 41.6574 91.6193 41.5452C91.4123 41.482 91.0317 41.8718 90.879 41.9746Z" fill="black"/>
<path d="M86.2116 25.2216H80.2571C80.0152 25.2216 79.7832 25.3185 79.6121 25.4912C79.4411 25.6638 79.345 25.8979 79.345 26.142V26.4791H79.2803V27.2329H79.345V27.7605H79.2803V28.2128H79.345V33.7747C79.345 34.0188 79.4411 34.2529 79.6121 34.4256C79.7832 34.5982 80.0152 34.6952 80.2571 34.6952H86.2116C86.4535 34.6952 86.6855 34.5982 86.8566 34.4256C87.0277 34.2529 87.1238 34.0188 87.1238 33.7747V26.142C87.1238 25.8979 87.0277 25.6638 86.8566 25.4911C86.6855 25.3185 86.4535 25.2216 86.2116 25.2216Z" fill="#D0CDE1"/>
<path d="M87.1581 18.1119L84.138 16.5155L79.9673 17.1686L79.1045 21.0143L81.2524 20.9309L81.8525 19.5181V20.9077L82.8436 20.8692L83.4188 18.6197L83.7784 21.0143L87.3019 20.9417L87.1581 18.1119Z" fill="#2F2E41"/>
<path d="M76.8995 39.7669C77.0362 40.0013 77.2303 40.1962 77.4633 40.3328C77.6161 40.4033 77.7829 40.4375 77.9508 40.433C78.1188 40.4284 78.2835 40.3852 78.4323 40.3066C78.7297 40.1458 78.973 39.8995 79.1317 39.5991C79.4599 39.0142 79.5279 38.3143 79.4869 37.6435C79.446 36.9726 79.304 36.312 79.2412 35.6429C79.1955 35.1565 79.1918 34.6671 79.1881 34.1785C79.1768 34.0758 79.1981 33.9721 79.2491 33.8824C79.3369 33.7943 79.4504 33.7371 79.5729 33.7193C80.2353 33.5206 80.675 32.8941 80.9902 32.2735C81.2007 31.8592 81.3838 31.4062 81.3432 30.9424C81.3026 30.4786 80.9722 30.0113 80.5131 29.964C80.1347 29.925 79.7853 30.1675 79.5123 30.4349C78.8236 31.1135 78.381 32.0061 78.2556 32.9692C78.1957 33.4408 78.2128 33.9252 78.0857 34.3831C77.8143 35.3606 76.9651 35.96 76.5419 36.8396C76.0756 37.8089 76.3329 38.9093 76.8995 39.7669Z" fill="#A0616A"/>
<path d="M89.3963 36.0321C89.2998 36.2588 89.1592 36.4637 88.9828 36.6347C88.8065 36.8057 88.598 36.9393 88.3696 37.0276C88.0858 37.1427 87.7727 37.162 87.4771 37.0828C87.3305 37.0417 87.1952 36.9671 87.0818 36.8648C86.9684 36.7624 86.88 36.6351 86.8233 36.4926C86.778 36.3491 86.7532 36.1999 86.7496 36.0493C86.7071 35.3901 86.7235 34.7108 86.9608 34.0951C87.0524 33.8576 87.1758 33.6324 87.248 33.3882C87.319 33.1062 87.3553 32.8165 87.3561 32.5256L87.4341 30.7268C87.447 30.5963 87.4381 30.4644 87.4077 30.3368C87.3299 30.0766 87.0888 29.9074 86.8676 29.7522C86.3335 29.3774 85.8056 28.94 85.5468 28.3376C85.4579 28.1563 85.426 27.9518 85.4555 27.7517C85.5285 27.3945 85.8857 27.1633 86.2388 27.0854C86.4698 27.0344 86.7086 27.0311 86.9409 27.0758C87.1732 27.1205 87.3941 27.2121 87.5904 27.3452C87.7866 27.4783 87.9542 27.6502 88.0828 27.8503C88.2115 28.0505 88.2987 28.2749 88.3392 28.51C88.3741 28.713 88.3736 28.9204 88.3941 29.1254C88.4375 29.5602 88.5743 29.9794 88.6598 30.4078C88.8706 31.4631 88.7614 32.5539 88.9699 33.609C89.1442 34.4912 89.8014 35.0668 89.3963 36.0321Z" fill="#A0616A"/>
<path d="M83.3139 29.2681C83.7264 29.2681 84.0609 28.9306 84.0609 28.5143C84.0609 28.098 83.7264 27.7605 83.3139 27.7605C82.9013 27.7605 82.5669 28.098 82.5669 28.5143C82.5669 28.9306 82.9013 29.2681 83.3139 29.2681Z" fill="#6C63FF"/>
<path d="M2.20355 55.6058C3.42054 55.6058 4.4071 54.6102 4.4071 53.3822C4.4071 52.1541 3.42054 51.1586 2.20355 51.1586C0.986564 51.1586 0 52.1541 0 53.3822C0 54.6102 0.986564 55.6058 2.20355 55.6058Z" fill="#2F2E41"/>
<path d="M10.1912 59.9835L9.08126 58.8948L6.85254 59.5934L7.0666 62.1974L11.6491 61.9827L10.2414 60.0524L10.1912 59.9835Z" fill="#FBBEBE"/>
<path d="M7.76371 59.961C9.73125 59.961 11.3263 58.3515 11.3263 56.3661C11.3263 54.3806 9.73125 52.7711 7.76371 52.7711C5.79618 52.7711 4.20117 54.3806 4.20117 56.3661C4.20117 58.3515 5.79618 59.961 7.76371 59.961Z" fill="#FBBEBE"/>
<path d="M29.8804 64.5975C29.8804 64.5975 34.2571 72.1873 35.2986 73.3267C35.794 73.8875 36.3217 74.4182 36.8791 74.9162C36.8791 74.9162 36.3893 76.5552 35.6095 76.4967C35.1649 76.4697 34.729 76.3613 34.323 76.1768C34.323 76.1768 33.9749 75.2662 33.3677 74.8669C32.7606 74.4676 27.8001 69.5432 27.9161 67.9692C28.032 66.3953 29.8804 64.5975 29.8804 64.5975Z" fill="#2F2E41"/>
<path d="M14.2939 75.4284C14.2939 75.4284 18.9604 79.0834 25.3024 75.6491L25.8489 75.2432C25.8489 75.2432 24.9266 77.337 24.841 77.9046C24.7418 78.5628 22.3405 82.4184 21.9486 82.6031C21.5567 82.7878 21.4704 82.9582 21.4704 82.9582L23.1333 84.8053L23.7482 84.3487C23.7482 84.3487 26.1456 80.921 26.8468 80.294C27.5481 79.667 30.8889 73.2008 30.8889 73.2008C30.8889 73.2008 32.1663 70.7644 28.9785 70.5811C25.7907 70.3978 24.3238 71.2746 24.3238 71.2746L18.6662 72.1815L14.2939 75.4284Z" fill="#2F2E41"/>
<path d="M36.933 74.5571L39.2933 76.2051C39.2933 76.2051 42.3045 77.1571 40.4496 77.7907C38.5947 78.4242 33.7067 78.6534 33.5958 77.7793C33.4849 76.9052 33.7886 75.5294 34.0325 75.6046C34.2763 75.6798 35.9689 76.1233 36.933 74.5571Z" fill="#2F2E41"/>
<path d="M23.957 83.7825L24.3939 86.2034C24.3939 86.2034 25.6361 88.6007 24.1446 87.8569C22.6531 87.1131 19.5803 84.2876 20.034 83.6952C20.4878 83.1029 21.4893 82.4605 21.591 82.6535C21.6927 82.8465 22.4455 84.139 23.957 83.7825Z" fill="#2F2E41"/>
<path d="M19.4564 72.9762C19.4564 72.9762 16.2843 76.7135 14.3584 75.8056C12.4326 74.8978 4.55345 64.3828 5.45311 62.4394C6.35277 60.496 6.65442 60.9096 6.65442 60.9096L10.7227 61.2892L9.55211 59.3954C9.55211 59.3954 10.0986 58.9895 10.6194 59.5592C11.1402 60.1289 13.2311 61.5519 13.9595 63.5615C14.6879 65.5712 16.8265 65.4709 16.8265 65.4709L19.4564 72.9762Z" fill="white"/>
<path d="M32.2665 65.2699L26.7677 71.16L21.8418 62.384L26.5247 56.6747L32.2665 65.2699Z" fill="#3F3D56"/>
<path d="M31.8512 65.2062L26.8847 70.3822L22.3843 62.4061L26.5116 57.1626L31.8512 65.2062Z" fill="white"/>
<path d="M26.4981 70.9351L26.7675 71.1601L26.5947 71.5008L18.9057 73.8101L18.833 73.5443L19.1828 73.1792L26.4981 70.9351Z" fill="#B3B3B3"/>
<path d="M26.8359 71.1094L18.8737 73.6215L14.02 64.3667L21.8417 62.384L26.8359 71.1094Z" fill="#D0CDE1"/>
<path d="M26.2364 69.8541L25.8948 70.1078L22.1035 63.465L22.4954 63.2803L26.2364 69.8541Z" fill="#3F3D56"/>
<path d="M25.4525 70.2235L22.0843 71.2369L18.2607 64.4055L21.5929 63.6315L25.4525 70.2235Z" fill="#3F3D56"/>
<path d="M15.9641 65.1549L16.6614 64.9559C16.6614 64.9559 20.5505 64.5122 20.6072 65.7453C20.664 66.9784 16.1394 66.4063 16.1394 66.4063L15.5361 65.579L15.9641 65.1549Z" fill="#FBBEBE"/>
<path d="M19.3747 70.6987L20.3454 70.2967C20.3454 70.2967 23.2753 68.9711 22.4348 68.1074C21.5943 67.2437 19.0021 68.7436 19.0021 68.7436L18.5059 69.2184L19.3747 70.6987Z" fill="#FBBEBE"/>
<path d="M18.5096 68.7905C18.5096 68.7905 20.0901 70.3799 19.7304 70.7533C19.3708 71.1266 13.4737 76.0373 12.0118 74.466C10.55 72.8948 3.42768 65.006 6.19909 64.3294C8.97049 63.6529 9.70274 65.2346 9.70274 65.2346L13.3613 71.5509L18.5096 68.7905Z" fill="white"/>
<path d="M13.7774 63.9622L16.3735 64.8505L16.3311 66.7418L13.5854 66.4428L13.7774 63.9622Z" fill="white"/>
<path opacity="0.2" d="M16.1174 69.77L13.3203 71.4221L10.1245 66.4624L13.2094 70.548L16.1174 69.77Z" fill="black"/>
<path d="M6.2001 59.6036C8.54241 59.6036 10.4412 57.6875 10.4412 55.3239C10.4412 52.9603 8.54241 51.0442 6.2001 51.0442C3.8578 51.0442 1.95898 52.9603 1.95898 55.3239C1.95898 57.6875 3.8578 59.6036 6.2001 59.6036Z" fill="#2F2E41"/>
<path d="M29.1161 65.6434L26.1465 61.2597L27.4053 59.6873L30.491 64.1973L29.1161 65.6434Z" fill="#6C63FF"/>
<path d="M29.0322 67.4059L24.5112 60.7736L24.7342 60.5017L29.234 67.1497L29.0322 67.4059Z" fill="#E6E6E6"/>
<path d="M28.4497 68.0511L23.9287 61.4188L24.1517 61.147L28.6515 67.7951L28.4497 68.0511Z" fill="#E6E6E6"/>
<path d="M27.9536 68.5259L23.4326 61.8936L23.6556 61.6217L28.1554 68.2698L27.9536 68.5259Z" fill="#E6E6E6"/>
<path d="M8.07812 52.4668H9.39011C10.0544 52.4668 10.6915 52.7331 11.1612 53.2071C11.6309 53.6811 11.8948 54.3239 11.8948 54.9943H8.07812V52.4668Z" fill="#2F2E41"/>
<path d="M26.1509 50.8583L25.913 50.8405C25.9038 50.9652 25.8972 51.0908 25.8894 51.216L24.8218 51.1799L25.9416 53.2975L27.1994 51.2602L26.1278 51.224C26.1355 51.1021 26.1419 50.9799 26.1509 50.8583Z" fill="#3F3D56"/>
<path d="M32.4126 33.5972L32.6022 33.7433C32.8867 33.3674 33.1837 32.9921 33.4852 32.6278L33.3021 32.4735C32.9984 32.8404 32.6991 33.2185 32.4126 33.5972Z" fill="#3F3D56"/>
<path d="M34.2397 31.3905L34.4159 31.5528C34.7323 31.2031 35.0609 30.8558 35.3923 30.5204L35.2234 30.3505C34.8895 30.6883 34.5585 31.0382 34.2397 31.3905Z" fill="#3F3D56"/>
<path d="M36.2515 29.3551L36.4128 29.5324C36.7589 29.2117 37.1162 28.895 37.4749 28.5909L37.3215 28.4066C36.9602 28.7129 36.6001 29.0321 36.2515 29.3551Z" fill="#3F3D56"/>
<path d="M30.7842 35.9587L30.9858 36.0873C31.2365 35.687 31.4998 35.2866 31.7683 34.8972L31.5725 34.7596C31.302 35.152 31.0368 35.5554 30.7842 35.9587Z" fill="#3F3D56"/>
<path d="M38.4316 27.5066L38.5769 27.6975C38.9496 27.4087 39.333 27.125 39.7165 26.8542L39.5798 26.657C39.1934 26.9298 38.8071 27.2157 38.4316 27.5066Z" fill="#3F3D56"/>
<path d="M29.3687 38.4571L29.5808 38.5671C29.7957 38.1454 30.0229 37.7229 30.2561 37.3113L30.049 37.1918C29.8141 37.6064 29.5851 38.0321 29.3687 38.4571Z" fill="#3F3D56"/>
<path d="M27.0681 45.2326L26.8371 45.1726C26.7192 45.6345 26.6101 46.1054 26.5127 46.5725L26.7461 46.6221C26.8428 46.1586 26.9511 45.691 27.0681 45.2326Z" fill="#3F3D56"/>
<path d="M40.7632 25.8596L40.8912 26.0627C41.2866 25.8088 41.6931 25.5604 42.0994 25.3243L41.9804 25.1157C41.571 25.3536 41.1615 25.6038 40.7632 25.8596Z" fill="#3F3D56"/>
<path d="M26.4856 48.0246L26.2502 47.9856C26.1736 48.4555 26.1064 48.9343 26.0503 49.4088L26.2872 49.4373C26.3428 48.9664 26.4096 48.4911 26.4856 48.0246Z" fill="#3F3D56"/>
<path d="M28.1782 41.0737L28.3992 41.1644C28.576 40.7251 28.7653 40.2836 28.9615 39.8523L28.7448 39.7518C28.547 40.1864 28.3564 40.6312 28.1782 41.0737Z" fill="#3F3D56"/>
<path d="M27.2227 43.7887L27.4508 43.859C27.5884 43.4048 27.7379 42.9478 27.8952 42.5008L27.6704 42.4203C27.5119 42.8706 27.3613 43.3311 27.2227 43.7887Z" fill="#3F3D56"/>
<path d="M56.8998 21.0617C57.3674 21.0454 57.8436 21.0389 58.3146 21.0433L58.3167 20.8026C57.8424 20.7982 57.3625 20.8047 56.8916 20.8211L56.8998 21.0617Z" fill="#3F3D56"/>
<path d="M43.229 24.4272L43.3387 24.6408C43.7553 24.423 44.1817 24.212 44.6063 24.0135L44.506 23.7952C44.0783 23.9951 43.6487 24.2077 43.229 24.4272Z" fill="#3F3D56"/>
<path d="M62.5444 21.3619C63.0098 21.4284 63.4794 21.5062 63.9403 21.5932L63.9841 21.3566C63.5198 21.2689 63.0467 21.1905 62.5777 21.1235L62.5444 21.3619Z" fill="#3F3D56"/>
<path d="M65.3247 21.8868C65.7815 21.9945 66.2425 22.1141 66.6947 22.2424L66.7592 22.0107C66.3037 21.8814 65.8393 21.761 65.379 21.6525L65.3247 21.8868Z" fill="#3F3D56"/>
<path d="M68.0469 22.6593C68.4923 22.8075 68.9408 22.9681 69.3799 23.1365L69.4647 22.9116C69.0222 22.7418 68.5704 22.5801 68.1217 22.4307L68.0469 22.6593Z" fill="#3F3D56"/>
<path d="M59.7285 21.087C60.1983 21.1119 60.6729 21.1476 61.1394 21.1931L61.1624 20.9536C60.6925 20.9077 60.2142 20.8717 59.7411 20.8467L59.7285 21.087Z" fill="#3F3D56"/>
<path d="M54.0518 21.0464L54.0809 21.2853C54.5457 21.2276 55.0191 21.1795 55.4877 21.1423L55.469 20.9023C54.9968 20.9398 54.52 20.9883 54.0518 21.0464Z" fill="#3F3D56"/>
<path d="M48.4868 22.2506L48.5574 22.4805C49.0057 22.3405 49.4631 22.2087 49.9171 22.0889L49.8568 21.8561C49.3994 21.9767 48.9385 22.1095 48.4868 22.2506Z" fill="#3F3D56"/>
<path d="M45.8091 23.2212L45.8996 23.444C46.3333 23.2644 46.7764 23.0925 47.2164 22.9329L47.1358 22.7064C46.6924 22.8671 46.246 23.0403 45.8091 23.2212Z" fill="#3F3D56"/>
<path d="M51.2427 21.5235L51.2926 21.7589C51.7509 21.6597 52.2182 21.5695 52.6815 21.4908L52.6419 21.2534C52.1751 21.3328 51.7043 21.4236 51.2427 21.5235Z" fill="#3F3D56"/>
<path d="M72.9395 24.6248L71.6064 22.6368L71.1377 23.6104C71.0243 23.5593 70.9114 23.5071 70.7981 23.4576L70.7033 23.6785C70.8139 23.7269 70.9234 23.7775 71.0334 23.8271L70.5669 24.7961L72.9395 24.6248Z" fill="#3F3D56"/>
</g>
<defs>
<clipPath id="clip0_296_8524">
<rect width="108" height="88" fill="white"/>
</clipPath>
</defs>
</svg>
