<svg width="124" height="124" viewBox="0 0 124 124" fill="none" xmlns="http://www.w3.org/2000/svg">
<g filter="url(#filter0_d_65_2896)">
<path fill-rule="evenodd" clip-rule="evenodd" d="M74.8657 15.3153C69.8158 10.2648 63.7401 7.79482 57.523 8.01333C51.652 8.21967 45.963 10.8102 41.1496 15.3254C40.7695 15.682 40.2709 15.8895 39.7497 15.8895V15.8895C32.6081 15.8895 26.5655 18.4395 22.3238 22.9907C20.9264 24.49 19.7498 26.1789 18.8011 28.0227C14.9923 35.4252 11.6305 43.5393 9.08383 51.4651C8.4504 53.4365 8.08704 55.4597 8.0138 57.5058C7.79121 63.7235 10.2631 69.8001 15.325 74.8625V74.8625C15.6935 75.2311 15.8993 75.7303 15.9159 76.2512C16.1262 82.8444 18.3064 88.6997 22.3082 92.9992C26.5469 97.5532 32.5912 100.102 39.7497 100.102H39.7579C40.2725 100.102 40.7661 100.306 41.1299 100.67V100.67C46.193 105.734 52.2702 108.208 58.4882 107.986C64.3615 107.777 70.0465 105.177 74.8584 100.66C75.2344 100.307 75.7278 100.102 76.2434 100.102V100.102C83.4037 100.102 89.4499 97.5534 93.6903 92.9997C95.0859 91.501 96.26 89.8132 97.2065 87.9709C101.011 80.5659 104.371 72.452 106.917 64.5256C107.55 62.5538 107.913 60.5302 107.986 58.4838C108.208 52.2656 105.735 46.1884 100.674 41.1261V41.1261C100.307 40.7594 100.102 40.2628 100.086 39.7446C99.8763 33.1492 97.6947 27.2922 93.691 22.9919C89.4513 18.4381 83.4061 15.8895 76.2477 15.8895V15.8895C75.7304 15.8895 75.2314 15.6811 74.8657 15.3153V15.3153Z" fill="white"/>
<path fill-rule="evenodd" clip-rule="evenodd" d="M74.8657 15.3153C69.8158 10.2648 63.7401 7.79482 57.523 8.01333C51.652 8.21967 45.963 10.8102 41.1496 15.3254C40.7695 15.682 40.2709 15.8895 39.7497 15.8895V15.8895C32.6081 15.8895 26.5655 18.4395 22.3238 22.9907C20.9264 24.49 19.7498 26.1789 18.8011 28.0227C14.9923 35.4252 11.6305 43.5393 9.08383 51.4651C8.4504 53.4365 8.08704 55.4597 8.0138 57.5058C7.79121 63.7235 10.2631 69.8001 15.325 74.8625V74.8625C15.6935 75.2311 15.8993 75.7303 15.9159 76.2512C16.1262 82.8444 18.3064 88.6997 22.3082 92.9992C26.5469 97.5532 32.5912 100.102 39.7497 100.102H39.7579C40.2725 100.102 40.7661 100.306 41.1299 100.67V100.67C46.193 105.734 52.2702 108.208 58.4882 107.986C64.3615 107.777 70.0465 105.177 74.8584 100.66C75.2344 100.307 75.7278 100.102 76.2434 100.102V100.102C83.4037 100.102 89.4499 97.5534 93.6903 92.9997C95.0859 91.501 96.26 89.8132 97.2065 87.9709C101.011 80.5659 104.371 72.452 106.917 64.5256C107.55 62.5538 107.913 60.5302 107.986 58.4838C108.208 52.2656 105.735 46.1884 100.674 41.1261V41.1261C100.307 40.7594 100.102 40.2628 100.086 39.7446C99.8763 33.1492 97.6947 27.2922 93.691 22.9919C89.4513 18.4381 83.4061 15.8895 76.2477 15.8895V15.8895C75.7304 15.8895 75.2314 15.6811 74.8657 15.3153V15.3153Z" fill="url(#paint0_radial_65_2896)" fill-opacity="0.7"/>
</g>
<path fill-rule="evenodd" clip-rule="evenodd" d="M45.963 23.6887C49.6642 19.9871 53.8098 18.1476 57.7663 18.0086C61.692 17.8706 65.7432 19.3929 69.3542 23.0044L71.5735 25.224H74.7085C79.8346 25.224 83.7751 27.0137 86.4485 29.8852C89.1437 32.78 90.7687 37.0119 90.7687 42.25V44.4216L92.9853 46.6385C96.61 50.2636 98.131 54.3159 97.9912 58.2369C97.8503 62.1898 96.0073 66.3314 92.3039 70.0353L90.7687 71.5707V73.742C90.7687 78.9801 89.1437 83.2119 86.4482 86.1066C83.7744 88.9781 79.833 90.768 74.7047 90.768H71.5738L70.0384 92.3035C66.335 96.0074 62.194 97.8506 58.2414 97.9912C54.3206 98.1308 50.268 96.6091 46.6418 92.9824L44.4277 90.768H41.2891C36.1631 90.768 32.2237 88.9783 29.5513 86.1071C26.8571 83.2125 25.2328 78.9805 25.2328 73.742V71.5708L23.0134 69.351C19.3887 65.7259 17.8685 61.6746 18.0089 57.7544C18.1503 53.8023 19.9938 49.6611 23.6976 45.9569L25.2328 44.4215V42.25C25.2328 37.0151 26.8636 32.7827 29.563 29.8863C32.2414 27.0125 36.1823 25.224 41.2891 25.224H44.4279L45.963 23.6887Z" fill="#6C63FF"/>
<path fill-rule="evenodd" clip-rule="evenodd" d="M76.9807 45.2172C78.3398 46.5067 78.3398 48.5975 76.9807 49.8871L54.9574 70.7828C53.5985 72.0722 51.3953 72.0724 50.0361 70.7833L39.0199 60.3354C37.6604 59.0462 37.66 56.9554 39.0188 55.6655C40.3777 54.3757 42.5813 54.3753 43.9407 55.6646L52.496 63.7785L72.0588 45.2172C73.4179 43.9276 75.6215 43.9276 76.9807 45.2172Z" fill="white"/>
<defs>
<filter id="filter0_d_65_2896" x="0" y="0" width="124" height="124" filterUnits="userSpaceOnUse" color-interpolation-filters="sRGB">
<feFlood flood-opacity="0" result="BackgroundImageFix"/>
<feColorMatrix in="SourceAlpha" type="matrix" values="0 0 0 0 0 0 0 0 0 0 0 0 0 0 0 0 0 0 127 0" result="hardAlpha"/>
<feOffset dx="4" dy="4"/>
<feGaussianBlur stdDeviation="6"/>
<feColorMatrix type="matrix" values="0 0 0 0 0 0 0 0 0 0 0 0 0 0 0 0 0 0 0.06 0"/>
<feBlend mode="normal" in2="BackgroundImageFix" result="effect1_dropShadow_65_2896"/>
<feBlend mode="normal" in="SourceGraphic" in2="effect1_dropShadow_65_2896" result="shape"/>
</filter>
<radialGradient id="paint0_radial_65_2896" cx="0" cy="0" r="1" gradientUnits="userSpaceOnUse" gradientTransform="translate(39.9672 27.6721) rotate(55.9679) scale(76.159 76.159)">
<stop stop-color="white"/>
<stop offset="0.697917" stop-color="white" stop-opacity="0"/>
<stop offset="1" stop-color="white" stop-opacity="0"/>
</radialGradient>
</defs>
</svg>
