<svg width="30" height="30" viewBox="0 0 30 30" fill="none" xmlns="http://www.w3.org/2000/svg">
<rect x="0.5" y="0.5" width="29" height="29" rx="7.5" fill="white" stroke="#E2E2E2"/>
<path d="M22.1632 11.6538H17.0478C16.7482 11.6538 16.4998 11.4053 16.4998 11.1057C16.4998 10.8061 16.7482 10.5576 17.0478 10.5576H22.1632C22.4628 10.5576 22.7113 10.8061 22.7113 11.1057C22.7113 11.4053 22.4628 11.6538 22.1632 11.6538Z" fill="#242424"/>
<path d="M9.74039 11.6538H7.54808C7.24846 11.6538 7 11.4053 7 11.1057C7 10.8061 7.24846 10.5576 7.54808 10.5576H9.74039C10.04 10.5576 10.2885 10.8061 10.2885 11.1057C10.2885 11.4053 10.04 11.6538 9.74039 11.6538Z" fill="#242424"/>
<path d="M12.6629 14.2115C10.9529 14.2115 9.55713 12.8158 9.55713 11.1058C9.55713 9.39577 10.9529 8 12.6629 8C14.3729 8 15.7687 9.39577 15.7687 11.1058C15.7687 12.8158 14.3729 14.2115 12.6629 14.2115ZM12.6629 9.09615C11.5521 9.09615 10.6533 9.995 10.6533 11.1058C10.6533 12.2165 11.5521 13.1154 12.6629 13.1154C13.7737 13.1154 14.6725 12.2165 14.6725 11.1058C14.6725 9.995 13.7737 9.09615 12.6629 9.09615Z" fill="#242424"/>
<path d="M22.1629 19.6923H19.9706C19.6709 19.6923 19.4225 19.4439 19.4225 19.1443C19.4225 18.8447 19.6709 18.5962 19.9706 18.5962H22.1629C22.4625 18.5962 22.7109 18.8447 22.7109 19.1443C22.7109 19.4439 22.4625 19.6923 22.1629 19.6923Z" fill="#242424"/>
<path d="M12.6635 19.6923H7.54808C7.24846 19.6923 7 19.4439 7 19.1443C7 18.8447 7.24846 18.5962 7.54808 18.5962H12.6635C12.9631 18.5962 13.2115 18.8447 13.2115 19.1443C13.2115 19.4439 12.9631 19.6923 12.6635 19.6923Z" fill="#242424"/>
<path d="M17.0475 22.2501C15.3375 22.2501 13.9418 20.8543 13.9418 19.1443C13.9418 17.4343 15.3375 16.0386 17.0475 16.0386C18.7575 16.0386 20.1533 17.4343 20.1533 19.1443C20.1533 20.8543 18.7575 22.2501 17.0475 22.2501ZM17.0475 17.1347C15.9368 17.1347 15.0379 18.0336 15.0379 19.1443C15.0379 20.2551 15.9368 21.154 17.0475 21.154C18.1583 21.154 19.0572 20.2551 19.0572 19.1443C19.0572 18.0336 18.1583 17.1347 17.0475 17.1347Z" fill="#242424"/>
</svg>
