<svg width="48" height="48" viewBox="0 0 48 48" fill="none" xmlns="http://www.w3.org/2000/svg">
<rect x="0.5" y="0.5" width="47" height="47" rx="7.5" fill="white" stroke="#E2E2E2"/>
<path d="M32.3565 20.1214H26.3459C25.9939 20.1214 25.7019 19.8295 25.7019 19.4774C25.7019 19.1254 25.9939 18.8334 26.3459 18.8334H32.3565C32.7086 18.8334 33.0005 19.1254 33.0005 19.4774C33.0005 19.8295 32.7086 20.1214 32.3565 20.1214Z" fill="#242424"/>
<path d="M17.7588 20.1214H15.1829C14.8308 20.1214 14.5389 19.8295 14.5389 19.4774C14.5389 19.1254 14.8308 18.8334 15.1829 18.8334H17.7588C18.1109 18.8334 18.4028 19.1254 18.4028 19.4774C18.4028 19.8295 18.1109 20.1214 17.7588 20.1214Z" fill="#242424"/>
<path d="M21.1921 23.1268C19.1828 23.1268 17.5428 21.4867 17.5428 19.4775C17.5428 17.4682 19.1828 15.8282 21.1921 15.8282C23.2013 15.8282 24.8414 17.4682 24.8414 19.4775C24.8414 21.4867 23.2013 23.1268 21.1921 23.1268ZM21.1921 17.1161C19.8869 17.1161 18.8308 18.1723 18.8308 19.4775C18.8308 20.7826 19.8869 21.8388 21.1921 21.8388C22.4972 21.8388 23.5534 20.7826 23.5534 19.4775C23.5534 18.1723 22.4972 17.1161 21.1921 17.1161Z" fill="#242424"/>
<path d="M32.3553 29.5665H29.7793C29.4273 29.5665 29.1353 29.2746 29.1353 28.9225C29.1353 28.5705 29.4273 28.2785 29.7793 28.2785H32.3553C32.7074 28.2785 32.9993 28.5705 32.9993 28.9225C32.9993 29.2746 32.7074 29.5665 32.3553 29.5665Z" fill="#242424"/>
<path d="M21.1935 29.5665H15.1829C14.8308 29.5665 14.5389 29.2746 14.5389 28.9225C14.5389 28.5705 14.8308 28.2785 15.1829 28.2785H21.1935C21.5455 28.2785 21.8375 28.5705 21.8375 28.9225C21.8375 29.2746 21.5455 29.5665 21.1935 29.5665Z" fill="#242424"/>
<path d="M26.3445 32.5721C24.3352 32.5721 22.6952 30.9321 22.6952 28.9228C22.6952 26.9135 24.3352 25.2735 26.3445 25.2735C28.3537 25.2735 29.9938 26.9135 29.9938 28.9228C29.9938 30.9321 28.3537 32.5721 26.3445 32.5721ZM26.3445 26.5615C25.0393 26.5615 23.9832 27.6176 23.9832 28.9228C23.9832 30.228 25.0393 31.2841 26.3445 31.2841C27.6496 31.2841 28.7058 30.228 28.7058 28.9228C28.7058 27.6176 27.6496 26.5615 26.3445 26.5615Z" fill="#242424"/>
</svg>
