<svg width="30" height="30" viewBox="0 0 30 30" fill="none" xmlns="http://www.w3.org/2000/svg">
<rect x="0.5" y="0.5" width="29" height="29" rx="7.5" fill="white" stroke="#E2E2E2"/>
<path d="M14.1666 15.0003C14.1666 14.5337 14.5416 14.167 14.9999 14.167C15.4583 14.167 15.8333 14.542 15.8333 15.0003C15.8333 15.4587 15.4583 15.8337 14.9999 15.8337C14.5416 15.8337 14.1666 15.467 14.1666 15.0003Z" fill="#242424"/>
<path d="M14.1666 18.3333C14.1666 17.8667 14.5416 17.5 14.9999 17.5C15.4583 17.5 15.8333 17.875 15.8333 18.3333C15.8333 18.7917 15.4583 19.1667 14.9999 19.1667C14.5416 19.1667 14.1666 18.8 14.1666 18.3333Z" fill="#242424"/>
<path d="M14.1666 11.6668C14.1666 11.2002 14.5416 10.8335 14.9999 10.8335C15.4583 10.8335 15.8333 11.2085 15.8333 11.6668C15.8333 12.1252 15.4583 12.5002 14.9999 12.5002C14.5416 12.5002 14.1666 12.1335 14.1666 11.6668Z" fill="#242424"/>
</svg>
