<svg width="21" height="20" viewBox="0 0 21 20" fill="none" xmlns="http://www.w3.org/2000/svg">
<path d="M13.4349 18.9582H8.44824C3.93527 18.9582 2.00708 17.0248 2.00708 12.4998V7.49984C2.00708 2.97484 3.93527 1.0415 8.44824 1.0415H13.4349C17.9479 1.0415 19.8761 2.97484 19.8761 7.49984V12.4998C19.8761 17.0248 17.9479 18.9582 13.4349 18.9582ZM8.44824 2.2915C4.61679 2.2915 3.25376 3.65817 3.25376 7.49984V12.4998C3.25376 16.3415 4.61679 17.7082 8.44824 17.7082H13.4349C17.2664 17.7082 18.6294 16.3415 18.6294 12.4998V7.49984C18.6294 3.65817 17.2664 2.2915 13.4349 2.2915H8.44824Z" fill="#6C63FF"/>
<path d="M8.44841 8.95833C7.18512 8.95833 6.16284 7.93333 6.16284 6.66667C6.16284 5.4 7.18512 4.375 8.44841 4.375C9.71171 4.375 10.734 5.4 10.734 6.66667C10.734 7.93333 9.71171 8.95833 8.44841 8.95833ZM8.44841 5.625C7.87494 5.625 7.40952 6.09167 7.40952 6.66667C7.40952 7.24167 7.87494 7.70833 8.44841 7.70833C9.02188 7.70833 9.48731 7.24167 9.48731 6.66667C9.48731 6.09167 9.02188 5.625 8.44841 5.625Z" fill="#6C63FF"/>
<path d="M3.18743 16.4168C2.98796 16.4168 2.78849 16.3168 2.67214 16.1418C2.48098 15.8585 2.55578 15.4668 2.84667 15.2751L6.94408 12.5168C7.84168 11.9085 9.08005 11.9835 9.89454 12.6751L10.1688 12.9168C10.5844 13.2751 11.2908 13.2751 11.6981 12.9168L15.1555 9.9418C16.0365 9.18346 17.4245 9.18346 18.3138 9.9418L19.6685 11.1085C19.9261 11.3335 19.9594 11.7251 19.735 11.9918C19.5106 12.2501 19.1199 12.2835 18.854 12.0585L17.4993 10.8918C17.0837 10.5335 16.3773 10.5335 15.9617 10.8918L12.5043 13.8668C11.6233 14.6251 10.2353 14.6251 9.34601 13.8668L9.07174 13.6251C8.68942 13.3001 8.05777 13.2668 7.6339 13.5585L3.5365 16.3168C3.42845 16.3835 3.30378 16.4168 3.18743 16.4168Z" fill="#6C63FF"/>
</svg>
