<svg width="35" height="35" viewBox="0 0 35 35" fill="none" xmlns="http://www.w3.org/2000/svg">
<path opacity="0.4" d="M17.5 35C27.165 35 35 27.165 35 17.5C35 7.83502 27.165 0 17.5 0C7.83502 0 0 7.83502 0 17.5C0 27.165 7.83502 35 17.5 35Z" fill="#28B446"/>
<path d="M23.2415 16.2753H20.2665V9.34531C20.2665 7.73531 19.3915 7.40281 18.324 8.61031L17.554 9.48531L11.044 16.8878C10.1515 17.9028 10.519 18.7253 11.8665 18.7253H14.8415V25.6553C14.8415 27.2653 15.7165 27.5978 16.784 26.3903L17.554 25.5153L24.064 18.1128C24.9565 17.0978 24.589 16.2753 23.2415 16.2753Z" fill="#28B446"/>
</svg>
