<svg width="19" height="18" viewBox="0 0 19 18" fill="none" xmlns="http://www.w3.org/2000/svg">
<path d="M18.3567 5.12148H12.3461C11.9941 5.12148 11.7021 4.82954 11.7021 4.47749C11.7021 4.12544 11.9941 3.8335 12.3461 3.8335H18.3567C18.7088 3.8335 19.0007 4.12544 19.0007 4.47749C19.0007 4.82954 18.7088 5.12148 18.3567 5.12148Z" fill="#242424"/>
<path d="M3.75903 5.12148H1.18306C0.831006 5.12148 0.539062 4.82954 0.539062 4.47749C0.539062 4.12544 0.831006 3.8335 1.18306 3.8335H3.75903C4.11108 3.8335 4.40302 4.12544 4.40302 4.47749C4.40302 4.82954 4.11108 5.12148 3.75903 5.12148Z" fill="#242424"/>
<path d="M7.19227 8.12672C5.18301 8.12672 3.54297 6.48668 3.54297 4.47742C3.54297 2.46816 5.18301 0.828125 7.19227 0.828125C9.20153 0.828125 10.8416 2.46816 10.8416 4.47742C10.8416 6.48668 9.20153 8.12672 7.19227 8.12672ZM7.19227 2.11611C5.88711 2.11611 4.83096 3.17226 4.83096 4.47742C4.83096 5.78258 5.88711 6.83873 7.19227 6.83873C8.49743 6.83873 9.55358 5.78258 9.55358 4.47742C9.55358 3.17226 8.49743 2.11611 7.19227 2.11611Z" fill="#242424"/>
<path d="M18.3557 14.5666H15.7797C15.4277 14.5666 15.1357 14.2746 15.1357 13.9226C15.1357 13.5705 15.4277 13.2786 15.7797 13.2786H18.3557C18.7078 13.2786 18.9997 13.5705 18.9997 13.9226C18.9997 14.2746 18.7078 14.5666 18.3557 14.5666Z" fill="#242424"/>
<path d="M7.19366 14.5666H1.18306C0.831006 14.5666 0.539062 14.2746 0.539062 13.9226C0.539062 13.5705 0.831006 13.2786 1.18306 13.2786H7.19366C7.54571 13.2786 7.83766 13.5705 7.83766 13.9226C7.83766 14.2746 7.54571 14.5666 7.19366 14.5666Z" fill="#242424"/>
<path d="M12.3446 17.572C10.3353 17.572 8.69531 15.932 8.69531 13.9227C8.69531 11.9135 10.3353 10.2734 12.3446 10.2734C14.3539 10.2734 15.9939 11.9135 15.9939 13.9227C15.9939 15.932 14.3539 17.572 12.3446 17.572ZM12.3446 11.5614C11.0394 11.5614 9.9833 12.6176 9.9833 13.9227C9.9833 15.2279 11.0394 16.284 12.3446 16.284C13.6498 16.284 14.7059 15.2279 14.7059 13.9227C14.7059 12.6176 13.6498 11.5614 12.3446 11.5614Z" fill="#242424"/>
</svg>
