<svg width="5" height="6" viewBox="0 0 5 6" fill="none" xmlns="http://www.w3.org/2000/svg">
<path d="M1.94453 1.24902C2.18073 0.522065 3.20917 0.522065 3.44537 1.24902C3.55101 1.57412 3.85396 1.79423 4.1958 1.79423C4.96016 1.79423 5.27797 2.77234 4.65958 3.22162C4.38303 3.42255 4.26732 3.77869 4.37295 4.1038C4.60915 4.83075 3.77712 5.43525 3.15874 4.98597C2.88219 4.78505 2.50771 4.78505 2.23116 4.98597C1.61278 5.43525 0.780753 4.83075 1.01695 4.1038C1.12259 3.77869 1.00687 3.42255 0.730318 3.22162C0.111936 2.77234 0.429742 1.79423 1.19411 1.79423C1.53594 1.79423 1.8389 1.57412 1.94453 1.24902Z" fill="#D9D9D9"/>
</svg>
