<svg width="43" height="64" viewBox="0 0 43 64" fill="none" xmlns="http://www.w3.org/2000/svg">
<path d="M39.6083 17.7493H39.2111V6.85493C39.2111 6.0269 39.0482 5.20697 38.7318 4.44197C38.4153 3.67697 37.9515 2.98187 37.3668 2.39636C36.782 1.81086 36.0879 1.3464 35.3239 1.02953C34.5599 0.712655 33.741 0.549561 32.9141 0.549561L9.86344 0.549561C8.19337 0.549557 6.5917 1.21387 5.41078 2.39635C4.22985 3.57883 3.56641 5.18262 3.56641 6.85491L3.56641 66.6223C3.56641 68.2945 4.22984 69.8983 5.41076 71.0808C6.59168 72.2633 8.19335 72.9276 9.86342 72.9276H32.9141C34.5842 72.9276 36.1858 72.2633 37.3667 71.0808C38.5477 69.8984 39.2111 68.2946 39.2111 66.6223V25.5041H39.6083L39.6083 17.7493Z" fill="white"/>
<path d="M37.8706 6.89918V66.5786C37.8706 67.8275 37.3751 69.0252 36.4932 69.9083C35.6112 70.7914 34.4151 71.2875 33.1678 71.2876H10.0066C8.75935 71.2875 7.5632 70.7914 6.68126 69.9083C5.79933 69.0252 5.30386 67.8275 5.30383 66.5786L5.30383 6.89918C5.30386 5.65028 5.79933 4.45255 6.68127 3.56944C7.5632 2.68634 8.75935 2.19021 10.0066 2.19019H12.8163C12.6783 2.52991 12.6257 2.89839 12.6632 3.26324C12.7008 3.62808 12.8273 3.9781 13.0316 4.2825C13.2359 4.5869 13.5118 4.83635 13.835 5.00893C14.1583 5.1815 14.5189 5.27189 14.8851 5.27216H28.0906C28.4569 5.27189 28.8175 5.18149 29.1407 5.00892C29.4639 4.83635 29.7398 4.58689 29.9442 4.28249C30.1485 3.97809 30.275 3.62808 30.3125 3.26323C30.3501 2.89839 30.2975 2.52991 30.1594 2.19019H33.1678C34.4151 2.19021 35.6112 2.68634 36.4932 3.56944C37.3751 4.45255 37.8706 5.65028 37.8706 6.89918Z" fill="#99FF99"/>
<path d="M11.2413 7.72534C10.824 7.72534 10.4107 7.80765 10.0251 7.96758C9.63948 8.12751 9.28912 8.36193 8.994 8.65744C8.69887 8.95296 8.46476 9.30378 8.30504 9.68989C8.14532 10.076 8.06311 10.4898 8.06311 10.9078C8.06311 11.3257 8.14531 11.7395 8.30503 12.1256C8.46475 12.5117 8.69886 12.8626 8.99398 13.1581C9.2891 13.4536 9.63947 13.688 10.0251 13.8479C10.4107 14.0079 10.8239 14.0902 11.2413 14.0902C12.0842 14.0902 12.8926 13.7549 13.4887 13.1581C14.0847 12.5613 14.4195 11.7518 14.4195 10.9078C14.4195 10.0637 14.0847 9.25427 13.4887 8.65745C12.8926 8.06063 12.0843 7.72534 11.2413 7.72534Z" fill="#F1F9F1"/>
<path d="M34.3168 13.5932H17.6312C17.4205 13.5932 17.2184 13.5093 17.0694 13.3601C16.9204 13.2109 16.8367 13.0086 16.8367 12.7976C16.8367 12.5866 16.9204 12.3842 17.0694 12.235C17.2184 12.0858 17.4205 12.002 17.6312 12.002H34.3168C34.5276 12.002 34.7297 12.0858 34.8787 12.235C35.0277 12.3842 35.1114 12.5866 35.1114 12.7976C35.1114 13.0086 35.0277 13.2109 34.8787 13.3601C34.7297 13.5093 34.5276 13.5932 34.3168 13.5932Z" fill="#F1F9F1"/>
<path d="M22.8953 10.2123H17.6313C17.4206 10.2123 17.2185 10.1285 17.0695 9.97928C16.9205 9.83007 16.8368 9.62771 16.8368 9.4167C16.8368 9.20569 16.9205 9.00333 17.0695 8.85412C17.2185 8.70492 17.4206 8.62109 17.6313 8.62109H22.8953C23.106 8.62109 23.3081 8.70492 23.4571 8.85412C23.6061 9.00333 23.6898 9.20569 23.6898 9.4167C23.6898 9.62771 23.6061 9.83007 23.4571 9.97928C23.3081 10.1285 23.106 10.2123 22.8953 10.2123Z" fill="#F1F9F1"/>
<path d="M11.2412 21.0515C10.8238 21.0515 10.4106 21.1338 10.025 21.2938C9.63936 21.4537 9.289 21.6881 8.99388 21.9836C8.69875 22.2791 8.46464 22.63 8.30492 23.0161C8.1452 23.4022 8.06299 23.816 8.06299 24.2339C8.06299 24.6518 8.14519 25.0657 8.30491 25.4518C8.46463 25.8379 8.69873 26.1887 8.99386 26.4842C9.28898 26.7798 9.63934 27.0142 10.0249 27.1741C10.4105 27.334 10.8238 27.4164 11.2412 27.4164C12.0841 27.4164 12.8925 27.0811 13.4885 26.4843C14.0846 25.8874 14.4194 25.078 14.4194 24.2339C14.4194 23.3899 14.0846 22.5804 13.4885 21.9836C12.8925 21.3868 12.0841 21.0515 11.2412 21.0515Z" fill="#F1F9F1"/>
<path d="M34.317 26.9191H17.6313C17.4206 26.9191 17.2185 26.8353 17.0695 26.6861C16.9205 26.5369 16.8368 26.3345 16.8368 26.1235C16.8368 25.9125 16.9205 25.7101 17.0695 25.5609C17.2185 25.4117 17.4206 25.3279 17.6313 25.3279H34.317C34.5277 25.3279 34.7298 25.4117 34.8788 25.5609C35.0278 25.7101 35.1115 25.9125 35.1115 26.1235C35.1115 26.3345 35.0278 26.5369 34.8788 26.6861C34.7298 26.8353 34.5277 26.9191 34.317 26.9191Z" fill="#F1F9F1"/>
<path d="M22.8951 23.5377H17.6312C17.4205 23.5377 17.2184 23.4539 17.0694 23.3047C16.9204 23.1555 16.8367 22.9531 16.8367 22.7421C16.8367 22.5311 16.9204 22.3288 17.0694 22.1796C17.2184 22.0304 17.4205 21.9465 17.6312 21.9465H22.8951C23.1059 21.9465 23.308 22.0304 23.457 22.1796C23.606 22.3288 23.6897 22.5311 23.6897 22.7421C23.6897 22.9531 23.606 23.1555 23.457 23.3047C23.308 23.4539 23.1059 23.5377 22.8951 23.5377Z" fill="#F1F9F1"/>
<path d="M11.2413 47.7041C10.3984 47.7041 9.59003 48.0394 8.994 48.6362C8.39796 49.233 8.06311 50.0425 8.06311 50.8865C8.06311 51.7305 8.39795 52.54 8.99398 53.1368C9.59001 53.7336 10.3984 54.0689 11.2413 54.0689C12.0842 54.0689 12.8926 53.7337 13.4887 53.1368C14.0847 52.54 14.4195 51.7306 14.4195 50.8865C14.4195 50.0425 14.0847 49.233 13.4887 48.6362C12.8926 48.0394 12.0843 47.7041 11.2413 47.7041Z" fill="#F1F9F1"/>
<path d="M34.3168 53.5727H17.6312C17.4205 53.5727 17.2184 53.4888 17.0694 53.3396C16.9204 53.1904 16.8367 52.9881 16.8367 52.7771C16.8367 52.566 16.9204 52.3637 17.0694 52.2145C17.2184 52.0653 17.4205 51.9814 17.6312 51.9814H34.3168C34.5276 51.9814 34.7297 52.0653 34.8787 52.2145C35.0277 52.3637 35.1114 52.566 35.1114 52.7771C35.1114 52.9881 35.0277 53.1904 34.8787 53.3396C34.7297 53.4888 34.5276 53.5727 34.3168 53.5727Z" fill="#F2F2F2"/>
<path d="M22.8953 50.1908H17.6313C17.4206 50.1908 17.2185 50.107 17.0695 49.9578C16.9205 49.8086 16.8368 49.6062 16.8368 49.3952C16.8368 49.1842 16.9205 48.9818 17.0695 48.8326C17.2185 48.6834 17.4206 48.5996 17.6313 48.5996H22.8953C23.106 48.5996 23.3081 48.6834 23.4571 48.8326C23.6061 48.9818 23.6898 49.1842 23.6898 49.3952C23.6898 49.6062 23.6061 49.8086 23.4571 49.9578C23.3081 50.107 23.106 50.1908 22.8953 50.1908Z" fill="#F1F9F1"/>
<path d="M11.2413 61.0308C10.824 61.0308 10.4107 61.1131 10.0251 61.273C9.63948 61.4329 9.28912 61.6673 8.994 61.9629C8.69887 62.2584 8.46476 62.6092 8.30504 62.9953C8.14532 63.3814 8.06311 63.7953 8.06311 64.2132C8.06311 64.6311 8.14531 65.0449 8.30503 65.431C8.46475 65.8171 8.69886 66.168 8.99398 66.4635C9.2891 66.759 9.63947 66.9934 10.0251 67.1534C10.4107 67.3133 10.8239 67.3956 11.2413 67.3956C12.0842 67.3956 12.8926 67.0603 13.4887 66.4635C14.0847 65.8667 14.4195 65.0572 14.4195 64.2132C14.4195 63.3692 14.0847 62.5597 13.4887 61.9629C12.8926 61.366 12.0843 61.0308 11.2413 61.0308Z" fill="#F2F2F2"/>
<path d="M22.895 63.5177H17.6311C17.4204 63.5177 17.2183 63.4339 17.0693 63.2847C16.9203 63.1355 16.8365 62.9331 16.8365 62.7221C16.8365 62.5111 16.9203 62.3087 17.0693 62.1595C17.2183 62.0103 17.4204 61.9265 17.6311 61.9265H22.895C23.1057 61.9265 23.3078 62.0103 23.4569 62.1595C23.6059 62.3087 23.6896 62.5111 23.6896 62.7221C23.6896 62.9331 23.6059 63.1355 23.4569 63.2847C23.3078 63.4339 23.1057 63.5177 22.895 63.5177Z" fill="#F2F2F2"/>
<path d="M40.756 45.218H2.4188C1.98432 45.2175 1.56778 45.0445 1.26055 44.7369C0.953333 44.4292 0.78052 44.0121 0.780029 43.5771L0.780029 31.2452C0.78052 30.8101 0.953333 30.393 1.26055 30.0854C1.56778 29.7778 1.98432 29.6047 2.4188 29.6042H40.756C41.1905 29.6047 41.607 29.7778 41.9142 30.0854C42.2215 30.393 42.3943 30.8101 42.3948 31.2452V43.5771C42.3943 44.0121 42.2215 44.4292 41.9142 44.7369C41.607 45.0445 41.1905 45.2175 40.756 45.218Z" fill="#B5FFB5"/>
<path d="M11.2412 34.2295C10.3983 34.2295 9.58991 34.5648 8.99388 35.1616C8.39784 35.7584 8.06299 36.5679 8.06299 37.4119C8.06299 38.2559 8.39783 39.0654 8.99386 39.6622C9.58989 40.259 10.3983 40.5943 11.2412 40.5943C12.0841 40.5943 12.8925 40.259 13.4885 39.6622C14.0846 39.0654 14.4194 38.2559 14.4194 37.4119C14.4194 36.5679 14.0846 35.7584 13.4885 35.1616C12.8925 34.5648 12.0841 34.2295 11.2412 34.2295Z" fill="white"/>
<path d="M34.3168 40.0966H17.6312C17.4205 40.0966 17.2184 40.0128 17.0694 39.8636C16.9204 39.7144 16.8367 39.512 16.8367 39.301C16.8367 39.09 16.9204 38.8876 17.0694 38.7384C17.2184 38.5892 17.4205 38.5054 17.6312 38.5054H34.3168C34.5276 38.5054 34.7297 38.5892 34.8787 38.7384C35.0277 38.8876 35.1114 39.09 35.1114 39.301C35.1114 39.512 35.0277 39.7144 34.8787 39.8636C34.7297 40.0128 34.5276 40.0966 34.3168 40.0966Z" fill="white"/>
<path d="M22.8951 36.7152H17.6312C17.4205 36.7152 17.2184 36.6314 17.0694 36.4822C16.9204 36.333 16.8367 36.1306 16.8367 35.9196C16.8367 35.7086 16.9204 35.5063 17.0694 35.3571C17.2184 35.2078 17.4205 35.124 17.6312 35.124H22.8951C23.1059 35.124 23.308 35.2078 23.457 35.3571C23.606 35.5063 23.6897 35.7086 23.6897 35.9196C23.6897 36.1306 23.606 36.333 23.457 36.4822C23.308 36.6314 23.1059 36.7152 22.8951 36.7152Z" fill="white"/>
<path d="M40.756 45.218H2.4188C1.98432 45.2175 1.56778 45.0445 1.26055 44.7369C0.953333 44.4292 0.78052 44.0121 0.780029 43.5771L0.780029 31.2452C0.78052 30.8101 0.953333 30.393 1.26055 30.0854C1.56778 29.7778 1.98432 29.6047 2.4188 29.6042H40.756C41.1905 29.6047 41.607 29.7778 41.9142 30.0854C42.2215 30.393 42.3943 30.8101 42.3948 31.2452V43.5771C42.3943 44.0121 42.2215 44.4292 41.9142 44.7369C41.607 45.0445 41.1905 45.2175 40.756 45.218ZM2.4188 29.7037C2.01065 29.7042 1.61935 29.8667 1.33075 30.1557C1.04215 30.4447 0.879809 30.8365 0.879348 31.2452L0.879348 43.5771C0.879809 43.9858 1.04215 44.3776 1.33075 44.6666C1.61935 44.9556 2.01065 45.1181 2.4188 45.1186H40.756C41.1641 45.1181 41.5554 44.9556 41.844 44.6666C42.1326 44.3776 42.295 43.9858 42.2954 43.5771V31.2452C42.295 30.8365 42.1326 30.4447 41.844 30.1557C41.5554 29.8667 41.1641 29.7042 40.756 29.7037H2.4188Z" fill="#D0EAD0"/>
<path d="M10.9395 38.7331C10.8558 38.7332 10.7744 38.7061 10.7075 38.6559L10.7033 38.6528L9.8293 37.9833C9.74766 37.9205 9.69425 37.8278 9.68081 37.7256C9.66738 37.6234 9.69501 37.52 9.75765 37.4382C9.82029 37.3564 9.9128 37.3028 10.0149 37.2893C10.1169 37.2758 10.2202 37.3033 10.3019 37.366L10.868 37.8007L12.2058 36.0531C12.2368 36.0126 12.2755 35.9786 12.3197 35.953C12.3638 35.9275 12.4125 35.9109 12.4631 35.9042C12.5136 35.8975 12.565 35.9009 12.6142 35.9141C12.6635 35.9273 12.7097 35.9501 12.7501 35.9811L12.7502 35.9812L12.7419 35.9927L12.7505 35.9812C12.8321 36.044 12.8855 36.1367 12.899 36.2389C12.9124 36.3411 12.8849 36.4445 12.8223 36.5264L11.2488 38.581C11.2124 38.6283 11.1656 38.6666 11.112 38.6929C11.0584 38.7192 10.9995 38.7328 10.9398 38.7326L10.9395 38.7331Z" fill="#0DAA0D"/>
</svg>
