<svg width="106" height="70" viewBox="0 0 106 70" fill="none" xmlns="http://www.w3.org/2000/svg">
<g opacity="0.7">
<path d="M32.6287 37.1275L5.33518 37.1275C5.16689 37.1273 5.00556 37.0484 4.88656 36.9081C4.76757 36.7678 4.70063 36.5777 4.70044 36.3793L4.70044 16.476C4.70063 16.2777 4.76757 16.0875 4.88656 15.9472C5.00556 15.8069 5.16689 15.728 5.33518 15.7278L32.6287 15.7278C32.797 15.728 32.9583 15.8069 33.0773 15.9472C33.1963 16.0875 33.2632 16.2777 33.2634 16.476L33.2634 36.3793C33.2632 36.5777 33.1963 36.7678 33.0773 36.9081C32.9583 37.0484 32.797 37.1273 32.6287 37.1275ZM5.33518 16.0271C5.2342 16.0272 5.1374 16.0746 5.066 16.1587C4.99461 16.2429 4.95444 16.357 4.95433 16.476L4.95433 36.3793C4.95444 36.4983 4.99461 36.6124 5.066 36.6966C5.1374 36.7808 5.2342 36.8281 5.33518 36.8282L32.6287 36.8282C32.7296 36.8281 32.8264 36.7808 32.8978 36.6966C32.9692 36.6124 33.0094 36.4983 33.0095 36.3793L33.0095 16.476C33.0094 16.357 32.9692 16.2429 32.8978 16.1587C32.8264 16.0746 32.7296 16.0272 32.6287 16.0271L5.33518 16.0271Z" fill="#3F3D56"/>
<path d="M32.6287 37.1275L5.33518 37.1275C5.16689 37.1273 5.00556 37.0484 4.88656 36.9081C4.76757 36.7678 4.70063 36.5777 4.70044 36.3793L4.70044 16.476C4.70063 16.2777 4.76757 16.0875 4.88656 15.9472C5.00556 15.8069 5.16689 15.728 5.33518 15.7278L32.6287 15.7278C32.797 15.728 32.9583 15.8069 33.0773 15.9472C33.1963 16.0875 33.2632 16.2777 33.2634 16.476L33.2634 36.3793C33.2632 36.5777 33.1963 36.7678 33.0773 36.9081C32.9583 37.0484 32.797 37.1273 32.6287 37.1275Z" fill="#FBC476"/>
<path d="M27.2336 22.3749L10.7306 22.3749C10.5791 22.3749 10.4338 22.304 10.3266 22.1777C10.2195 22.0514 10.1593 21.8801 10.1593 21.7015C10.1593 21.5229 10.2195 21.3516 10.3266 21.2253C10.4338 21.099 10.5791 21.0281 10.7306 21.0281L27.2336 21.0281C27.3851 21.0281 27.5304 21.099 27.6376 21.2253C27.7447 21.3516 27.8049 21.5229 27.8049 21.7015C27.8049 21.8801 27.7447 22.0514 27.6376 22.1777C27.5304 22.304 27.3851 22.3749 27.2336 22.3749Z" fill="#FFF7EB"/>
<path d="M27.2336 27.0146L10.7306 27.0146C10.5791 27.0146 10.4338 26.9436 10.3266 26.8173C10.2195 26.691 10.1593 26.5197 10.1593 26.3411C10.1593 26.1625 10.2195 25.9913 10.3266 25.865C10.4338 25.7387 10.5791 25.6677 10.7306 25.6677L27.2336 25.6677C27.3851 25.6677 27.5304 25.7387 27.6376 25.865C27.7447 25.9913 27.8049 26.1625 27.8049 26.3411C27.8049 26.5197 27.7447 26.691 27.6376 26.8173C27.5304 26.9436 27.3851 27.0146 27.2336 27.0146Z" fill="#FFF7EB"/>
<path d="M25.7632 34.3706C26.8907 34.3706 27.8047 33.2931 27.8047 31.964C27.8047 30.6348 26.8907 29.5574 25.7632 29.5574C24.6357 29.5574 23.7217 30.6348 23.7217 31.964C23.7217 33.2931 24.6357 34.3706 25.7632 34.3706Z" fill="#FFF7EB"/>
<path d="M64.3223 45.1873L37.0288 45.1873C36.8605 45.1871 36.6992 45.1082 36.5802 44.9679C36.4612 44.8277 36.3942 44.6375 36.394 44.4391L36.394 24.5358C36.3942 24.3375 36.4612 24.1473 36.5802 24.007C36.6992 23.8667 36.8605 23.7878 37.0288 23.7876L64.3223 23.7876C64.4906 23.7878 64.6519 23.8667 64.7709 24.007C64.8899 24.1473 64.9568 24.3375 64.957 24.5358L64.957 44.4391C64.9568 44.6375 64.8899 44.8277 64.7709 44.9679C64.6519 45.1082 64.4906 45.1871 64.3223 45.1873ZM37.0288 24.0869C36.9278 24.087 36.831 24.1344 36.7596 24.2185C36.6882 24.3027 36.648 24.4168 36.6479 24.5358L36.6479 44.4391C36.648 44.5581 36.6882 44.6722 36.7596 44.7564C36.831 44.8406 36.9278 44.8879 37.0288 44.888L64.3223 44.888C64.4232 44.8879 64.5201 44.8406 64.5915 44.7564C64.6628 44.6722 64.703 44.5581 64.7031 44.4391L64.7031 24.5358C64.703 24.4168 64.6628 24.3027 64.5915 24.2185C64.5201 24.1344 64.4232 24.087 64.3223 24.0869L37.0288 24.0869Z" fill="#3F3D56"/>
<path d="M64.3223 45.1873L37.0288 45.1873C36.8605 45.1871 36.6992 45.1082 36.5802 44.9679C36.4612 44.8277 36.3942 44.6375 36.394 44.4391L36.394 24.5358C36.3942 24.3375 36.4612 24.1473 36.5802 24.007C36.6992 23.8667 36.8605 23.7878 37.0288 23.7876L64.3223 23.7876C64.4906 23.7878 64.6519 23.8667 64.7709 24.007C64.8899 24.1473 64.9568 24.3375 64.957 24.5358L64.957 44.4391C64.9568 44.6375 64.8899 44.8277 64.7709 44.9679C64.6519 45.1082 64.4906 45.1871 64.3223 45.1873Z" fill="#FBC476"/>
<path d="M58.927 30.4345L42.4239 30.4345C42.2724 30.4345 42.1271 30.3635 42.02 30.2372C41.9128 30.111 41.8527 29.9397 41.8527 29.7611C41.8527 29.5825 41.9128 29.4112 42.02 29.2849C42.1271 29.1586 42.2724 29.0876 42.4239 29.0876L58.927 29.0876C59.0785 29.0876 59.2238 29.1586 59.3309 29.2849C59.438 29.4112 59.4982 29.5825 59.4982 29.7611C59.4982 29.9397 59.438 30.111 59.3309 30.2372C59.2238 30.3635 59.0785 30.4345 58.927 30.4345Z" fill="#FFF7EB"/>
<path d="M58.927 35.0744L42.4239 35.0744C42.2724 35.0744 42.1271 35.0034 42.02 34.8771C41.9128 34.7508 41.8527 34.5796 41.8527 34.401C41.8527 34.2224 41.9128 34.0511 42.02 33.9248C42.1271 33.7985 42.2724 33.7275 42.4239 33.7275L58.927 33.7275C59.0785 33.7275 59.2238 33.7985 59.3309 33.9248C59.438 34.0511 59.4982 34.2224 59.4982 34.401C59.4982 34.5796 59.438 34.7508 59.3309 34.8771C59.2238 35.0034 59.0785 35.0744 58.927 35.0744Z" fill="#FFF7EB"/>
<path d="M57.4567 42.4289C58.5842 42.4289 59.4982 41.3515 59.4982 40.0223C59.4982 38.6932 58.5842 37.6157 57.4567 37.6157C56.3292 37.6157 55.4152 38.6932 55.4152 40.0223C55.4152 41.3515 56.3292 42.4289 57.4567 42.4289Z" fill="#FFF7EB"/>
<path d="M65.537 72.0274L37.0428 72.0274C36.8671 72.0272 36.6987 71.9448 36.5744 71.7984C36.4502 71.6519 36.3803 71.4534 36.3801 71.2463L36.3801 50.4674C36.3803 50.2603 36.4502 50.0618 36.5744 49.9153C36.6987 49.7689 36.8671 49.6865 37.0428 49.6863L65.537 49.6863C65.7127 49.6865 65.8811 49.7689 66.0053 49.9153C66.1296 50.0618 66.1994 50.2603 66.1997 50.4674L66.1997 71.2463C66.1994 71.4534 66.1296 71.6519 66.0053 71.7984C65.8811 71.9448 65.7127 72.0272 65.537 72.0274ZM37.0428 49.9987C36.9374 49.9989 36.8363 50.0483 36.7618 50.1362C36.6872 50.224 36.6453 50.3432 36.6452 50.4674L36.6452 71.2463C36.6453 71.3705 36.6872 71.4897 36.7618 71.5775C36.8363 71.6654 36.9374 71.7148 37.0428 71.715L65.537 71.715C65.6424 71.7148 65.7435 71.6654 65.818 71.5775C65.8925 71.4897 65.9345 71.3705 65.9346 71.2463L65.9346 50.4674C65.9345 50.3432 65.8925 50.224 65.818 50.1362C65.7435 50.0483 65.6424 49.9989 65.537 49.9987L37.0428 49.9987Z" fill="#3F3D56"/>
<path d="M65.537 72.0274L37.0428 72.0274C36.8671 72.0272 36.6987 71.9448 36.5744 71.7984C36.4502 71.6519 36.3803 71.4534 36.3801 71.2463L36.3801 50.4674C36.3803 50.2603 36.4502 50.0618 36.5744 49.9153C36.6987 49.7689 36.8671 49.6865 37.0428 49.6863L65.537 49.6863C65.7127 49.6865 65.8811 49.7689 66.0053 49.9153C66.1296 50.0618 66.1994 50.2603 66.1997 50.4674L66.1997 71.2463C66.1994 71.4534 66.1296 71.6519 66.0053 71.7984C65.8811 71.9448 65.7127 72.0272 65.537 72.0274Z" fill="#FBC476"/>
<path d="M59.9044 56.6258L42.6754 56.6258C42.5172 56.6258 42.3655 56.5517 42.2537 56.4199C42.1418 56.2881 42.079 56.1092 42.079 55.9228C42.079 55.7363 42.1418 55.5575 42.2537 55.4256C42.3655 55.2938 42.5172 55.2197 42.6754 55.2197L59.9044 55.2197C60.0626 55.2197 60.2143 55.2938 60.3261 55.4256C60.438 55.5575 60.5008 55.7363 60.5008 55.9228C60.5008 56.1092 60.438 56.2881 60.3261 56.4199C60.2143 56.5517 60.0626 56.6258 59.9044 56.6258Z" fill="#FFF7EB"/>
<path d="M59.9044 61.4696L42.6754 61.4696C42.5172 61.4696 42.3655 61.3955 42.2537 61.2637C42.1418 61.1318 42.079 60.953 42.079 60.7665C42.079 60.5801 42.1418 60.4012 42.2537 60.2694C42.3655 60.1375 42.5172 60.0635 42.6754 60.0635L59.9044 60.0635C60.0626 60.0635 60.2143 60.1375 60.3261 60.2694C60.438 60.4012 60.5008 60.5801 60.5008 60.7665C60.5008 60.953 60.438 61.1318 60.3261 61.2637C60.2143 61.3955 60.0626 61.4696 59.9044 61.4696Z" fill="#FFF7EB"/>
<path d="M58.3694 69.1483C59.5465 69.1483 60.5007 68.0234 60.5007 66.6358C60.5007 65.2482 59.5465 64.1233 58.3694 64.1233C57.1923 64.1233 56.238 65.2482 56.238 66.6358C56.238 68.0234 57.1923 69.1483 58.3694 69.1483Z" fill="#FFF7EB"/>
<path d="M101.901 81.4244L73.4067 81.4244C73.231 81.4242 73.0626 81.3418 72.9383 81.1953C72.8141 81.0489 72.7442 80.8504 72.744 80.6433L72.744 59.8644C72.7442 59.6573 72.8141 59.4588 72.9383 59.3123C73.0626 59.1659 73.231 59.0835 73.4067 59.0833L101.901 59.0833C102.077 59.0835 102.245 59.1659 102.369 59.3123C102.493 59.4588 102.563 59.6573 102.564 59.8644L102.564 80.6433C102.563 80.8504 102.493 81.0489 102.369 81.1953C102.245 81.3418 102.077 81.4242 101.901 81.4244ZM73.4067 59.3957C73.3013 59.3959 73.2002 59.4453 73.1257 59.5331C73.0511 59.621 73.0092 59.7401 73.0091 59.8644L73.0091 80.6433C73.0092 80.7675 73.0511 80.8867 73.1257 80.9745C73.2002 81.0624 73.3013 81.1118 73.4067 81.1119L101.901 81.1119C102.006 81.1118 102.107 81.0624 102.182 80.9745C102.256 80.8867 102.298 80.7675 102.298 80.6433L102.298 59.8644C102.298 59.7401 102.256 59.621 102.182 59.5331C102.107 59.4453 102.006 59.3959 101.901 59.3957L73.4067 59.3957Z" fill="#3F3D56"/>
<path d="M101.901 81.4244L73.4067 81.4244C73.231 81.4242 73.0626 81.3418 72.9383 81.1953C72.8141 81.0489 72.7442 80.8504 72.744 80.6433L72.744 59.8644C72.7442 59.6573 72.8141 59.4588 72.9383 59.3123C73.0626 59.1659 73.231 59.0835 73.4067 59.0833L101.901 59.0833C102.077 59.0835 102.245 59.1659 102.369 59.3123C102.493 59.4588 102.563 59.6573 102.564 59.8644L102.564 80.6433C102.563 80.8504 102.493 81.0489 102.369 81.1953C102.245 81.3418 102.077 81.4242 101.901 81.4244Z" fill="#FBC476"/>
<path d="M96.2683 66.0233L79.0393 66.0233C78.8811 66.0233 78.7294 65.9492 78.6175 65.8174C78.5057 65.6855 78.4429 65.5067 78.4429 65.3202C78.4429 65.1338 78.5057 64.955 78.6175 64.8231C78.7294 64.6913 78.8811 64.6172 79.0393 64.6172L96.2683 64.6172C96.4265 64.6172 96.5782 64.6913 96.69 64.8231C96.8019 64.955 96.8647 65.1338 96.8647 65.3202C96.8647 65.5067 96.8019 65.6855 96.69 65.8174C96.5782 65.9492 96.4265 66.0233 96.2683 66.0233Z" fill="#FFF7EB"/>
<path d="M96.2683 70.8661L79.0393 70.8661C78.8811 70.8661 78.7294 70.792 78.6175 70.6601C78.5057 70.5283 78.4429 70.3495 78.4429 70.163C78.4429 69.9765 78.5057 69.7977 78.6175 69.6659C78.7294 69.534 78.8811 69.46 79.0393 69.46L96.2683 69.46C96.4265 69.46 96.5782 69.534 96.69 69.6659C96.8019 69.7977 96.8647 69.9765 96.8647 70.163C96.8647 70.3495 96.8019 70.5283 96.69 70.6601C96.5782 70.792 96.4265 70.8661 96.2683 70.8661Z" fill="#FFF7EB"/>
<path d="M32.8767 55.8897L13.6074 55.8897C13.4886 55.8896 13.3747 55.8339 13.2907 55.7348C13.2067 55.6358 13.1594 55.5015 13.1593 55.3615L13.1593 41.3098C13.1594 41.1697 13.2067 41.0354 13.2907 40.9364C13.3747 40.8374 13.4886 40.7817 13.6074 40.7815L32.8767 40.7815C32.9955 40.7817 33.1094 40.8374 33.1934 40.9364C33.2774 41.0354 33.3247 41.1697 33.3248 41.3098L33.3248 55.3615C33.3247 55.5015 33.2774 55.6358 33.1934 55.7348C33.1094 55.8339 32.9955 55.8896 32.8767 55.8897ZM13.6074 40.9928C13.5361 40.9929 13.4678 41.0263 13.4174 41.0857C13.367 41.1452 13.3386 41.2257 13.3385 41.3098L13.3385 55.3615C13.3386 55.4455 13.367 55.5261 13.4174 55.5855C13.4678 55.6449 13.5361 55.6783 13.6074 55.6784L32.8767 55.6784C32.948 55.6783 33.0163 55.6449 33.0667 55.5855C33.1171 55.5261 33.1455 55.4455 33.1456 55.3615L33.1456 41.3098C33.1455 41.2257 33.1171 41.1452 33.0667 41.0857C33.0163 41.0263 32.948 40.9929 32.8767 40.9928L13.6074 40.9928Z" fill="#3F3D56"/>
<path d="M32.8767 55.8897L13.6074 55.8897C13.4886 55.8896 13.3747 55.8339 13.2907 55.7348C13.2067 55.6358 13.1594 55.5015 13.1593 55.3615L13.1593 41.3098C13.1594 41.1697 13.2067 41.0354 13.2907 40.9364C13.3747 40.8374 13.4886 40.7817 13.6074 40.7815L32.8767 40.7815C32.9955 40.7817 33.1094 40.8374 33.1934 40.9364C33.2774 41.0354 33.3247 41.1697 33.3248 41.3098L33.3248 55.3615C33.3247 55.5015 33.2774 55.6358 33.1934 55.7348C33.1094 55.8339 32.9955 55.8896 32.8767 55.8897Z" fill="#FBC476"/>
<path d="M29.0677 45.4743L17.4165 45.4743C17.3095 45.4743 17.2069 45.4242 17.1313 45.3351C17.0557 45.2459 17.0132 45.125 17.0132 44.9989C17.0132 44.8728 17.0557 44.7519 17.1313 44.6627C17.2069 44.5735 17.3095 44.5234 17.4165 44.5234L29.0677 44.5234C29.1746 44.5234 29.2772 44.5735 29.3529 44.6627C29.4285 44.7519 29.471 44.8728 29.471 44.9989C29.471 45.125 29.4285 45.2459 29.3529 45.3351C29.2772 45.4242 29.1746 45.4743 29.0677 45.4743Z" fill="#FFF7EB"/>
<path d="M29.0677 48.7499L17.4165 48.7499C17.3095 48.7499 17.2069 48.6999 17.1313 48.6107C17.0557 48.5215 17.0132 48.4006 17.0132 48.2745C17.0132 48.1484 17.0557 48.0275 17.1313 47.9383C17.2069 47.8492 17.3095 47.7991 17.4165 47.7991L29.0677 47.7991C29.1746 47.7991 29.2772 47.8492 29.3529 47.9383C29.4285 48.0275 29.471 48.1484 29.471 48.2745C29.471 48.4006 29.4285 48.5215 29.3529 48.6107C29.2772 48.6999 29.1746 48.7499 29.0677 48.7499Z" fill="#FFF7EB"/>
<path d="M28.0297 53.9433C28.8257 53.9433 29.471 53.1826 29.471 52.2442C29.471 51.3059 28.8257 50.5452 28.0297 50.5452C27.2337 50.5452 26.5884 51.3059 26.5884 52.2442C26.5884 53.1826 27.2337 53.9433 28.0297 53.9433Z" fill="#FFF7EB"/>
<path d="M95.6629 54.0113L68.3694 54.0113C68.2011 54.0111 68.0397 53.9322 67.9207 53.7919C67.8017 53.6516 67.7348 53.4614 67.7346 53.2631L67.7346 33.3598C67.7348 33.1614 67.8017 32.9713 67.9207 32.831C68.0397 32.6907 68.2011 32.6118 68.3694 32.6116L95.6629 32.6116C95.8311 32.6118 95.9925 32.6907 96.1115 32.831C96.2305 32.9713 96.2974 33.1614 96.2976 33.3598L96.2976 53.2631C96.2974 53.4614 96.2305 53.6516 96.1115 53.7919C95.9925 53.9322 95.8311 54.0111 95.6629 54.0113ZM68.3694 32.9109C68.2684 32.911 68.1716 32.9583 68.1002 33.0425C68.0288 33.1267 67.9886 33.2408 67.9885 33.3598L67.9885 53.2631C67.9886 53.3821 68.0288 53.4962 68.1002 53.5804C68.1716 53.6645 68.2684 53.7119 68.3694 53.712L95.6629 53.712C95.7638 53.7119 95.8606 53.6645 95.932 53.5804C96.0034 53.4962 96.0436 53.3821 96.0437 53.2631L96.0437 33.3598C96.0436 33.2408 96.0034 33.1267 95.932 33.0425C95.8606 32.9583 95.7638 32.911 95.6629 32.9109L68.3694 32.9109Z" fill="#3F3D56"/>
<path d="M95.6629 54.0113L68.3694 54.0113C68.2011 54.0111 68.0397 53.9322 67.9207 53.7919C67.8017 53.6516 67.7348 53.4614 67.7346 53.2631L67.7346 33.3598C67.7348 33.1614 67.8017 32.9713 67.9207 32.831C68.0397 32.6907 68.2011 32.6118 68.3694 32.6116L95.6629 32.6116C95.8311 32.6118 95.9925 32.6907 96.1115 32.831C96.2305 32.9713 96.2974 33.1614 96.2976 33.3598L96.2976 53.2631C96.2974 53.4614 96.2305 53.6516 96.1115 53.7919C95.9925 53.9322 95.8311 54.0111 95.6629 54.0113Z" fill="#FBC476"/>
<path d="M90.2677 39.2585L73.7646 39.2585C73.6131 39.2585 73.4678 39.1875 73.3607 39.0612C73.2535 38.9349 73.1934 38.7636 73.1934 38.585C73.1934 38.4064 73.2535 38.2352 73.3607 38.1089C73.4678 37.9826 73.6131 37.9116 73.7646 37.9116L90.2677 37.9116C90.4192 37.9116 90.5645 37.9826 90.6716 38.1089C90.7787 38.2352 90.8389 38.4064 90.8389 38.585C90.8389 38.7636 90.7787 38.9349 90.6716 39.0612C90.5645 39.1875 90.4192 39.2585 90.2677 39.2585Z" fill="#FFF7EB"/>
<path d="M90.2677 43.8984L73.7646 43.8984C73.6131 43.8984 73.4678 43.8274 73.3607 43.7011C73.2535 43.5748 73.1934 43.4035 73.1934 43.2249C73.1934 43.0463 73.2535 42.875 73.3607 42.7488C73.4678 42.6225 73.6131 42.5515 73.7646 42.5515L90.2677 42.5515C90.4192 42.5515 90.5645 42.6225 90.6716 42.7488C90.7787 42.875 90.8389 43.0463 90.8389 43.2249C90.8389 43.4035 90.7787 43.5748 90.6716 43.7011C90.5645 43.8274 90.4192 43.8984 90.2677 43.8984Z" fill="#FFF7EB"/>
<path d="M88.7974 51.2529C89.9249 51.2529 90.8389 50.1754 90.8389 48.8463C90.8389 47.5172 89.9249 46.4397 88.7974 46.4397C87.6699 46.4397 86.7559 47.5172 86.7559 48.8463C86.7559 50.1754 87.6699 51.2529 88.7974 51.2529Z" fill="#FFF7EB"/>
</g>
</svg>
