<svg width="50" height="50" viewBox="0 0 50 50" fill="none" xmlns="http://www.w3.org/2000/svg">
<circle cx="25" cy="25" r="25" fill="#F4ECFF"/>
<path d="M25 35.8333C30.9831 35.8333 35.8333 30.9831 35.8333 25C35.8333 19.0169 30.9831 14.1667 25 14.1667C19.0169 14.1667 14.1667 19.0169 14.1667 25C14.1667 30.9831 19.0169 35.8333 25 35.8333Z" fill="#6C63FF"/>
<path d="M25 26.0833C24.3933 26.0833 23.9167 25.5958 23.9167 25C23.9167 24.4042 24.4042 23.9167 25 23.9167C25.5958 23.9167 26.0833 24.4042 26.0833 25C26.0833 25.5958 25.6067 26.0833 25 26.0833Z" fill="white"/>
<path d="M29.3333 26.0833C28.7267 26.0833 28.25 25.5958 28.25 25C28.25 24.4042 28.7375 23.9167 29.3333 23.9167C29.9292 23.9167 30.4167 24.4042 30.4167 25C30.4167 25.5958 29.94 26.0833 29.3333 26.0833Z" fill="white"/>
<path d="M20.6667 26.0833C20.06 26.0833 19.5833 25.5958 19.5833 25C19.5833 24.4042 20.0708 23.9167 20.6667 23.9167C21.2625 23.9167 21.75 24.4042 21.75 25C21.75 25.5958 21.2733 26.0833 20.6667 26.0833Z" fill="white"/>
</svg>
