<svg width="26" height="25" viewBox="0 0 26 25" fill="none" xmlns="http://www.w3.org/2000/svg">
<path opacity="0.4" d="M13 24.0605C19.6441 24.0605 25.0303 18.6744 25.0303 12.0303C25.0303 5.38614 19.6441 0 13 0C6.35586 0 0.969727 5.38614 0.969727 12.0303C0.969727 18.6744 6.35586 24.0605 13 24.0605Z" fill="#28B446"/>
<path d="M16.9467 11.1883H14.9016V6.42431C14.9016 5.31753 14.3 5.08895 13.5662 5.91904L13.0369 6.52055L8.56161 11.6094C7.94806 12.3071 8.2007 12.8725 9.12703 12.8725H11.1722V17.6365C11.1722 18.7433 11.7737 18.9719 12.5075 18.1418L13.0369 17.5403L17.5121 12.4515C18.1257 11.7537 17.873 11.1883 16.9467 11.1883Z" fill="#28B446"/>
</svg>
