<svg width="20" height="20" viewBox="0 0 20 20" fill="none" xmlns="http://www.w3.org/2000/svg">
<path d="M0 10.9698V4.98976C0 2.22976 2.24 -0.000244141 5 -0.000244141H15C17.76 -0.000244141 20 2.22976 20 4.98976V11.9698C20 14.7198 17.76 16.9498 15 16.9498H13.5C13.19 16.9498 12.89 17.0998 12.7 17.3498L11.2 19.3398C10.54 20.2198 9.46 20.2198 8.8 19.3398L7.3 17.3498C7.14 17.1298 6.78 16.9498 6.5 16.9498H5C2.24 16.9498 0 14.7198 0 11.9698V10.9698Z" fill="#6C63FF"/>
<path d="M10 9.99976C9.44 9.99976 9 9.54976 9 8.99976C9 8.44976 9.45 7.99976 10 7.99976C10.55 7.99976 11 8.44976 11 8.99976C11 9.54976 10.56 9.99976 10 9.99976Z" fill="#E5E3FF"/>
<path d="M14 9.99976C13.44 9.99976 13 9.54976 13 8.99976C13 8.44976 13.45 7.99976 14 7.99976C14.55 7.99976 15 8.44976 15 8.99976C15 9.54976 14.56 9.99976 14 9.99976Z" fill="#E5E3FF"/>
<path d="M6 9.99976C5.44 9.99976 5 9.54976 5 8.99976C5 8.44976 5.45 7.99976 6 7.99976C6.55 7.99976 7 8.44976 7 8.99976C7 9.54976 6.56 9.99976 6 9.99976Z" fill="#E5E3FF"/>
</svg>
