<svg width="24" height="24" viewBox="0 0 24 24" fill="none" xmlns="http://www.w3.org/2000/svg">
<path d="M19.3399 14.4899L18.3399 12.8299C18.1299 12.4599 17.9399 11.7599 17.9399 11.3499V8.8199C17.9399 5.5599 15.2899 2.8999 12.0199 2.8999C8.74994 2.8999 6.09994 5.5599 6.09994 8.8199V11.3499C6.09994 11.7599 5.90994 12.4599 5.69994 12.8199L4.68994 14.4899C4.28994 15.1599 4.19994 15.8999 4.44994 16.5799C4.68994 17.2499 5.25994 17.7699 5.99994 18.0199C7.93994 18.6799 9.97994 18.9999 12.0199 18.9999C14.0599 18.9999 16.0999 18.6799 18.0399 18.0299C18.7399 17.7999 19.2799 17.2699 19.5399 16.5799C19.7999 15.8899 19.7299 15.1299 19.3399 14.4899Z" fill="#6C63FF"/>
<path d="M12.457 2.03669C13.2232 2.16702 12.7973 2.9 12.02 2.9C11.2482 2.9 10.8215 2.16889 11.582 2.03745C11.7249 2.01276 11.8714 2 12.02 2C12.1688 2 12.3148 2.0125 12.457 2.03669Z" fill="#6C63FF"/>
<path opacity="0.4" d="M14.3401 20.07C14.565 20.0419 14.7356 20.2607 14.6247 20.4584C14.1084 21.378 13.1254 22 12.0001 22C11.2101 22 10.4301 21.68 9.88005 21.11C9.65806 20.9019 9.47456 20.6456 9.33625 20.3713C9.25367 20.2075 9.39847 20.0241 9.58005 20.05C9.81005 20.08 10.0501 20.11 10.2901 20.13C10.8601 20.18 11.4401 20.21 12.0201 20.21C12.5901 20.21 13.1601 20.18 13.7201 20.13C13.9301 20.11 14.1401 20.1 14.3401 20.07Z" fill="#6C63FF"/>
</svg>
