<svg width="15" height="15" viewBox="0 0 15 15" fill="none" xmlns="http://www.w3.org/2000/svg">
<path d="M3.46274 12.2C3.08149 12.2 2.72524 12.0687 2.46899 11.825C2.14399 11.5187 1.98774 11.0562 2.04399 10.5562L2.27524 8.53122C2.31899 8.14997 2.55024 7.64372 2.81899 7.36872L7.95024 1.93747C9.23149 0.58122 10.569 0.54372 11.9252 1.82497C13.2815 3.10622 13.319 4.44372 12.0377 5.79997L6.90649 11.2312C6.64399 11.5125 6.15649 11.775 5.77524 11.8375L3.76274 12.1812C3.65649 12.1875 3.56274 12.2 3.46274 12.2ZM9.95649 1.81872C9.47524 1.81872 9.05649 2.11872 8.63149 2.56872L3.50024 8.00622C3.37524 8.13747 3.23149 8.44997 3.20649 8.63122L2.97524 10.6562C2.95024 10.8625 3.00024 11.0312 3.11274 11.1375C3.22524 11.2437 3.39399 11.2812 3.60024 11.25L5.61274 10.9062C5.79399 10.875 6.09399 10.7125 6.21899 10.5812L11.3502 5.14997C12.1252 4.32497 12.4065 3.56247 11.2752 2.49997C10.7752 2.01872 10.344 1.81872 9.95649 1.81872Z" fill="#6C63FF"/>
<path d="M10.8373 6.84378C10.8248 6.84378 10.806 6.84378 10.7935 6.84378C8.84353 6.65003 7.27478 5.16878 6.97478 3.23128C6.93728 2.97503 7.11228 2.73753 7.36853 2.69378C7.62478 2.65628 7.86228 2.83128 7.90603 3.08753C8.14353 4.60003 9.36853 5.76253 10.8935 5.91253C11.1498 5.93753 11.3373 6.16878 11.3123 6.42503C11.281 6.66253 11.0748 6.84378 10.8373 6.84378Z" fill="#6C63FF"/>
<path d="M13.125 14.2188H1.875C1.61875 14.2188 1.40625 14.0062 1.40625 13.75C1.40625 13.4938 1.61875 13.2812 1.875 13.2812H13.125C13.3812 13.2812 13.5938 13.4938 13.5938 13.75C13.5938 14.0062 13.3812 14.2188 13.125 14.2188Z" fill="#6C63FF"/>
</svg>
