<svg width="29" height="28" viewBox="0 0 29 28" fill="none" xmlns="http://www.w3.org/2000/svg">
<path opacity="0.4" d="M14.5003 25.6666C21.1738 25.6666 26.5837 20.4432 26.5837 13.9999C26.5837 7.5566 21.1738 2.33325 14.5003 2.33325C7.82688 2.33325 2.41699 7.5566 2.41699 13.9999C2.41699 20.4432 7.82688 25.6666 14.5003 25.6666Z" fill="#6C63FF"/>
<path d="M19.3337 13.1249H15.4066V9.33325C15.4066 8.85492 14.9957 8.45825 14.5003 8.45825C14.0049 8.45825 13.5941 8.85492 13.5941 9.33325V13.1249H9.66699C9.17158 13.1249 8.76074 13.5216 8.76074 13.9999C8.76074 14.4783 9.17158 14.8749 9.66699 14.8749H13.5941V18.6666C13.5941 19.1449 14.0049 19.5416 14.5003 19.5416C14.9957 19.5416 15.4066 19.1449 15.4066 18.6666V14.8749H19.3337C19.8291 14.8749 20.2399 14.4783 20.2399 13.9999C20.2399 13.5216 19.8291 13.1249 19.3337 13.1249Z" fill="#6C63FF"/>
</svg>
