<svg width="28" height="30" viewBox="0 0 28 30" fill="none" xmlns="http://www.w3.org/2000/svg">
<path d="M25.6666 7.41658V10.3744C25.6666 12.3055 24.5 13.5277 22.6566 13.5277H18.6666V4.98435C18.6666 3.62769 19.7283 2.51547 21.0233 2.52769C22.295 2.53991 23.4616 3.07769 24.3016 3.95769C25.1416 4.84991 25.6666 6.07213 25.6666 7.41658Z" fill="#6C63FF"/>
<path opacity="0.4" d="M2.33337 8.6387V25.7498C2.33337 26.7643 3.43004 27.3387 4.20004 26.7276L6.19504 25.1631C6.66171 24.7965 7.31504 24.8454 7.73504 25.2854L9.67171 27.3265C10.1267 27.8031 10.8734 27.8031 11.3284 27.3265L13.2884 25.2731C13.6967 24.8454 14.35 24.7965 14.805 25.1631L16.8 26.7276C17.57 27.3265 18.6667 26.752 18.6667 25.7498V4.97203C18.6667 3.62759 19.7167 2.52759 21 2.52759H8.16671H7.00004C3.50004 2.52759 2.33337 4.71537 2.33337 7.41648V8.6387Z" fill="#6C63FF"/>
<path d="M14 15.0676H10.5C10.0217 15.0676 9.625 15.4832 9.625 15.9843C9.625 16.4854 10.0217 16.901 10.5 16.901H14C14.4783 16.901 14.875 16.4854 14.875 15.9843C14.875 15.4832 14.4783 15.0676 14 15.0676Z" fill="#6C63FF"/>
<path d="M10.5 12.0123H14C14.4783 12.0123 14.875 11.5967 14.875 11.0956C14.875 10.5945 14.4783 10.179 14 10.179H10.5C10.0217 10.179 9.625 10.5945 9.625 11.0956C9.625 11.5967 10.0217 12.0123 10.5 12.0123Z" fill="#6C63FF"/>
<path d="M6.96501 9.87329C6.31167 9.87329 5.79834 10.4233 5.79834 11.0955C5.79834 11.7677 6.32334 12.3177 6.96501 12.3177C7.60667 12.3177 8.13167 11.7677 8.13167 11.0955C8.13167 10.4233 7.60667 9.87329 6.96501 9.87329Z" fill="#6C63FF"/>
<path d="M6.96501 14.7622C6.31167 14.7622 5.79834 15.3122 5.79834 15.9844C5.79834 16.6567 6.32334 17.2067 6.96501 17.2067C7.60667 17.2067 8.13167 16.6567 8.13167 15.9844C8.13167 15.3122 7.60667 14.7622 6.96501 14.7622Z" fill="#6C63FF"/>
</svg>
