<svg width="20" height="20" viewBox="0 0 20 20" fill="none" xmlns="http://www.w3.org/2000/svg">
<path d="M12.5 18.9584H7.49996C2.97496 18.9584 1.04163 17.0251 1.04163 12.5001V7.50008C1.04163 2.97508 2.97496 1.04175 7.49996 1.04175H11.6666C12.0083 1.04175 12.2916 1.32508 12.2916 1.66675C12.2916 2.00841 12.0083 2.29175 11.6666 2.29175H7.49996C3.65829 2.29175 2.29163 3.65841 2.29163 7.50008V12.5001C2.29163 16.3417 3.65829 17.7084 7.49996 17.7084H12.5C16.3416 17.7084 17.7083 16.3417 17.7083 12.5001V8.33341C17.7083 7.99175 17.9916 7.70841 18.3333 7.70841C18.675 7.70841 18.9583 7.99175 18.9583 8.33341V12.5001C18.9583 17.0251 17.025 18.9584 12.5 18.9584Z" fill="#6C63FF"/>
<path d="M18.3333 8.9584H15C12.15 8.9584 11.0416 7.85007 11.0416 5.00007V1.66674C11.0416 1.41674 11.1916 1.18341 11.425 1.09174C11.6583 0.991739 11.925 1.05007 12.1083 1.22507L18.775 7.89174C18.95 8.06674 19.0083 8.34174 18.9083 8.57507C18.8083 8.8084 18.5833 8.9584 18.3333 8.9584ZM12.2916 3.17507V5.00007C12.2916 7.15007 12.85 7.70841 15 7.70841H16.825L12.2916 3.17507Z" fill="#6C63FF"/>
<path d="M10.8334 11.4583H5.83337C5.49171 11.4583 5.20837 11.1749 5.20837 10.8333C5.20837 10.4916 5.49171 10.2083 5.83337 10.2083H10.8334C11.175 10.2083 11.4584 10.4916 11.4584 10.8333C11.4584 11.1749 11.175 11.4583 10.8334 11.4583Z" fill="#6C63FF"/>
<path d="M9.16671 14.7917H5.83337C5.49171 14.7917 5.20837 14.5084 5.20837 14.1667C5.20837 13.8251 5.49171 13.5417 5.83337 13.5417H9.16671C9.50837 13.5417 9.79171 13.8251 9.79171 14.1667C9.79171 14.5084 9.50837 14.7917 9.16671 14.7917Z" fill="#6C63FF"/>
</svg>
