<svg width="62" height="62" viewBox="0 0 62 62" fill="none" xmlns="http://www.w3.org/2000/svg">
<circle cx="31" cy="31" r="31" fill="#BAECC5"/>
<path d="M25.8825 42.5002H36.1175C42.4808 42.5002 45.0683 37.996 41.9058 32.4952L40.4875 30.0418C40.1425 29.4477 39.51 29.0835 38.82 29.0835H23.18C22.49 29.0835 21.8575 29.4477 21.5125 30.0418L20.0942 32.4952C16.9317 37.996 19.5192 42.5002 25.8825 42.5002Z" fill="#28B446"/>
<path opacity="0.4" d="M24.8475 27.1666H37.1717C37.9192 27.1666 38.3792 26.3616 37.9958 25.7291L36.7692 23.6207C33.6067 18.1199 28.3933 18.1199 25.2308 23.6207L24.0042 25.7291C23.64 26.3616 24.1 27.1666 24.8475 27.1666Z" fill="#28B446"/>
</svg>
