<svg width="18" height="18" viewBox="0 0 18 18" fill="none" xmlns="http://www.w3.org/2000/svg">
<path d="M11.0927 14.5648C11.0102 14.5648 10.9202 14.5423 10.8452 14.5048C10.5677 14.3623 10.4552 14.0248 10.5902 13.7473L12.1952 10.5448C12.2927 10.3573 12.4877 10.2373 12.6977 10.2373C12.9077 10.2373 13.1027 10.3573 13.2002 10.5523L14.8052 13.7548C14.9477 14.0323 14.8352 14.3698 14.5502 14.5123C14.2727 14.6548 13.9352 14.5423 13.7927 14.2573L12.6977 12.0598L11.6027 14.2573C11.4977 14.4523 11.2952 14.5648 11.0927 14.5648Z" fill="#6C63FF"/>
<path d="M14.0101 13.9951H11.3701C11.0626 13.9951 10.8076 13.7401 10.8076 13.4326C10.8076 13.1251 11.0626 12.8701 11.3701 12.8701H14.0101C14.3176 12.8701 14.5726 13.1251 14.5726 13.4326C14.5726 13.7401 14.3251 13.9951 14.0101 13.9951Z" fill="#6C63FF"/>
<path d="M12.6899 17.0624C10.2824 17.0624 8.31738 15.1048 8.31738 12.6898C8.31738 10.2748 10.2749 8.31738 12.6899 8.31738C15.0974 8.31738 17.0624 10.2748 17.0624 12.6898C17.0624 15.1048 15.1049 17.0624 12.6899 17.0624ZM12.6899 9.44984C10.8974 9.44984 9.44238 10.9049 9.44238 12.6974C9.44238 14.4899 10.8974 15.9449 12.6899 15.9449C14.4749 15.9449 15.9374 14.4899 15.9374 12.6974C15.9374 10.9049 14.4824 9.44984 12.6899 9.44984Z" fill="#6C63FF"/>
<path d="M3.645 9.5247C2.8125 9.5247 2.1525 9.29218 1.6875 8.84218C1.1925 8.36218 0.9375 7.63469 0.9375 6.69719V3.7572C0.9375 1.9347 1.9425 0.929688 3.765 0.929688H6.705C7.6425 0.929688 8.3625 1.17719 8.85 1.67969C9.3225 2.16719 9.55501 2.87222 9.53251 3.77222V6.69719C9.55501 7.61219 9.3225 8.3322 8.835 8.8197C8.3475 9.3072 7.62749 9.5322 6.69749 9.5172H3.7725C3.72 9.5247 3.6825 9.5247 3.645 9.5247ZM3.765 2.06219C2.5575 2.06219 2.0625 2.55721 2.0625 3.76471V6.7047C2.0625 7.3272 2.19749 7.77717 2.46749 8.03967C2.73 8.29467 3.15 8.4072 3.7425 8.3997H6.69749C7.32749 8.4147 7.7625 8.2872 8.025 8.0247C8.2875 7.7622 8.4075 7.3197 8.3925 6.7122V3.7572C8.4075 3.1572 8.28751 2.72968 8.03251 2.46718C7.77001 2.19718 7.31999 2.06219 6.69749 2.06219H3.765Z" fill="#6C63FF"/>
<path d="M6.74995 4.9502H3.70496C3.39746 4.9502 3.14246 4.6952 3.14246 4.3877C3.14246 4.0802 3.39746 3.8252 3.70496 3.8252H6.74995C7.05745 3.8252 7.31245 4.0802 7.31245 4.3877C7.31245 4.6952 7.06495 4.9502 6.74995 4.9502Z" fill="#6C63FF"/>
<path d="M5.23499 4.94945C4.92749 4.94945 4.67249 4.69445 4.67249 4.38695V3.87695C4.67249 3.56945 4.92749 3.31445 5.23499 3.31445C5.54249 3.31445 5.79749 3.56945 5.79749 3.87695V4.38695C5.79749 4.69445 5.54249 4.94945 5.23499 4.94945Z" fill="#6C63FF"/>
<path d="M3.70496 7.31987C3.39746 7.31987 3.14246 7.06487 3.14246 6.75737C3.14246 6.44987 3.39746 6.19487 3.70496 6.19487C4.65746 6.19487 5.42996 5.38488 5.42996 4.37988C5.42996 4.07238 5.68496 3.81738 5.99246 3.81738C6.29996 3.81738 6.55496 4.07238 6.55496 4.37988C6.55496 5.99988 5.27996 7.31987 3.70496 7.31987Z" fill="#6C63FF"/>
<path d="M6.75745 7.31956C6.05995 7.31956 5.39245 6.96707 4.91995 6.34457C4.73245 6.09707 4.78496 5.74453 5.03246 5.55703C5.27996 5.36953 5.63245 5.42205 5.81995 5.66955C6.07495 6.01455 6.41245 6.20207 6.75745 6.20207C7.06495 6.20207 7.31995 6.45707 7.31995 6.76457C7.31995 7.07207 7.06495 7.31956 6.75745 7.31956Z" fill="#6C63FF"/>
<path d="M6.75 17.0625C3.5475 17.0625 0.9375 14.4525 0.9375 11.25C0.9375 10.9425 1.1925 10.6875 1.5 10.6875C1.8075 10.6875 2.0625 10.9425 2.0625 11.25C2.0625 13.47 3.6075 15.33 5.685 15.8175L5.4825 15.48C5.325 15.21 5.40751 14.865 5.67751 14.7075C5.94001 14.55 6.2925 14.6325 6.45 14.9025L7.2375 16.215C7.3425 16.3875 7.3425 16.605 7.245 16.7775C7.14 16.95 6.9525 17.0625 6.75 17.0625Z" fill="#6C63FF"/>
<path d="M16.5 7.3125C16.1925 7.3125 15.9375 7.0575 15.9375 6.75C15.9375 4.53 14.3925 2.66998 12.315 2.18248L12.5175 2.51999C12.675 2.78999 12.5924 3.13501 12.3224 3.29251C12.0599 3.45001 11.7074 3.3675 11.5499 3.0975L10.7625 1.785C10.6575 1.6125 10.6574 1.395 10.7549 1.2225C10.8524 1.0425 11.04 0.9375 11.2425 0.9375C14.445 0.9375 17.055 3.5475 17.055 6.75C17.0625 7.0575 16.8075 7.3125 16.5 7.3125Z" fill="#6C63FF"/>
</svg>
