<svg width="21" height="21" viewBox="0 0 21 21" fill="none" xmlns="http://www.w3.org/2000/svg">
<path d="M18.375 5.88867C18.3575 5.88867 18.3312 5.88867 18.305 5.88867C13.6762 5.42492 9.05621 5.24992 4.47996 5.71367L2.69496 5.88867C2.32746 5.92367 2.00371 5.66117 1.96871 5.29367C1.93371 4.92617 2.19621 4.61117 2.55496 4.57617L4.33996 4.40117C8.99496 3.92867 13.7112 4.11242 18.4362 4.57617C18.795 4.61117 19.0575 4.93492 19.0225 5.29367C18.9962 5.63492 18.7075 5.88867 18.375 5.88867Z" fill="#FF483C"/>
<path d="M7.43742 5.005C7.40242 5.005 7.36742 5.005 7.32367 4.99625C6.97367 4.935 6.72867 4.59375 6.78992 4.24375L6.98242 3.0975C7.12242 2.2575 7.31492 1.09375 9.35367 1.09375H11.6462C13.6937 1.09375 13.8862 2.30125 14.0174 3.10625L14.2099 4.24375C14.2712 4.6025 14.0262 4.94375 13.6762 4.99625C13.3174 5.0575 12.9762 4.8125 12.9237 4.4625L12.7312 3.325C12.6087 2.56375 12.5824 2.415 11.6549 2.415H9.36242C8.43492 2.415 8.41742 2.5375 8.28617 3.31625L8.08492 4.45375C8.03242 4.7775 7.75242 5.005 7.43742 5.005Z" fill="#FF483C"/>
<path d="M13.3088 19.9066H7.69134C4.63759 19.9066 4.51509 18.2179 4.41884 16.8529L3.85009 8.04162C3.82384 7.68287 4.10384 7.36787 4.46259 7.34162C4.83009 7.32412 5.13634 7.59537 5.16259 7.95412L5.73134 16.7654C5.82759 18.0954 5.86259 18.5941 7.69134 18.5941H13.3088C15.1463 18.5941 15.1813 18.0954 15.2688 16.7654L15.8376 7.95412C15.8638 7.59537 16.1788 7.32412 16.5376 7.34162C16.8963 7.36787 17.1763 7.67412 17.1501 8.04162L16.5813 16.8529C16.4851 18.2179 16.3626 19.9066 13.3088 19.9066Z" fill="#FF483C"/>
<path d="M11.9526 15.0938H9.03882C8.68007 15.0938 8.38257 14.7962 8.38257 14.4375C8.38257 14.0788 8.68007 13.7812 9.03882 13.7812H11.9526C12.3113 13.7812 12.6088 14.0788 12.6088 14.4375C12.6088 14.7962 12.3113 15.0938 11.9526 15.0938Z" fill="#FF483C"/>
<path d="M12.6875 11.5938H8.3125C7.95375 11.5938 7.65625 11.2962 7.65625 10.9375C7.65625 10.5788 7.95375 10.2812 8.3125 10.2812H12.6875C13.0462 10.2812 13.3438 10.5788 13.3438 10.9375C13.3438 11.2962 13.0462 11.5938 12.6875 11.5938Z" fill="#FF483C"/>
</svg>
